<?xml version="1.0" encoding="utf-8"?>
<!-- Generator: Adobe Illustrator 15.1.0, SVG Export Plug-In . SVG Version: 6.00 Build 0)  -->
<!DOCTYPE svg PUBLIC "-//W3C//DTD SVG 1.1//EN" "http://www.w3.org/Graphics/SVG/1.1/DTD/svg11.dtd">
<svg version="1.1" id="Layer_1" xmlns="http://www.w3.org/2000/svg" xmlns:xlink="http://www.w3.org/1999/xlink" x="0px" y="0px"
	 width="128px" height="128px" viewBox="0 0 128 128" enable-background="new 0 0 128 128" xml:space="preserve">
<polygon fill="#8DC63F" points="-166.961,70.91 -183.535,77.975 -151.06,123.896 -62.895,33.55 -66.324,6.148 -146.581,99.405 "/>
<polygon fill="#ED1C24" points="126,7.478 111,4.478 62.75,57.174 17,0.522 2,11.522 51.223,69.764 2,123.522 26,119.522 
	60.555,80.806 100,127.478 111,116.923 71.726,68.29 "/>
<polygon fill="#E6E7E8" stroke="#00AEEF" stroke-miterlimit="10" points="182.987,78.648 173.712,117.813 210.609,101.735 "/>
<path fill="#00AEEF" stroke="#00AEEF" stroke-miterlimit="10" d="M246.478,2.688l-63.49,75.961l27.622,23.087l63.49-75.961
	L246.478,2.688z M209.477,89.058l-13.812-11.543l51.946-62.15l13.811,11.543L209.477,89.058z"/>
<polygon fill="#00AEEF" points="178.35,98.231 192.161,109.775 173.712,117.813 "/>
<line fill="none" stroke="#000000" stroke-miterlimit="10" x1="172" y1="124.522" x2="262" y2="124.522"/>
</svg>
