<?xml version="1.0" encoding="utf-8"?>
<!-- Generator: Adobe Illustrator 15.1.0, SVG Export Plug-In . SVG Version: 6.00 Build 0)  -->
<!DOCTYPE svg PUBLIC "-//W3C//DTD SVG 1.1//EN" "http://www.w3.org/Graphics/SVG/1.1/DTD/svg11.dtd">
<svg version="1.1" id="Layer_1" xmlns="http://www.w3.org/2000/svg" xmlns:xlink="http://www.w3.org/1999/xlink" x="0px" y="0px"
	 width="24px" height="24px" viewBox="0 0 24 24" enable-background="new 0 0 24 24" xml:space="preserve">
<path fill="#E6E7E8" d="M23.5,20.625c0,1.587-1.287,2.875-2.875,2.875H3.375c-1.588,0-2.875-1.288-2.875-2.875V3.375
	C0.5,1.787,1.787,0.5,3.375,0.5h17.25c1.588,0,2.875,1.287,2.875,2.875V20.625z"/>
<rect x="1.938" y="2.094" fill="#A7A9AC" width="14.826" height="4.341"/>
<path fill="#A7A9AC" d="M16.13,8.904c0.214,0,0.424,0.013,0.634,0.031V8.223H1.938v4.341h7.971
	C11.125,10.381,13.454,8.904,16.13,8.904z"/>
<path fill="#A7A9AC" d="M9.226,14.307H1.938v4.341h7.576c-0.322-0.813-0.505-1.695-0.505-2.622
	C9.008,15.433,9.089,14.857,9.226,14.307z"/>
<circle fill="#F1F2F2" cx="16.057" cy="16.024" r="5.881"/>
<rect x="17.817" y="12.516" transform="matrix(0.7071 0.7071 -0.7071 0.7071 14.8914 -9.4198)" fill="#939598" width="2" height="1.5"/>
<polygon fill="#39B54A" points="14.751,18.746 18.993,14.503 17.579,13.089 13.336,17.332 13.331,17.357 14.725,18.751 "/>
<polygon fill="#39B54A" points="14.51,18.967 13.116,17.573 12.767,19.315 "/>
</svg>
