<?xml version="1.0" encoding="utf-8"?>
<!-- Generator: Adobe Illustrator 15.1.0, SVG Export Plug-In . SVG Version: 6.00 Build 0)  -->
<!DOCTYPE svg PUBLIC "-//W3C//DTD SVG 1.1//EN" "http://www.w3.org/Graphics/SVG/1.1/DTD/svg11.dtd">
<svg version="1.1" id="Layer_1" xmlns="http://www.w3.org/2000/svg" xmlns:xlink="http://www.w3.org/1999/xlink" x="0px" y="0px"
	 width="24px" height="24px" viewBox="0 0 24 24" enable-background="new 0 0 24 24" xml:space="preserve">
<rect x="1.938" y="2.094" fill="#A7A9AC" width="14.826" height="4.341"/>
<path fill="#A7A9AC" d="M16.13,8.904c0.214,0,0.424,0.013,0.634,0.031V8.223H1.938v4.341h7.971
	C11.125,10.381,13.454,8.904,16.13,8.904z"/>
<path fill="#A7A9AC" d="M9.226,14.307H1.938v4.341h7.576c-0.322-0.813-0.505-1.695-0.505-2.622
	C9.008,15.433,9.089,14.857,9.226,14.307z"/>
<circle fill="#F1F2F2" cx="16.057" cy="16.024" r="5.881"/>
<polygon fill="#27AAE1" points="15.064,11.39 15.064,15.032 11.424,15.03 11.423,17.017 15.064,17.017 15.064,20.657 17.051,20.657 
	17.05,17.018 20.69,17.017 20.69,15.031 17.05,15.031 17.05,11.391 "/>
</svg>
