<?xml version="1.0" encoding="utf-8"?>
<!-- Generator: Adobe Illustrator 15.1.0, SVG Export Plug-In . SVG Version: 6.00 Build 0)  -->
<!DOCTYPE svg PUBLIC "-//W3C//DTD SVG 1.1//EN" "http://www.w3.org/Graphics/SVG/1.1/DTD/svg11.dtd">
<svg version="1.1" id="Layer_1" xmlns="http://www.w3.org/2000/svg" xmlns:xlink="http://www.w3.org/1999/xlink" x="0px" y="0px"
	 width="16px" height="16px" viewBox="0 0 16 16" enable-background="new 0 0 16 16" xml:space="preserve">
<path fill="#00AEEF" d="M10.542,1.809c-2.412-2.412-6.322-2.412-8.733,0s-2.412,6.321,0,8.733c2.035,2.034,5.136,2.352,7.504,0.954
	L13.816,16L16,13.816l-4.504-4.504C12.894,6.944,12.576,3.843,10.542,1.809z M8.358,8.358c-1.206,1.206-3.161,1.206-4.367,0
	c-1.206-1.206-1.206-3.161,0-4.367c1.206-1.206,3.161-1.206,4.367,0C9.564,5.198,9.564,7.152,8.358,8.358z"/>
</svg>
