<?xml version="1.0" encoding="utf-8"?>
<!-- Generator: Adobe Illustrator 15.1.0, SVG Export Plug-In . SVG Version: 6.00 Build 0)  -->
<!DOCTYPE svg PUBLIC "-//W3C//DTD SVG 1.1//EN" "http://www.w3.org/Graphics/SVG/1.1/DTD/svg11.dtd">
<svg version="1.1" id="Layer_1" xmlns="http://www.w3.org/2000/svg" xmlns:xlink="http://www.w3.org/1999/xlink" x="0px" y="0px"
	 width="128px" height="128px" viewBox="0 0 128 128" enable-background="new 0 0 128 128" xml:space="preserve">
<polygon fill="#8DC63F" points="20.253,69.887 3.68,76.952 36.155,122.874 124.32,32.528 120.891,5.126 40.634,98.382 "/>
<polygon fill="#ED1C24" points="313.215,6.456 298.215,3.456 249.965,56.152 204.215,-0.5 189.215,10.5 238.438,68.741 
	189.215,122.5 213.215,118.5 247.77,79.783 287.215,126.455 298.215,115.9 258.94,67.267 "/>
<polygon fill="#E6E7E8" stroke="#00AEEF" stroke-miterlimit="10" points="370.202,77.626 360.927,116.791 397.824,100.713 "/>
<path fill="#00AEEF" stroke="#00AEEF" stroke-miterlimit="10" d="M433.692,1.665l-63.49,75.961l27.622,23.087l63.49-75.961
	L433.692,1.665z M396.691,88.036L382.88,76.492l51.946-62.15l13.811,11.543L396.691,88.036z"/>
<polygon fill="#00AEEF" points="365.564,97.208 379.376,108.752 360.927,116.791 "/>
<line fill="none" stroke="#000000" stroke-miterlimit="10" x1="359.215" y1="123.5" x2="449.215" y2="123.5"/>
</svg>
