<?xml version="1.0" encoding="utf-8"?>
<!-- Generator: Adobe Illustrator 15.1.0, SVG Export Plug-In . SVG Version: 6.00 Build 0)  -->
<!DOCTYPE svg PUBLIC "-//W3C//DTD SVG 1.1//EN" "http://www.w3.org/Graphics/SVG/1.1/DTD/svg11.dtd">
<svg version="1.1" id="Layer_1" xmlns="http://www.w3.org/2000/svg" xmlns:xlink="http://www.w3.org/1999/xlink" x="0px" y="0px"
	 width="32px" height="32px" viewBox="0 0 32 32" enable-background="new 0 0 32 32" xml:space="preserve">
<polygon fill="#8DC63F" points="-158.461,-185.113 -175.035,-178.048 -142.56,-132.126 -54.395,-222.472 -57.824,-249.874 
	-138.081,-156.618 "/>
<polygon fill="#ED1C24" points="134.5,-248.544 119.5,-251.544 71.25,-198.848 25.5,-255.5 10.5,-244.5 59.723,-186.259 
	10.5,-132.5 34.5,-136.5 69.055,-175.217 108.5,-128.545 119.5,-139.1 80.226,-187.733 "/>
<polygon fill="#E6E7E8" stroke="#00AEEF" stroke-miterlimit="10" points="191.487,-177.374 182.212,-138.209 219.109,-154.287 "/>
<path fill="#00AEEF" stroke="#00AEEF" stroke-miterlimit="10" d="M254.978-253.335l-63.49,75.961l27.622,23.087l63.49-75.961
	L254.978-253.335z M217.977-166.964l-13.812-11.543l51.946-62.15l13.811,11.543L217.977-166.964z"/>
<polygon fill="#00AEEF" points="186.85,-157.792 200.661,-146.248 182.212,-138.209 "/>
<line fill="none" stroke="#000000" stroke-miterlimit="10" x1="180.5" y1="-131.5" x2="270.5" y2="-131.5"/>
<path fill="#C6B62F" d="M11.856,15.808v-4.241c0,0,0-4.24,4.24-4.24c4.241,0,4.241,4.24,4.241,4.24v4.241h-2.12v-4.241
	c0,0,0-2.12-2.121-2.12c-2.12,0-2.12,2.12-2.12,2.12v4.241H11.856z"/>
<path fill="#C6B62F" d="M10.218,14.747c0,0,0-1.06,1.06-1.06s9.444,0,9.444,0s1.06,0,1.06,1.06c0,1.061,0,7.421,0,7.421
	s0,1.06-1.06,1.06s-9.444,0-9.444,0s-1.06,0-1.06-1.06C10.218,21.107,10.218,14.747,10.218,14.747z"/>
<path fill="#8DC63F" d="M16,31.5C7.453,31.5,0.5,24.547,0.5,16S7.453,0.5,16,0.5S31.5,7.453,31.5,16S24.547,31.5,16,31.5z M16,2.588
	C8.604,2.588,2.588,8.604,2.588,16S8.604,29.412,16,29.412S29.412,23.396,29.412,16S23.396,2.588,16,2.588z"/>
</svg>
