<?xml version="1.0" encoding="utf-8"?>
<!-- Generator: Adobe Illustrator 15.1.0, SVG Export Plug-In . SVG Version: 6.00 Build 0)  -->
<!DOCTYPE svg PUBLIC "-//W3C//DTD SVG 1.1//EN" "http://www.w3.org/Graphics/SVG/1.1/DTD/svg11.dtd">
<svg version="1.1" id="Layer_1" xmlns="http://www.w3.org/2000/svg" xmlns:xlink="http://www.w3.org/1999/xlink" x="0px" y="0px"
	 width="32px" height="32px" viewBox="0 0 32 32" enable-background="new 0 0 32 32" xml:space="preserve">
<rect x="0.985" y="1.126" fill="#27AAE1" width="22.261" height="6.518"/>
<path fill="#27AAE1" d="M22.294,11.353c0.321,0,0.638,0.02,0.952,0.048V10.33H0.985v6.518h11.968
	C14.781,13.571,18.276,11.353,22.294,11.353z"/>
<path fill="#27AAE1" d="M11.929,19.463H0.985v6.519H12.36c-0.484-1.22-0.758-2.546-0.758-3.938
	C11.602,21.153,11.723,20.292,11.929,19.463z"/>
<circle fill="#FFFFFF" cx="22.185" cy="22.043" r="8.83"/>
<polygon fill="#6FBE46" points="29.142,20.553 23.676,20.553 23.676,15.087 20.694,15.087 20.694,20.553 15.229,20.553 
	15.229,23.535 20.694,23.535 20.694,29 23.676,29 23.676,23.535 29.142,23.535 "/>
</svg>
