<?xml version="1.0" encoding="utf-8"?>
<!-- Generator: Adobe Illustrator 15.1.0, SVG Export Plug-In . SVG Version: 6.00 Build 0)  -->
<!DOCTYPE svg PUBLIC "-//W3C//DTD SVG 1.1//EN" "http://www.w3.org/Graphics/SVG/1.1/DTD/svg11.dtd">
<svg version="1.1" id="Layer_1" xmlns="http://www.w3.org/2000/svg" xmlns:xlink="http://www.w3.org/1999/xlink" x="0px" y="0px"
	 width="128px" height="128px" viewBox="0 0 128 128" enable-background="new 0 0 128 128" xml:space="preserve">
<polygon fill="#8DC63F" points="-326.364,71.407 -342.938,78.472 -310.462,124.394 -222.297,34.047 -225.726,6.646 -305.983,99.902 
	"/>
<polygon fill="#ED1C24" points="-33.402,7.975 -48.402,4.975 -96.652,57.671 -142.402,1.02 -157.402,12.02 -108.18,70.261 
	-157.402,124.02 -133.402,120.02 -98.848,81.303 -59.402,127.975 -48.402,117.42 -87.677,68.787 "/>
<polygon fill="#E6E7E8" stroke="#00AEEF" stroke-miterlimit="10" points="23.585,79.146 14.31,118.311 51.207,102.232 "/>
<path fill="#00AEEF" stroke="#00AEEF" stroke-miterlimit="10" d="M87.075,3.185l-63.49,75.961l27.622,23.087l63.49-75.961
	L87.075,3.185z M50.074,89.555L36.263,78.012l51.946-62.15l13.811,11.543L50.074,89.555z"/>
<polygon fill="#00AEEF" points="18.947,98.728 32.759,110.272 14.31,118.311 "/>
<line fill="none" stroke="#000000" stroke-miterlimit="10" x1="12.598" y1="125.02" x2="102.598" y2="125.02"/>
</svg>
