<?xml version="1.0" encoding="utf-8"?>
<!-- Generator: Adobe Illustrator 15.1.0, SVG Export Plug-In . SVG Version: 6.00 Build 0)  -->
<!DOCTYPE svg PUBLIC "-//W3C//DTD SVG 1.1//EN" "http://www.w3.org/Graphics/SVG/1.1/DTD/svg11.dtd">
<svg version="1.1" id="Layer_1" xmlns="http://www.w3.org/2000/svg" xmlns:xlink="http://www.w3.org/1999/xlink" x="0px" y="0px"
	 width="300px" height="300px" viewBox="0 0 300 300" enable-background="new 0 0 300 300" xml:space="preserve">
<g>
	<path fill-rule="evenodd" clip-rule="evenodd" fill="#FFFFFF" d="M107.742,136.838c1.733,0.138,1.936,1.305,1.425,2.951
		c-2.572-0.504-5.145-1.009-7.717-1.513C102.771,134.935,107.125,141.229,107.742,136.838z"/>
	<path fill-rule="evenodd" clip-rule="evenodd" fill="#EBD6B9" d="M50.024,134.873c0.57-0.011,0.557,0.369,0.517,0.769
		c1.457,3.303,2.622,6.8,4.023,10.139c-0.042,0.214-0.084,0.429-0.126,0.644c-1.373-0.753-3.173-1.218-4.25-2.169
		C50.045,141.435,46.803,136.428,50.024,134.873z"/>
	<path fill-rule="evenodd" clip-rule="evenodd" fill="#C6B840" d="M75.169,156.499c2.31,1.055,5.774,1.331,7.466,2.8
		c-2.8-0.538-5.828-0.922-7.592-2.156C75.086,156.928,75.128,156.713,75.169,156.499z"/>
	<path fill-rule="evenodd" clip-rule="evenodd" fill="#C6B840" d="M101.085,177.608c-4.038-0.977-6.324-2.272-10.291-2.018
		c2.364-1.702,7.63,0.171,10.417,1.375C101.169,177.18,101.127,177.395,101.085,177.608z"/>
	<path fill-rule="evenodd" clip-rule="evenodd" fill="#C6B840" d="M66.116,175.428c2.181,0.768,4.799,1.241,6.18,2.547
		c-2.813-0.156-4.164-1.296-6.306-1.904C66.032,175.856,66.074,175.642,66.116,175.428z"/>
	<path fill-rule="evenodd" clip-rule="evenodd" fill="#483646" d="M82.712,179.35c-1.034,2.423-4.708,2.198-6.81,0.668
		C78.256,179.921,80.084,179.041,82.712,179.35z"/>
	<path fill-rule="evenodd" clip-rule="evenodd" fill="#483646" d="M87.239,186.915c-4.289,0.092-4.227-2.742-7.339-3.441
		C82.322,181.706,91.136,179.718,87.239,186.915z"/>
	<path fill-rule="evenodd" clip-rule="evenodd" fill="#483646" d="M96.482,184.053c1.532,0.087,2.449,0.587,3.089,1.273
		C99.432,187.032,94.785,186.708,96.482,184.053z"/>
	<path fill-rule="evenodd" clip-rule="evenodd" fill="#EBD6B9" d="M152.713,200.42c1.494,3.275-0.532,13.609-3.152,16.078
		C151.229,211.38,152.662,205.771,152.713,200.42z"/>
	<path fill-rule="evenodd" clip-rule="evenodd" fill="#483646" d="M18.044,175.354c0.622,2.888-0.9,9.718-2.396,12.22
		C15.238,183.538,16.827,180.09,18.044,175.354z"/>
	<path fill-rule="evenodd" clip-rule="evenodd" fill="#FFFFFF" d="M92.157,195.895c0.429,0.083,0.857,0.168,1.286,0.252
		c4.707,3.536,7.57,8.313,12.384,11.777c0.418,5.117-1.231,11.624,3.266,13.998c-4.097,2.212-6.472,6.984-8.436,12.371
		c-4.967,2.025-9.623,4.514-14.627,6.482c-6.469-1.316-12.45-1.907-16.192,0.832c-3.961-3.106-8.266-5.982-15.322-7.011
		c-4.587-3.431-7.786-7.796-11.741-11.652c-0.149-5.297,0.702-11.267-3.267-13.997c4.598-1.467,6.294-7.25,8.436-12.371
		c3.394,0.896,4.393-1.772,6.028-3.493c1.569,0.396,3.08,0.705,3.985,0.113c4.422-5.604,17.135,1.125,22.094-3.683
		C81.703,193.242,86.14,195.1,92.157,195.895z M100.026,203.447c-4.229-0.321-4.625-3.219-6.318-5.245
		c-5.512-1.879-12.505-2.763-14.678-6.886c-4.05,3.392-12.23,0.635-18.248,1.098c-0.289,3.17-2.944,2.819-5.775,2.207
		c-0.913,2.796-3.221,3.515-6.028,3.493c-1.186,5.436-3.478,9.226-6.897,11.338c2.629,2.886,3.122,7.207,2.232,12.459
		c3.713,3.646,7.35,7.344,10.454,11.399c7.478,0.558,11.119,3.693,15.448,6.368c3.818-2.073,9.071-2.012,15.423-0.316
		c4.33-2.694,9.302-4.437,13.985-6.608c1.395-5.124,3.909-8.584,6.897-11.336c-3.03-2.617-2.569-7.58-2.232-12.46
		C101.53,208.021,100.196,206.126,100.026,203.447z"/>
	<path fill-rule="evenodd" clip-rule="evenodd" fill="#666392" d="M133.835,204.733c2.079-1.721,2.416,2.434,5.662,1.777
		C137.61,208.683,134.95,206.215,133.835,204.733z"/>
	<path fill-rule="evenodd" clip-rule="evenodd" fill="#666392" d="M108.765,203.158c-0.371,1.387-1.891,1.063-3.468,0.655
		C105.283,201.498,108.005,201.948,108.765,203.158z"/>
	<path fill-rule="evenodd" clip-rule="evenodd" fill="#FFFFFF" d="M76.608,196.853c1.007,0.253,2.513,0.173,2.446,1.147
		C79.314,200.396,74.771,198.949,76.608,196.853z"/>
	<path fill-rule="evenodd" clip-rule="evenodd" fill="#FFFFFF" d="M18.864,188.203c1.561,0.813,1.833,2.491,1.047,4.881
		C18.965,191.858,17.787,190.789,18.864,188.203z"/>
	<path fill-rule="evenodd" clip-rule="evenodd" fill="#FFFFFF" d="M61.186,197.168c0.644,0.127,1.287,0.253,1.929,0.379
		c0.009,1.397-0.774,1.617-1.147,2.446C60.867,199.616,60.719,198.6,61.186,197.168z"/>
	<path fill-rule="evenodd" clip-rule="evenodd" fill="#FFFFFF" d="M101.729,211.796c-0.147,1.718-0.777,2.721-2.433,2.194
		c-0.239-0.584-0.467-1.176-0.265-2.056C99.701,211.547,100.618,211.528,101.729,211.796z"/>
	<path fill-rule="evenodd" clip-rule="evenodd" fill="#666392" d="M132.486,221.833c0.517,0.397,1.04,0.79,1.034,1.539
		c-1.258,2.836-3.926,3.574-7.831,2.472C127.629,224.021,130.971,224.287,132.486,221.833z"/>
	<path fill-rule="evenodd" clip-rule="evenodd" fill="#FFFFFF" d="M50.177,209.035c2.576-0.021,1.873,3.564-0.504,2.573
		C48.853,210.12,49.891,210.802,50.177,209.035z"/>
	<path fill-rule="evenodd" clip-rule="evenodd" fill="#FFFFFF" d="M93.268,217.483c-0.168,0.857-0.336,1.715-0.504,2.572
		c-1.398,0.01-1.617-0.774-2.447-1.146C91.06,218.077,91.679,217.059,93.268,217.483z"/>
	<path fill-rule="evenodd" clip-rule="evenodd" fill="#FFFFFF" d="M22.018,206.186c0.795,1.326,0.189,3.596,0.278,5.397
		C21.396,210.317,20.569,207.323,22.018,206.186z"/>
	<path fill-rule="evenodd" clip-rule="evenodd" fill="#666392" d="M110.519,224.872c2.763,0.004,3.107,1.635,2.585,3.847
		c-1.072-0.21-2.144-0.42-3.216-0.63C110.098,227.017,110.309,225.945,110.519,224.872z"/>
	<path fill-rule="evenodd" clip-rule="evenodd" fill="#FFFFFF" d="M94.466,228.404c-0.251,0.728-0.083,1.172,0.391,1.412
		C92.951,232.682,90.669,227.642,94.466,228.404z"/>
	<path fill-rule="evenodd" clip-rule="evenodd" fill="#FFFFFF" d="M81.477,226.525c1.624,0.386,1.049,2.694,0.013,3.342
		c-0.451-0.441-0.912-0.876-1.803-1.021C79.562,226.999,81.218,227.802,81.477,226.525z"/>
	<path fill-rule="evenodd" clip-rule="evenodd" fill="#FFFFFF" d="M53.443,223.033c1.101,0.377,1.249,1.394,0.782,2.824
		c-0.643-0.126-1.287-0.252-1.93-0.378C52.288,224.082,53.071,223.862,53.443,223.033z"/>
	<path fill-rule="evenodd" clip-rule="evenodd" fill="#C6B840" d="M139.258,245.2c2.112,0.744,0.588,3.606-1.79,2.32
		C137.989,246.635,138.737,246.086,139.258,245.2z"/>
	<path fill-rule="evenodd" clip-rule="evenodd" fill="#FFFFFF" d="M72.12,233.373c-0.148,1.718-0.778,2.721-2.434,2.194
		c-0.239-0.584-0.466-1.175-0.265-2.056C70.091,233.124,71.009,233.105,72.12,233.373z"/>
	<path fill-rule="evenodd" clip-rule="evenodd" fill="#666392" d="M34.049,226.577c-1.218,0.957-1.698,3.013-4.364,1.816
		C30.555,226.918,31.731,225.898,34.049,226.577z"/>
	<path fill-rule="evenodd" clip-rule="evenodd" fill="#666392" d="M96.698,240.863c3.179,0.946-0.812,2.377-0.757,3.858
		c-0.262,3.155,2.778,4.089,6.444,4.603c-4.198,6.083-6.491-2.723-10.681-3.43C92.973,243.629,94.958,242.428,96.698,240.863z"/>
	<path fill-rule="evenodd" clip-rule="evenodd" fill="#483646" d="M43.078,235.025c-0.128,3.964-4.804,4.654-7.188,2.599
		C35.567,232.99,40.602,232.834,43.078,235.025z"/>
	<path fill-rule="evenodd" clip-rule="evenodd" fill="#666392" d="M59.673,238.947c2.147,1.854-0.466,3.587-0.618,6.558
		c-1.02-0.803-1.709-1.829-2.068-3.077C57.374,240.51,59.088,240.569,59.673,238.947z"/>
	<path fill-rule="evenodd" clip-rule="evenodd" fill="#C6B840" d="M135.829,255.882c0.643,0.126,1.287,0.252,1.93,0.378
		c0.009,1.397-0.775,1.617-1.147,2.446c-1.17-0.145-1.202-1.054-2.446-1.147C134.71,256.986,135.773,257.184,135.829,255.882z"/>
	<path fill-rule="evenodd" clip-rule="evenodd" fill="#666392" d="M58.551,248.077c0.459,2.188,2.11,4.699,4.124,2.813
		c-1.116-1.298-3.554-1.707-3.998-3.456c1.501-2.908,3.649-0.273,6.683-0.024c-2.122,1.393-0.503,4.027-2.812,4.123
		c0.978,1.761,1.633,1.007,1.942,3.721c-2.27,1.932-9.04,1.062-11.06-1.501c0.855-1.497,1.518-3.28,1.778-5.662
		C56.062,247.697,57.1,247.579,58.551,248.077z"/>
	<path fill-rule="evenodd" clip-rule="evenodd" fill="#666392" d="M45.575,249.54c1.77,0.947,1.862,0.966,3.858,0.757
		c-0.167,0.857-0.336,1.715-0.504,2.573C46.578,252.589,44.449,252.158,45.575,249.54z"/>
	<path fill-rule="evenodd" clip-rule="evenodd" fill="#C6B840" d="M85.084,262.63c0.671-1.295,4.077,0.172,4.501,0.882
		C88.486,265.095,86.233,262.853,85.084,262.63z"/>
	<path fill-rule="evenodd" clip-rule="evenodd" fill="#C6B840" d="M83.18,268.935c-1.518-0.282-1.676-1.479-3.732-1.399
		C79.551,265.809,84.959,266.172,83.18,268.935z"/>
	<path fill-rule="evenodd" clip-rule="evenodd" fill="#483646" d="M107.354,271.67c1.17,0.146,1.202,1.054,2.447,1.148
		C109.92,278.527,103.611,274.3,107.354,271.67z"/>
	<path fill-rule="evenodd" clip-rule="evenodd" fill="#483646" d="M118.931,273.939c1.624,0.387,1.049,2.695,0.013,3.343
		C116.244,277.118,117.314,274.079,118.931,273.939z"/>
	<path fill-rule="evenodd" clip-rule="evenodd" fill="#EBD6B9" d="M97.645,287.132c2.144,0.42,4.289,0.84,6.432,1.261
		C102.656,289.598,98.208,289.31,97.645,287.132z"/>
	<path fill-rule="evenodd" clip-rule="evenodd" fill="#EBD6B9" d="M152.839,199.776c-1.629-6.163-2.235-13.015-5.852-17.843
		c-1.072-0.211-2.144-0.421-3.215-0.632c-3.371,0.988-5.741-1.593-9.647-1.891c-0.43-0.084-0.858-0.168-1.287-0.252
		c-0.152-1.787-3.637-4.219-5.41-3.064c-4.333,1.03-6.287,5.6-10.126,7.365c-6.818-1.001-12.528-2.747-16.217-5.852
		c0.042-0.214,0.084-0.429,0.126-0.643c-2.787-1.204-8.053-3.077-10.417-1.375c-5.626,1.113-13.195,3.537-18.499,2.384
		c-1.381-1.306-3.999-1.779-6.18-2.547c-3.151-1.232-4.155-3.907-6.192-5.89c-1.886-6.856-13.871-7.635-19.685-5.194
		c-7.242,0.535-13.646-1.698-16.735-6.62c-4.098,0.549-5.378,5.291-8.714,6.974c2.147-2.897,4.17-5.979,7.427-7.226
		c-1.012-3.786-3.716-6.436-3.896-10.782c4.874,3.668,17.367,4.488,20.946-1.237c1.658-3.852,0.199-9.583,1.613-15.044
		c4.182-3.24,10.537-2.657,16.835-0.707c0.54-1.665-3.721-0.105-2.195-2.434c15.769-1.796,38.76,2.285,50.027,7.137
		c0.269,2.062-1.656,0.859-2.825,0.781c3.545,0.291,6.551,1.95,8.865-0.933c9.348,6.309,22.444,6.823,26.924,15.964
		c-0.366,5.814-4.578,9.153-4.061,13.896c0.751,6.875,10.758,9.55,18.676,10.34c0.012,5.002-3.591,4.626-5.371,6.962
		C150.252,186.998,153.358,192.169,152.839,199.776z M101.45,138.277c2.573,0.504,5.145,1.008,7.717,1.513
		c0.511-1.646,0.308-2.813-1.425-2.951C107.125,141.229,102.771,134.935,101.45,138.277z M55.308,138.58
		c-0.418-3.663-4.298-10.205-9.281-7.163c-2.6-0.239-3.977,5.676-3.443,7.339c1.087-1.738,1.931,1.229,1.551,2.308
		c-2.084-0.071-2.331-2.031-3.341,0.013c1.746,3.294,7.758,3.72,8.512,7.68c-2.779-1.11-4.893-2.668-7.983-3.568
		c1.405,4.826,10.606,4.412,12.245,9.079c-1.125,2.804-0.075,4.146,1.69,5.006c-0.039,0.771,0.88,0.898,1.804,1.021
		c0.639-1.246,1.763-2.436,2.824-0.781c1.226,2.712,2.816,5.18,6.065,6.531c1.861-0.832,2.873-2.925,4.225-4.515
		c-1.322-1.717-5.364-1.606-5.158-4.35c22.392,8.546,50.78,11.455,68.917,6.164c-0.22-0.969-2.457-0.581-2.321-1.79
		c2.542,1.291,3.072-0.414,3.203-2.712c-17.396,6.134-46.8,2.175-66.735-7.073c2.383-1.992,5.671-2.638,6.658-6.708
		c0.654-3.897,1.425-4.401,1.513-7.718c-4.241-4.288-10.831-0.89-12.711,3.519c-2.947,0.046-3.163,4.157-5.12,5.675
		C57.546,143.776,57.665,140.346,55.308,138.58z"/>
	<path fill-rule="evenodd" clip-rule="evenodd" fill="#EBD6B9" d="M14.665,165.341c-1.348,3.257-3.762,4.926-4.464,9.143
		c-0.042,0.215-0.084,0.429-0.126,0.644c-3.691,7.882-2.575,17.363-2.093,24.3C4.614,189.987,6.784,172.003,14.665,165.341z"/>
	<path fill-rule="evenodd" clip-rule="evenodd" fill="#EBD6B9" d="M8.386,204.181c5.002,23.999,19.3,41.749,34.542,58.866
		C26.837,246.501,12.229,228.959,8.386,204.181z"/>
	<path fill-rule="evenodd" clip-rule="evenodd" fill="#EBD6B9" d="M46.534,265.089c9.394,4.342,23.649,7.28,34.604,7.452
		c3.2,1.386,7.099,2.302,9.912,3.946c0.667,0.297,0.185,1.365,1.034,1.539c-0.042,0.215-0.084,0.429-0.126,0.644
		c-0.09,3.969,2.908,5.862,5.044,8.335c-4.417-1.684-5.847-5.376-6.078-9.874C78.219,270.61,58.229,274.384,46.534,265.089z"/>
	<path fill-rule="evenodd" clip-rule="evenodd" fill="#EBD6B9" d="M115.905,289.375c-2.869-0.119-3.839-1.514-4.767-2.938
		c-2.438,0.249-3.492,2.559-6.418,2.081c4.49-2.624,6.39-4.04,10.668,0.088C115.958,288.596,115.945,288.976,115.905,289.375z"/>
	<path fill-rule="evenodd" clip-rule="evenodd" fill="#EBD6B9" d="M119.247,289.362c7.311,1.352,10.43-10.284,7.011-15.321
		c0.042-0.215,0.084-0.43,0.126-0.644c3.585-1.818,11.477-2.469,9.483-7.49c2.231,0.549,2.468-1.866,3.846-2.586
		c0.042-0.214,0.084-0.429,0.126-0.643c0.634-1.356-1.048-1.156-0.908-2.182c0.692-2.234,4.188-5.111,0.618-6.558
		c0.801-1.023,1.921-1.573,2.56-2.838c0.042-0.214,0.084-0.429,0.125-0.643c1.612-2.772,0.376-8.432,0.341-11.955
		c-2.991-1.126-2.876,2.366-6.167,0.795c0.145-1.17,1.054-1.202,1.148-2.446c0.214,0.041,0.429,0.084,0.643,0.125
		c-0.126,0.644-0.252,1.287-0.378,1.93c2.224-0.014,2.719-2.6,5.649-1.563c0.897,8.604-0.547,16.425-3.644,21.993
		c-0.488,1.444,1.717,1.078,1.551,2.308c-3.295,6.175-7.064,11.644-14.351,11.879c3.643,5.682-0.14,18.747-8.549,16.356
		C118.467,289.31,118.847,289.322,119.247,289.362z"/>
	<path fill-rule="evenodd" clip-rule="evenodd" fill="#EBD6B9" d="M140.116,234.015c2.353-3.698,4.46-7.763,6.897-11.337
		C145.535,227.677,143.162,231.347,140.116,234.015z"/>
	<path fill-rule="evenodd" clip-rule="evenodd" fill="#C6B840" d="M134.125,179.411c3.906,0.298,6.276,2.879,9.647,1.891
		C141.523,183.421,136.46,180.62,134.125,179.411z"/>
	<path fill-rule="evenodd" clip-rule="evenodd" fill="#C6B840" d="M127.428,176.095c1.773-1.154,5.258,1.277,5.41,3.064
		C131.028,178.143,130.415,176.321,127.428,176.095z"/>
	<path fill-rule="evenodd" clip-rule="evenodd" fill="#C6B840" d="M40.239,164.344c5.814-2.44,17.799-1.662,19.685,5.194
		C57.194,164.214,46.129,163.1,40.239,164.344z"/>
	<path fill-rule="evenodd" clip-rule="evenodd" fill="#C6B840" d="M44.135,141.064c0.38-1.079-0.464-4.046-1.551-2.308
		c-0.534-1.664,0.843-7.579,3.443-7.339C42.557,132.798,45.637,139.468,44.135,141.064z"/>
	<path fill-rule="evenodd" clip-rule="evenodd" fill="#C6B840" d="M55.258,159.273c2.727,0.773,2.797-1.112,2.56-2.837
		c0.397,1.222,1.88,1.714,2.068,3.077c-1.062-1.654-2.186-0.465-2.824,0.781C56.138,160.172,55.219,160.045,55.258,159.273z"/>
	<path fill-rule="evenodd" clip-rule="evenodd" fill="#C6B840" d="M68.083,151.77c0.191-1.953,5.063-4.082,6.658-6.708
		C73.754,149.132,70.465,149.778,68.083,151.77z"/>
	<path fill-rule="evenodd" clip-rule="evenodd" fill="#C6B840" d="M55.308,138.58c2.357,1.766,2.239,5.196,3.115,7.958
		c1.957-1.518,2.172-5.629,5.12-5.675c-2.549,1.192-2.345,6.481-5.889,6.192c-0.44-2.868-0.753-5.822-2.472-7.832
		C55.223,139.009,55.266,138.794,55.308,138.58z"/>
	<path fill-rule="evenodd" clip-rule="evenodd" fill="#666392" d="M46.026,131.417c4.983-3.042,8.863,3.5,9.281,7.163
		c-0.042,0.214-0.084,0.429-0.126,0.643c1.719,2.009,2.032,4.963,2.472,7.832c3.544,0.289,3.34-5,5.889-6.192
		c1.88-4.409,8.471-7.807,12.711-3.519c-0.088,3.317-0.859,3.821-1.513,7.718c-1.596,2.626-6.467,4.755-6.658,6.708
		c19.935,9.248,49.339,13.207,66.735,7.073c-0.131,2.298-0.661,4.003-3.203,2.712c-0.136,1.209,2.101,0.821,2.321,1.79
		c-18.137,5.291-46.525,2.382-68.917-6.164c-0.206,2.743,3.836,2.633,5.158,4.35c-1.352,1.59-2.364,3.683-4.225,4.515
		c-3.249-1.352-4.84-3.819-6.065-6.531c-0.188-1.363-1.67-1.855-2.068-3.077c0.237,1.725,0.167,3.61-2.56,2.837
		c-1.765-0.859-2.815-2.202-1.69-5.006c-1.639-4.667-10.84-4.253-12.245-9.079c3.09,0.9,5.204,2.458,7.983,3.568
		c-0.754-3.959-6.766-4.386-8.512-7.68c1.01-2.043,1.257-0.083,3.341-0.013C45.637,139.468,42.557,132.798,46.026,131.417z
		 M71.651,143.788c1.128-0.75,1.771-4.025,1.009-5.146c-3.054,0.165-5.486,1.253-6.797,4.011c-1.47,1.722-4.577,4.395-3.96,6.57
		C66.486,149.396,68.933,146.39,71.651,143.788z M50.024,134.873c-4.365,0.339-1.892,8.053,0.165,9.382
		c1.076,0.951,2.876,1.416,4.25,2.169c0.042-0.214,0.084-0.43,0.126-0.644c0.449-2.361-1.514-7.907-4.023-10.139
		C50.581,135.242,50.594,134.862,50.024,134.873z M75.169,156.499c-5.337-0.7-10.206-4.669-15.309-3.669
		c9.077,4.165,24.048,9.596,34.995,8.864c-4.073-0.799-8.147-1.598-12.219-2.396C80.943,157.83,77.479,157.554,75.169,156.499z
		 M67.099,163.6c-3.402,0.7-4.254-5.311-5.536-2.422C63.773,161.635,64.905,166.573,67.099,163.6z"/>
	<path fill-rule="evenodd" clip-rule="evenodd" fill="#C6B840" d="M65.863,142.653c0.874,1.897-2.883,3.986-3.834,5.927
		c5.387-0.202,5.184-3.839,9.622-4.792c-2.718,2.602-5.165,5.607-9.748,5.435C61.286,147.048,64.394,144.375,65.863,142.653z"/>
	<path fill-rule="evenodd" clip-rule="evenodd" fill="#EBD6B9" d="M65.863,142.653c1.311-2.757,3.743-3.846,6.797-4.011
		c0.762,1.121,0.12,4.395-1.009,5.146c-4.438,0.954-4.235,4.591-9.622,4.792C62.98,146.64,66.737,144.55,65.863,142.653z"/>
	<path fill-rule="evenodd" clip-rule="evenodd" fill="#C6B840" d="M50.188,144.255c-2.057-1.329-4.53-9.042-0.165-9.382
		C46.803,136.428,50.045,141.435,50.188,144.255z"/>
	<path fill-rule="evenodd" clip-rule="evenodd" fill="#C6B840" d="M50.541,135.642c2.509,2.232,4.472,7.778,4.023,10.139
		C53.163,142.441,51.998,138.944,50.541,135.642z"/>
	<path fill-rule="evenodd" clip-rule="evenodd" fill="#483646" d="M61.563,161.178c1.281-2.889,2.134,3.122,5.536,2.422
		C64.905,166.573,63.773,161.635,61.563,161.178z"/>
	<path fill-rule="evenodd" clip-rule="evenodd" fill="#666392" d="M101.085,177.608c3.689,3.104,9.399,4.851,16.217,5.852
		c3.839-1.766,5.793-6.335,10.126-7.365c2.986,0.227,3.6,2.048,5.41,3.064c0.429,0.084,0.857,0.168,1.287,0.252
		c2.335,1.209,7.398,4.01,9.647,1.891c1.072,0.211,2.144,0.421,3.215,0.632c3.616,4.828,4.223,11.68,5.852,17.843
		c-0.042,0.215-0.084,0.43-0.126,0.644c-0.051,5.351-1.483,10.96-3.152,16.078c-0.741,2.221-2.159,3.435-2.547,6.18
		c-2.438,3.574-4.544,7.639-6.897,11.337c-0.516,1.171-1.703,1.345-1.917,2.963c-0.214-0.041-0.429-0.084-0.643-0.125
		c-0.094,1.244-1.003,1.276-1.148,2.446c-0.883,5.331-7.687,1.854-7.68,8.512c-1.149,1.446,0.25-3.465-2.068-3.077
		c-4.072,0.588-6.909,3.014-10.265,4.667c0.188,2.011,0.892-1.845,2.699-0.14c-1.287,0.856-1.252,3.676-1.778,5.663
		c-1.495,0.074-0.675-1.408-1.677-1.665c-0.241,0.93,1.251,5.471-0.479,9.256c0.736-0.289,0.955-1.349,2.182-0.907
		c1.202-1.926-1.985-0.9-0.782-2.825c1.333,0.034,1.986,0.526,1.677,1.665c1.552,0.12,0.411-2.408-0.139-2.699
		c1.529,1.414,6.443,0.237,8.474-2.346c-1.788-2.245-2.724,2.099-5.006,1.69c-0.106-2.929,1.91-2.696,2.812-4.124
		c7.115,1.725,8.215-5.5,13.342-6.734c0.42-2.144,0.84-4.288,1.261-6.432c1.885,0.867,1.582-1.523,3.467-0.656
		c-0.396,3.989-1.366,8.364-0.214,11.313c-0.042,0.214-0.083,0.429-0.125,0.643c-1.463,0.593-2.591,1.686-3.329,3.354
		c-0.036,0.955,1.875,0.601,1.677,1.665c-2.136,2.638-3.439,6.514-7.301,6.583c0.062,0.889,0.934,1.233,0.908,2.182
		c1.58-1.082,3.993-4.047,5.775-2.207c-0.042,0.214-0.084,0.429-0.126,0.643c-2.204,0.044-2.749,2.557-5.132,2.334
		c-0.782,1.642,1.086,1.503,1.551,2.307c-3.855,1.741-8.278,2.639-13.229,2.75c0.124,1.778,2.77,1.861,3.354,3.329
		c3.419,5.037,0.299,16.673-7.011,15.321c9.143-0.992,9.883-14.525,1.728-19.029c-2.531-0.165-4.045,1.183-5.775,2.207
		c-3.48-1.985-5.251-6.316-9.925-7.288c-7.038-1.463-15.507,5.553-13.19,12.774c-0.849-0.174-0.367-1.242-1.034-1.539
		c0.888-1.713-0.58-1.844-0.013-3.341c-2.918-0.214-6.802-0.125-9.899-0.605c-10.954-0.172-25.209-3.11-34.604-7.452
		c-1.271-0.634-1.523-1.954-3.606-2.042C27.686,245.93,13.388,228.18,8.386,204.181c0.884-2.27-0.908-2.739-0.404-4.754
		c-0.482-6.937-1.599-16.418,2.093-24.3c-0.41,1.578-0.191,2.733,0.655,3.468c-6.381,20.57,0.541,39.096,11.137,55.612
		c12.597,19.634,22.44,37.807,56.055,37.704c1.872-0.007,2.7-0.379,4.88-1.047c-0.845-1.294-3.333-1.482-4.124-2.812
		c1.032-4.156-3.11-8.361-3.393-13.355c-1.683,0.608-5.641-0.144-10.417-1.374c1.135-3.935,5.368-4.535,9.118-2.22
		c1.858-1.24-1.228-2.009,0.239-4.628c10.847,1.662,16.896,5.822,26.886,5.939c0.297,2.405,1.121,4.459,4.389,4.867
		c1.572-4.585,6.036-4.866,7.289-9.925c5.435-0.536,7.822-0.511,11.425-3.771c4.655,2.218,5.322-1.498,8.866-0.934
		c7.269-10.81,24.918-33.434,16.14-48.262c2.207-4.201-0.743-9.469-3.645-12.068c-1.656-0.525-2.286,0.478-2.433,2.195
		c-6.019-2.161-12.148-6.376-17.252-7.39c0.76,6.388,1.34,10.102,1.085,14.906c-2.307,0.363-5.067,7.912-1.765,9.004
		c-0.652,1.799-3.065,0.978-3.846,2.585c0.028,0.912,1.505,0.849,2.446,1.147c-1.86,2.958-0.675,5.102-5.246,6.317
		c-0.688-1.957-2.162-3.386-3.746-4.741c-0.134-4.161,3.412-4.126,2.673-6.822c5.147,0.922,5.042-3.054,6.532-6.065
		c-2.995-1.673-3.271,3.197-4.88,1.047c0.31-1.201,2.213-0.03,2.308-1.552c0.036-1.699-0.322-3.134-1.173-4.237
		c-0.629-0.104-0.653,0.689-0.895,1.161c-1.69-0.162,3.201-3.796,3.316-6.697c0.857,0.169,1.715,0.336,2.572,0.505
		c-7.208-3.788-11.725,7.082-10.996,15.209c-3.025,0.546-8.189,4.117-13.241-0.593c0.199-3.858,2.903-3.989,3.959-6.57
		c-0.485-3.709-4.758-1.472-7.34-3.442c-0.572,0.48-1.729,3.391,0.013,3.342c-1.072,1.45-3.484,0.909-5.006,1.69
		c0.687,1.764,4.737,1.576,4.754-0.404c2.353,1.239-0.155,1.715-1.147,2.446c1.685,2.776,4.642,4.697,8.121,6.268
		c-2.257,4.682,4.403,3.369,3.241,7.313c2.124-0.162,3.864-0.896,5.132-2.333c1.368,0.941,1.64,2.62,1.047,4.881
		c-1.542-0.08-2.9,0.116-3.594,1.299c-1.304-0.428,0.378-2.86-0.656-3.469c-1.915,3.76-2.414,9.827,1.589,12.334
		c-0.758-1.083-1.091-10.695,4.464-9.143c-0.099,3.029-1.583,6.485,1.703,8.348c-3.522,4.107-10.334,1.325-12.434,8.916
		c-0.407,2.693,3.144,2.726,2.976,5.259c-1.811,3.538-4.901,3.175-8.992,1.576c-3.871,3.656-8.854,5.657-15.145,5.713
		c0.235,1.368,3.632,3.465,4.124,2.812c1.631,0.929-1.098,2.125-1.273,3.091c0.383-1.521-3.092-4.352-3.216-0.631
		c-2.112-0.442-2.989-1.714-5.662-1.778c-0.079-2.056,1.118-2.215,1.4-3.732c-1.948-1.563-3.033,0.307-5.397,0.277
		c-0.567,1.498,0.9,1.628,0.013,3.342c-0.615-0.889-2.13-1.174-3.732-1.399c0.347,1.244,2.645,1.622,0.781,2.824
		c-2.742-2.996-11.017-2.272-9.029-8.448c-3.194-1.151-3.948,1.328-5.775,2.207c-4.296-0.091-4.881-2.676-7.983-3.568
		c2.346-1.207,0.714-3.254,1.135-5.789c-9.571-0.524-18.671-13.792-20.568-0.692c-3.948-1.813-4.486-5.919-6.205-9.231
		c-1.953,0.99,0.663,3.612,0.278,5.397c-5.82-7.441-7.394-17.738-9.231-27.856c0.855,1.845,3.885,2.228,2.976,5.259
		c2.745-3.165-1-6.761,0.088-10.668c-3.633-0.14-0.869,4.007-1.526,4.375c-2.583-2.193-1.608-12.135-0.076-20.05
		c0.044-0.774-1.066-0.773-1.804-1.021c4.502-4.38,7.69-10.713,13.316-13.419c0.042-2.447-1.743-3.668-2.976-5.258
		c-5.847,3.208-9.481,9.708-13.178,16.116c0.702-4.217,3.116-5.886,4.464-9.143c0.042-0.215,0.084-0.429,0.126-0.644
		c3.336-1.683,4.616-6.425,8.714-6.974c3.089,4.922,9.493,7.155,16.735,6.62c5.89-1.244,16.955-0.13,19.685,5.194
		c2.037,1.982,3.041,4.657,6.192,5.89c-0.042,0.214-0.083,0.429-0.126,0.643c2.142,0.608,3.493,1.748,6.306,1.904
		c5.304,1.153,12.873-1.271,18.499-2.384C94.761,175.336,97.047,176.632,101.085,177.608z M25.952,192.932
		c1.999-6.467,9.453-16.228,5.574-21.614c-8.767-12.172-14.131,9.885-14.325,18.563c-0.27,12.05,4.544,25.291,7.97,34.287
		C24.833,217.68,21.667,206.797,25.952,192.932z M75.902,180.018c2.103,1.53,5.776,1.755,6.81-0.668
		C80.084,179.041,78.256,179.921,75.902,180.018z M79.899,183.474c3.112,0.699,3.05,3.533,7.339,3.441
		C91.136,179.718,82.322,181.706,79.899,183.474z M94.565,187.017c-0.701-2.824-1.91-2.311-4.515-4.225
		C90.815,184.697,92.162,186.213,94.565,187.017z M99.572,185.326c-0.641-0.687-1.558-1.187-3.089-1.273
		C94.785,186.708,99.432,187.032,99.572,185.326z M15.649,187.573c1.496-2.502,3.017-9.332,2.396-12.22
		C16.827,180.09,15.238,183.538,15.649,187.573z M92.157,195.895c-4.945-2.075-9.54-4.384-13.267-7.276
		c-4.06,2.543-10.222,1.961-16.835,0.707c-4.964,2.583-10.274,4.652-15.397,6.999c-1.433,6.176-4.504,9.915-8.437,12.371
		c3.273,3.017,4.767,8.636,1.463,12.976c4.847,4.188,8.719,9.03,13.417,13.316c6.82,1.559,12.868,3.636,15.839,7.781
		c9.913-3.906,18.055-0.362,25.435-3.696c0.92-0.416,7.301-4.218,7.566-4.527c3.446-4.026,2.769-11.615,8.436-12.371
		c-4.667-2.261-3.454-8.475-3.267-13.998c-5.221-3.563-6.887-9.517-13.67-12.029C93.014,196.063,92.586,195.978,92.157,195.895z
		 M137.468,247.521c2.378,1.286,3.902-1.576,1.79-2.32C138.737,246.086,137.989,246.635,137.468,247.521z M134.165,257.559
		c1.244,0.094,1.276,1.003,2.446,1.147c0.372-0.829,1.156-1.049,1.147-2.446c-0.643-0.126-1.287-0.252-1.93-0.378
		C135.773,257.184,134.71,256.986,134.165,257.559z M95.714,252.691c0.321,0.234-0.69,1.18-0.896,1.161
		c1.223,0.113-5.015-3.044-5.409-3.064c-1.212-0.065-1.667,1.762-2.951,1.425c-4.881-1.281-8.508-6.276-10.808-2.786
		c2.513,2.42,7.752,6.797,12.119,9.723c0.804-0.466,0.666-2.333,2.308-1.552c0.047,1.271-1.635,3.704,0.656,3.468
		c1.063,0.198,0.709-1.713,1.665-1.677c1.629,0.394,2.02,1.619,2.837,2.56c-1.004,0.168-3.177-1.403-3.342,0.013
		c1.407,2.139,8.149,1.987,5.649-1.563c-0.175,0.841-1.944,0.469-1.93-0.379c1.347,0.066,1.966-0.952,2.951-1.425
		C98.583,256.778,97.525,254.012,95.714,252.691z M75.55,256.753c3.431-0.278,1.217-5.374-0.151-6.04
		C74.897,253.098,77.069,253.685,75.55,256.753z M80.721,264.445c-0.735-0.995,0.338-3.205-1.299-3.594
		c-0.333,0.888-1.271,0.877-1.665,1.678C79.835,262.127,79.917,265.829,80.721,264.445z M89.586,263.512
		c-0.425-0.71-3.83-2.177-4.501-0.882C86.233,262.853,88.486,265.095,89.586,263.512z M79.448,267.535
		c2.056-0.08,2.215,1.117,3.732,1.399C84.959,266.172,79.551,265.809,79.448,267.535z"/>
	<path fill-rule="evenodd" clip-rule="evenodd" fill="#483646" d="M10.201,174.483c3.697-6.408,7.331-12.908,13.178-16.116
		c1.233,1.59,3.018,2.811,2.976,5.258c-5.626,2.706-8.814,9.039-13.316,13.419c0.737,0.248,1.848,0.247,1.804,1.021
		c-1.532,7.915-2.506,17.856,0.076,20.05c0.657-0.368-2.107-4.515,1.526-4.375c-1.088,3.907,2.657,7.503-0.088,10.668
		c0.909-3.031-2.121-3.414-2.976-5.259c1.838,10.118,3.411,20.415,9.231,27.856c0.385-1.785-2.231-4.407-0.278-5.397
		c1.719,3.313,2.256,7.418,6.205,9.231c1.897-13.1,10.997,0.168,20.568,0.692c-0.42,2.535,1.211,4.582-1.135,5.789
		c3.102,0.893,3.687,3.478,7.983,3.568c1.828-0.879,2.581-3.358,5.775-2.207c-1.988,6.176,6.287,5.452,9.029,8.448
		c1.863-1.202-0.435-1.58-0.781-2.824c1.602,0.226,3.118,0.511,3.732,1.399c0.888-1.714-0.58-1.844-0.013-3.342
		c2.364,0.029,3.45-1.841,5.397-0.277c-0.282,1.518-1.479,1.677-1.4,3.732c2.673,0.064,3.55,1.336,5.662,1.778
		c0.124-3.721,3.599-0.89,3.216,0.631c0.176-0.966,2.905-2.162,1.273-3.091c-0.491,0.653-3.888-1.443-4.124-2.812
		c6.292-0.056,11.274-2.057,15.145-5.713c4.091,1.599,7.181,1.962,8.992-1.576c0.167-2.533-3.383-2.565-2.976-5.259
		c2.1-7.591,8.912-4.809,12.434-8.916c-3.285-1.862-1.801-5.318-1.703-8.348c-5.555-1.553-5.222,8.06-4.464,9.143
		c-4.003-2.507-3.504-8.574-1.589-12.334c1.034,0.608-0.648,3.041,0.656,3.469c0.693-1.183,2.052-1.379,3.594-1.299
		c0.593-2.261,0.321-3.939-1.047-4.881c-1.268,1.437-3.008,2.171-5.132,2.333c1.162-3.944-5.499-2.632-3.241-7.313
		c-3.479-1.57-6.436-3.491-8.121-6.268c0.993-0.731,3.5-1.207,1.147-2.446c-0.017,1.98-4.067,2.168-4.754,0.404
		c1.522-0.781,3.934-0.24,5.006-1.69c-1.742,0.049-0.585-2.861-0.013-3.342c2.582,1.971,6.855-0.267,7.34,3.442
		c-1.057,2.581-3.761,2.712-3.959,6.57c5.051,4.71,10.215,1.139,13.241,0.593c-0.729-8.127,3.788-18.997,10.996-15.209
		c-0.857-0.169-1.715-0.336-2.572-0.505c-0.116,2.901-5.006,6.535-3.316,6.697c0.242-0.472,0.266-1.266,0.895-1.161
		c0.851,1.104,1.208,2.538,1.173,4.237c-0.094,1.521-1.998,0.351-2.308,1.552c1.61,2.15,1.886-2.72,4.88-1.047
		c-1.49,3.012-1.385,6.987-6.532,6.065c0.738,2.696-2.808,2.661-2.673,6.822c1.583,1.355,3.058,2.784,3.746,4.741
		c4.57-1.216,3.386-3.359,5.246-6.317c-0.941-0.299-2.418-0.235-2.446-1.147c0.781-1.607,3.194-0.786,3.846-2.585
		c-3.302-1.092-0.542-8.641,1.765-9.004c0.255-4.805-0.325-8.519-1.085-14.906c5.104,1.014,11.233,5.229,17.252,7.39
		c0.147-1.718,0.777-2.721,2.433-2.195c2.902,2.6,5.852,7.867,3.645,12.068c8.778,14.828-8.871,37.452-16.14,48.262
		c-3.544-0.564-4.21,3.151-8.866,0.934c-3.603,3.26-5.99,3.234-11.425,3.771c-1.252,5.059-5.717,5.34-7.289,9.925
		c-3.268-0.408-4.092-2.462-4.389-4.867c-9.99-0.117-16.039-4.277-26.886-5.939c-1.467,2.619,1.619,3.388-0.239,4.628
		c-3.75-2.315-7.982-1.715-9.118,2.22c4.775,1.23,8.734,1.982,10.417,1.374c0.283,4.994,4.425,9.199,3.393,13.355
		c0.791,1.329,3.279,1.518,4.124,2.812c-2.18,0.668-3.008,1.04-4.88,1.047c-33.615,0.103-43.458-18.07-56.055-37.704
		C11.271,217.69,4.349,199.165,10.73,178.595c-0.847-0.734-1.065-1.89-0.655-3.468C10.116,174.912,10.159,174.698,10.201,174.483z
		 M110.695,203.535c1.55-0.739,2.904-1.771,3.972-3.229C112.529,199.499,111.238,203.153,110.695,203.535z M139.497,206.511
		c-3.247,0.656-3.583-3.498-5.662-1.777C134.95,206.215,137.61,208.683,139.497,206.511z M105.297,203.813
		c1.577,0.407,3.097,0.731,3.468-0.655C108.005,201.948,105.283,201.498,105.297,203.813z M125.689,225.844
		c3.905,1.103,6.573,0.364,7.831-2.472c0.005-0.749-0.518-1.142-1.034-1.539C130.971,224.287,127.629,224.021,125.689,225.844z
		 M109.888,228.089c1.072,0.21,2.144,0.42,3.216,0.63c0.521-2.212,0.178-3.843-2.585-3.847
		C110.309,225.945,110.098,227.017,109.888,228.089z M29.685,228.394c2.666,1.196,3.146-0.859,4.364-1.816
		C31.731,225.898,30.555,226.918,29.685,228.394z M41.704,245.442c7.093-4.195,5.947-14.998-2.246-15.801
		c-3.387-0.332-8.245,4.39-12.584,2.875c-0.549-0.191-1.058-2.297-2.447-1.147c1.862,2.657,3.052,5.767,5.814,7.818
		c0.158-1.426,0.927-1.942,2.307-1.551c0.024,3.334,2.881,4.764,3.884,7.44c0.875-1.781,6.654-0.576,6.81-0.669
		C42.494,244.402,42.1,244.925,41.704,245.442z M91.704,245.895c4.19,0.707,6.483,9.513,10.681,3.43
		c-3.666-0.514-6.706-1.447-6.444-4.603c-0.055-1.481,3.936-2.912,0.757-3.858C94.958,242.428,92.973,243.629,91.704,245.895z
		 M56.987,242.428c0.359,1.248,1.048,2.274,2.068,3.077c0.151-2.971,2.765-4.704,0.618-6.558
		C59.088,240.569,57.374,240.51,56.987,242.428z M51.098,248.62c1.793-1.486,4.571-1.508,4.477-5.802
		c-3.58,0.811-3.125-0.946-7.327-0.101c-0.144,2.556-1.764,2.915-1.778,5.663c2.29,0.282,4.409-2.103,3.606,2.042
		c1.81,0.962,5.733-1.675,3.078-2.068C53.843,250.134,50.599,249.818,51.098,248.62z M55.209,248.09
		c-0.26,2.382-0.923,4.165-1.778,5.662c2.02,2.563,8.79,3.433,11.06,1.501c-0.309-2.714-0.964-1.96-1.942-3.721
		c2.309-0.096,0.69-2.73,2.812-4.123c-3.034-0.249-5.182-2.884-6.683,0.024c0.444,1.749,2.882,2.158,3.998,3.456
		c-2.014,1.887-3.665-0.625-4.124-2.813C57.1,247.579,56.062,247.697,55.209,248.09z M48.929,252.87
		c0.168-0.858,0.337-1.716,0.504-2.573c-1.996,0.209-2.089,0.19-3.858-0.757C44.449,252.158,46.578,252.589,48.929,252.87z"/>
	<path fill-rule="evenodd" clip-rule="evenodd" fill="#EBD6B9" d="M25.17,224.168c-3.426-8.996-8.24-22.237-7.97-34.287
		c0.194-8.679,5.558-30.735,14.325-18.563c3.879,5.387-3.575,15.147-5.574,21.614C21.667,206.797,24.833,217.68,25.17,224.168z
		 M19.911,193.084c0.786-2.39,0.514-4.068-1.047-4.881C17.787,190.789,18.965,191.858,19.911,193.084z M22.295,211.583
		c-0.088-1.802,0.518-4.071-0.278-5.397C20.569,207.323,21.396,210.317,22.295,211.583z"/>
	<path fill-rule="evenodd" clip-rule="evenodd" fill="#483646" d="M90.051,182.792c2.605,1.914,3.813,1.4,4.515,4.225
		C92.162,186.213,90.815,184.697,90.051,182.792z"/>
	<path fill-rule="evenodd" clip-rule="evenodd" fill="#EBD6B9" d="M92.157,195.895c-6.018-0.795-10.454-2.652-12.106-6.381
		c-4.958,4.808-17.671-1.921-22.094,3.683c-0.906,0.592-2.416,0.282-3.985-0.113c-1.635,1.721-2.634,4.389-6.028,3.493
		c-2.142,5.121-3.838,10.904-8.436,12.371c3.968,2.73,3.118,8.7,3.267,13.997c3.955,3.856,7.153,8.222,11.741,11.652
		c7.056,1.028,11.361,3.904,15.322,7.011c3.743-2.739,9.724-2.148,16.192-0.832c5.005-1.969,9.66-4.457,14.627-6.482
		c1.964-5.387,4.339-10.159,8.436-12.371c-4.497-2.374-2.847-8.881-3.266-13.998c-4.814-3.464-7.677-8.241-12.384-11.777
		c6.783,2.513,8.449,8.467,13.67,12.029c-0.187,5.523-1.4,11.737,3.267,13.998c-5.667,0.756-4.99,8.345-8.436,12.371
		c-0.265,0.31-6.646,4.111-7.566,4.527c-7.38,3.334-15.522-0.21-25.435,3.696c-2.972-4.146-9.02-6.223-15.839-7.781
		c-4.699-4.286-8.571-9.129-13.417-13.316c3.304-4.34,1.81-9.959-1.463-12.976c3.933-2.456,7.003-6.195,8.437-12.371
		c5.123-2.347,10.433-4.416,15.397-6.999c6.613,1.254,12.775,1.836,16.835-0.707C82.617,191.511,87.212,193.819,92.157,195.895z"/>
	<path fill-rule="evenodd" clip-rule="evenodd" fill="#666392" d="M114.667,200.307c-1.068,1.457-2.422,2.489-3.972,3.229
		C111.238,203.153,112.529,199.499,114.667,200.307z"/>
	<path fill-rule="evenodd" clip-rule="evenodd" fill="#C6B840" d="M136.408,239.299c3.291,1.571,3.176-1.921,6.167-0.795
		c0.035,3.523,1.271,9.183-0.341,11.955c-1.152-2.948-0.181-7.323,0.214-11.313c-1.885-0.867-1.582,1.523-3.467,0.656
		c-0.421,2.144-0.841,4.288-1.261,6.432c-5.127,1.234-6.227,8.459-13.342,6.734c-0.902,1.428-2.918,1.195-2.812,4.124
		c2.282,0.408,3.218-3.936,5.006-1.69c-2.031,2.583-6.945,3.76-8.474,2.346c0.549,0.291,1.69,2.819,0.139,2.699
		c0.309-1.139-0.344-1.631-1.677-1.665c-1.203,1.925,1.984,0.899,0.782,2.825c-1.227-0.441-1.446,0.618-2.182,0.907
		c1.73-3.785,0.238-8.326,0.479-9.256c1.002,0.257,0.182,1.739,1.677,1.665c0.526-1.987,0.492-4.807,1.778-5.663
		c-1.807-1.705-2.511,2.15-2.699,0.14c3.356-1.653,6.193-4.079,10.265-4.667c2.318-0.388,0.918,4.523,2.068,3.077
		C128.721,241.153,135.525,244.63,136.408,239.299z"/>
	<path fill-rule="evenodd" clip-rule="evenodd" fill="#C6B840" d="M139.839,262.679c-1.782-1.84-4.195,1.125-5.775,2.207
		c0.026-0.948-0.846-1.293-0.908-2.182c3.862-0.069,5.165-3.945,7.301-6.583c0.198-1.064-1.713-0.71-1.677-1.665
		c0.738-1.669,1.866-2.762,3.329-3.354c-0.639,1.265-1.759,1.814-2.56,2.838c3.57,1.446,0.074,4.323-0.618,6.558
		C138.791,261.522,140.473,261.322,139.839,262.679z"/>
	<path fill-rule="evenodd" clip-rule="evenodd" fill="#C6B840" d="M139.713,263.321c-1.377,0.72-1.615,3.135-3.846,2.586
		c1.993,5.021-5.898,5.672-9.483,7.49c-0.042,0.214-0.084,0.429-0.126,0.644c-0.584-1.468-3.231-1.551-3.354-3.329
		c4.951-0.111,9.374-1.009,13.229-2.75c-0.465-0.804-2.333-0.665-1.551-2.307C136.964,265.878,137.509,263.365,139.713,263.321z"/>
	<path fill-rule="evenodd" clip-rule="evenodd" fill="#C6B840" d="M81.137,272.541c3.097,0.48,6.981,0.392,9.899,0.605
		c-0.567,1.497,0.9,1.628,0.013,3.341C88.236,274.843,84.337,273.927,81.137,272.541z"/>
	<path fill-rule="evenodd" clip-rule="evenodd" fill="#666392" d="M43.242,244.408c-0.156,0.093-5.936-1.112-6.81,0.669
		c-1.003-2.677-3.86-4.106-3.884-7.44c-1.38-0.392-2.149,0.125-2.307,1.551c-2.762-2.052-3.952-5.161-5.814-7.818
		c1.389-1.149,1.897,0.956,2.447,1.147c4.34,1.515,9.197-3.207,12.584-2.875c8.192,0.803,9.339,11.605,2.246,15.801
		C42.1,244.925,42.494,244.402,43.242,244.408z M35.89,237.624c2.383,2.056,7.06,1.365,7.188-2.599
		C40.602,232.834,35.567,232.99,35.89,237.624z"/>
	<path fill-rule="evenodd" clip-rule="evenodd" fill="#666392" d="M53.154,248.354c2.655,0.394-1.268,3.03-3.078,2.068
		c0.803-4.145-1.317-1.76-3.606-2.042c0.014-2.748,1.635-3.107,1.778-5.663c4.202-0.846,3.747,0.911,7.327,0.101
		c0.094,4.294-2.684,4.315-4.477,5.802C50.599,249.818,53.843,250.134,53.154,248.354z"/>
	<path fill-rule="evenodd" clip-rule="evenodd" fill="#C6B840" d="M98.564,258.594c-0.984,0.473-1.604,1.491-2.951,1.425
		c-0.015,0.848,1.754,1.22,1.93,0.379c2.5,3.551-4.243,3.702-5.649,1.563c0.165-1.416,2.338,0.155,3.342-0.013
		c-0.817-0.94-1.208-2.166-2.837-2.56c-0.955-0.036-0.601,1.875-1.665,1.677c-2.291,0.236-0.609-2.197-0.656-3.468
		c-1.642-0.781-1.503,1.086-2.308,1.552c-4.367-2.926-9.606-7.303-12.119-9.723c2.3-3.49,5.927,1.505,10.808,2.786
		c1.285,0.337,1.739-1.49,2.951-1.425c0.394,0.021,6.632,3.178,5.409,3.064c0.205,0.019,1.216-0.927,0.896-1.161
		C97.525,254.012,98.583,256.778,98.564,258.594z"/>
	<path fill-rule="evenodd" clip-rule="evenodd" fill="#C6B840" d="M75.399,250.713c1.369,0.666,3.583,5.762,0.151,6.04
		C77.069,253.685,74.897,253.098,75.399,250.713z"/>
	<path fill-rule="evenodd" clip-rule="evenodd" fill="#666392" d="M91.958,278.67c0.063,7.223,13.864,12.29,18.272,5.586
		c2.323,0.858,2.681,3.037,5.284,3.708c-0.042,0.213-0.084,0.429-0.126,0.643c-4.279-4.128-6.179-2.712-10.668-0.088
		c-0.215-0.043-0.43-0.084-0.644-0.126c-2.143-0.421-4.288-0.841-6.432-1.261c-0.213-0.043-0.429-0.085-0.643-0.127
		C94.865,284.532,91.867,282.639,91.958,278.67z"/>
	<path fill-rule="evenodd" clip-rule="evenodd" fill="#C6B840" d="M77.757,262.529c0.393-0.801,1.331-0.79,1.665-1.678
		c1.637,0.389,0.564,2.599,1.299,3.594C79.917,265.829,79.835,262.127,77.757,262.529z"/>
	<path fill-rule="evenodd" clip-rule="evenodd" fill="#666392" d="M107.254,278.997c-0.557,1.491,2.999,0.218,1.551,2.308
		c-3.668-0.591-6.122-4.126-8.638-7.036c0.42-2.144,0.841-4.288,1.261-6.432C107.165,263.714,116.754,276.037,107.254,278.997z
		 M109.801,272.818c-1.245-0.095-1.277-1.003-2.447-1.148C103.611,274.3,109.92,278.527,109.801,272.818z"/>
	<path fill-rule="evenodd" clip-rule="evenodd" fill="#483646" d="M115.905,289.375c0.04-0.399,0.053-0.779-0.517-0.769
		c0.042-0.214,0.083-0.43,0.126-0.643c-2.604-0.671-2.961-2.85-5.284-3.708c-4.408,6.704-18.21,1.637-18.272-5.586
		c0.042-0.215,0.084-0.429,0.126-0.644c-2.317-7.222,6.153-14.237,13.19-12.774c4.673,0.972,6.445,5.303,9.925,7.288
		c1.73-1.024,3.244-2.372,5.775-2.207c8.155,4.504,7.416,18.037-1.728,19.029c-0.4-0.04-0.78-0.053-0.769,0.518
		C117.621,289.712,116.762,289.544,115.905,289.375z M101.427,267.837c-0.42,2.144-0.84,4.288-1.261,6.432
		c2.517,2.91,4.97,6.445,8.638,7.036c1.448-2.09-2.108-0.816-1.551-2.308C116.754,276.037,107.165,263.714,101.427,267.837z
		 M112.248,273.966c-1.419,6.771,6.098,9.099,9.143,4.464c0.815,0.196,0.729,0.999,1.804,1.021c-0.703-1.389,0.81-4.267-0.278-5.397
		C120.3,270.963,115.129,275.015,112.248,273.966z"/>
	<path fill-rule="evenodd" clip-rule="evenodd" fill="#EBD6B9" d="M104.289,208.958c-0.337,4.88-0.798,9.843,2.232,12.46
		c-2.989,2.752-5.503,6.212-6.897,11.336c-4.683,2.172-9.655,3.914-13.985,6.608c-6.352-1.695-11.604-1.757-15.423,0.316
		c-4.329-2.675-7.97-5.811-15.448-6.368c-3.104-4.056-6.741-7.753-10.454-11.399c0.89-5.252,0.397-9.573-2.232-12.459
		c3.419-2.112,5.711-5.902,6.897-11.338c2.807,0.021,5.115-0.697,6.028-3.493c2.832,0.612,5.486,0.963,5.775-2.207
		c6.018-0.463,14.198,2.294,18.248-1.098c2.173,4.123,9.167,5.007,14.678,6.886c1.693,2.026,2.089,4.924,6.318,5.245
		C100.196,206.126,101.53,208.021,104.289,208.958z M79.055,198c0.067-0.975-1.439-0.895-2.446-1.147
		C74.771,198.949,79.314,200.396,79.055,198z M61.968,199.993c0.373-0.829,1.156-1.049,1.147-2.446
		c-0.643-0.126-1.286-0.252-1.929-0.379C60.719,198.6,60.867,199.616,61.968,199.993z M99.03,211.935
		c-0.202,0.88,0.026,1.472,0.265,2.056c1.656,0.526,2.286-0.477,2.433-2.194C100.618,211.528,99.701,211.547,99.03,211.935z
		 M49.672,211.608c2.377,0.991,3.081-2.595,0.504-2.573C49.891,210.802,48.853,210.12,49.672,211.608z M90.316,218.909
		c0.83,0.372,1.049,1.156,2.447,1.146c0.168-0.857,0.336-1.715,0.504-2.572C91.679,217.059,91.06,218.077,90.316,218.909z
		 M94.857,229.816c-0.474-0.24-0.642-0.685-0.391-1.412C90.669,227.642,92.951,232.682,94.857,229.816z M79.687,228.846
		c0.891,0.146,1.352,0.58,1.803,1.021c1.037-0.647,1.611-2.956-0.013-3.342C81.218,227.802,79.562,226.999,79.687,228.846z
		 M52.296,225.479c0.643,0.126,1.287,0.252,1.93,0.378c0.466-1.431,0.319-2.447-0.782-2.824
		C53.071,223.862,52.288,224.082,52.296,225.479z M69.421,233.512c-0.201,0.881,0.026,1.472,0.265,2.056
		c1.656,0.526,2.286-0.477,2.434-2.194C71.009,233.105,70.091,233.124,69.421,233.512z"/>
	<path fill-rule="evenodd" clip-rule="evenodd" fill="#666392" d="M122.916,274.054c1.088,1.131-0.425,4.009,0.278,5.397
		c-1.075-0.022-0.988-0.825-1.804-1.021c-3.044,4.635-10.562,2.308-9.143-4.464C115.129,275.015,120.3,270.963,122.916,274.054z
		 M118.944,277.282c1.037-0.647,1.611-2.956-0.013-3.343C117.314,274.079,116.244,277.118,118.944,277.282z"/>
	<path fill-rule="evenodd" clip-rule="evenodd" fill="#EBD6B9" d="M82.636,159.299c4.072,0.798,8.146,1.597,12.219,2.396
		c-10.946,0.731-25.918-4.699-34.995-8.864c5.103-1,9.972,2.969,15.309,3.669c-0.042,0.214-0.083,0.429-0.126,0.644
		C76.808,158.377,79.835,158.761,82.636,159.299z"/>
</g>
<g>
	<path fill-rule="evenodd" clip-rule="evenodd" fill="#EBD6B9" d="M142.841,148.927c3.897-1.205,4.741,1.866,8.188,1.291
		C149.235,151.635,143.616,151.587,142.841,148.927z"/>
	<path fill-rule="evenodd" clip-rule="evenodd" fill="#C6B840" d="M165.361,156.463c1.543-1.065,7.194-1.063,9.805-0.973
		c4.323-0.942,1.631,0.912-1.185,0.862c-2.155,0.36-4.311,0.72-6.466,1.079C167.102,156.684,166.468,156.242,165.361,156.463z"/>
	<path fill-rule="evenodd" clip-rule="evenodd" fill="#C6B840" d="M181.954,156.351c1.493-1.781,6.195-1.271,8.942-2.158
		C189.402,155.974,184.699,155.464,181.954,156.351z"/>
	<path fill-rule="evenodd" clip-rule="evenodd" fill="#C6B840" d="M153.515,173.059c0.726-1.223,6.026-2.106,7.11-1.188
		C158.254,172.268,155.885,172.663,153.515,173.059z"/>
	<path fill-rule="evenodd" clip-rule="evenodd" fill="#C6B840" d="M136.384,177.913c3.017-0.504,6.033-1.008,9.05-1.512
		C144.076,177.73,138.101,178.729,136.384,177.913z"/>
	<path fill-rule="evenodd" clip-rule="evenodd" fill="#C6B840" d="M188.857,185.763c1.783-1.401,8.202-2.474,10.344-1.727
		C195.753,184.611,192.306,185.188,188.857,185.763z"/>
	<path fill-rule="evenodd" clip-rule="evenodd" fill="#C6B840" d="M265.784,172.919c1.401,1.783,2.473,8.201,1.727,10.343
		C266.935,179.814,266.359,176.366,265.784,172.919z"/>
	<path fill-rule="evenodd" clip-rule="evenodd" fill="#C6B840" d="M228.726,193.725c4.86,8.546,7.729,16.562,4.317,25.856
		c-1.531,1.564-5.585,1.328-8.296,2.051c-7.087,15.799-35.37,20.792-47.189,7.878c-2.802,0.468-5.603,0.937-8.403,1.403
		c-6.307-6.979-6.722-16.952-5.072-26.396c2.801-0.469,5.603-0.936,8.404-1.403c7.262-15.754,35.905-21.128,47.836-7.987
		C223.123,194.659,225.925,194.191,228.726,193.725z M219.245,196.636c-11.206-12.455-38.424-7.331-45.251,7.556
		c-2.522,0.666-6.293,0.441-7.648,1.941c-2.545,8.267-1.742,15.999,3.777,22.625c2.586-0.432,5.171-0.863,7.757-1.295
		c6.246,3.661,12.782,8.919,21.982,8.29c11.421-0.779,18.537-8.908,23.914-15.953c2.586-0.432,5.172-0.863,7.758-1.295
		c2.549-8.329,0.627-15.151-3.777-22.625C225.517,195.294,222.232,196.174,219.245,196.636z"/>
	<path fill-rule="evenodd" clip-rule="evenodd" fill="#FFFFFF" d="M161.496,204.949c0.063-2.983,1.741,3.471,1.402,4.417
		C162.762,209.748,161.417,208.634,161.496,204.949z"/>
	<path fill-rule="evenodd" clip-rule="evenodd" fill="#C6B840" d="M143.396,207.972c0.468,2.801,0.936,5.602,1.403,8.403
		C143.506,215.228,142.545,209.476,143.396,207.972z"/>
	<path fill-rule="evenodd" clip-rule="evenodd" fill="#666392" d="M193.495,201.6c0.76-2.27,2.025,1.326,2.371,2.262
		c0.288,1.724,0.576,3.447,0.864,5.172C194.189,208.604,193.98,204.908,193.495,201.6z"/>
	<path fill-rule="evenodd" clip-rule="evenodd" fill="#666392" d="M200.606,200.413c3.686-1.936,3.09,5.303,2.696,8.188
		c0.107,0.646,0.215,1.293,0.323,1.939c0.464,2.646,2.769,15.387,0.865,9.158c-1.327-5.32-1.23-12.636-3.453-16.7
		C200.894,202.137,200.75,201.274,200.606,200.413z"/>
	<path fill-rule="evenodd" clip-rule="evenodd" fill="#666392" d="M188.434,207.096c0.936-1.771,1.147,4.188,1.617,5.71
		C189.115,214.577,188.903,208.618,188.434,207.096z"/>
	<path fill-rule="evenodd" clip-rule="evenodd" fill="#666392" d="M206.104,209.461c0.139-2.056-1.433-1.715-1.294-3.77
		c0.811,1.521,3.177,0.867,3.233,3.446c0.072,0.432,0.145,0.862,0.217,1.293C207.158,210.644,206.505,210.229,206.104,209.461z"/>
	<path fill-rule="evenodd" clip-rule="evenodd" fill="#666392" d="M193.606,210.219c1.914-0.024,0.24,4.98,2.156,4.956
		c0.035,0.215,0.071,0.432,0.107,0.646c1.837,1.26-0.765,1.364-0.107,3.34c-3.095-0.604-0.515-4.197-1.833-7.003
		C193.821,211.512,193.714,210.865,193.606,210.219z"/>
	<path fill-rule="evenodd" clip-rule="evenodd" fill="#EBD6B9" d="M195.763,215.175c-0.253-1.508-0.504-3.017-0.756-4.525
		c1.833-0.026,3.965,5.256,0.863,5.172C195.834,215.606,195.798,215.39,195.763,215.175z"/>
	<path fill-rule="evenodd" clip-rule="evenodd" fill="#666392" d="M209.982,208.813c1.931,2.349,1.554,7.927,2.59,11.528
		c-1.328,0.501-1.555-7.374-2.374-10.235C210.126,209.676,210.055,209.245,209.982,208.813z"/>
	<path fill-rule="evenodd" clip-rule="evenodd" fill="#666392" d="M200.289,222.393c0.042-3.781-1.706-5.054-3.126-6.787
		c0.861-0.144,1.724-0.288,2.585-0.432c0.072,0.431,0.145,0.862,0.217,1.293c-0.078,2.031,1.757,5.43,0.433,6.572
		C200.361,222.824,200.325,222.607,200.289,222.393z"/>
	<path fill-rule="evenodd" clip-rule="evenodd" fill="#C6B840" d="M199.965,216.467c1.014,1.539,2.563,6.467,1.941,7.649
		c-1.061,0.421-1.304-0.301-1.509-1.077C201.722,221.896,199.887,218.498,199.965,216.467z"/>
	<path fill-rule="evenodd" clip-rule="evenodd" fill="#666392" d="M188.007,224.443c0.336,1.57,2.16-0.22,1.832-0.971
		c0.771-0.018,0.872,0.905,0.97,1.832c-1.077,0.18-2.154,0.359-3.232,0.539c-0.055-0.736-1.107-0.849-0.216-1.293
		C187.576,224.516,187.792,224.479,188.007,224.443z"/>
	<path fill-rule="evenodd" clip-rule="evenodd" fill="#C6B840" d="M166.245,233.393c3.099-0.088,7.601-2.139,9.805-0.973
		C172.951,232.507,168.45,234.558,166.245,233.393z"/>
	<path fill-rule="evenodd" clip-rule="evenodd" fill="#C6B840" d="M227.118,223.894c1.494-1.781,6.196-1.271,8.942-2.158
		C234.566,223.517,229.864,223.006,227.118,223.894z"/>
	<path fill-rule="evenodd" clip-rule="evenodd" fill="#666392" d="M249.64,235.416c0.216-0.037,0.432-0.073,0.646-0.108
		c0.278,4.131,5.072,1.935,6.144,4.954c-2.446,0.559-4.03-2.729-6.034-0.321C250.144,238.432,249.893,236.924,249.64,235.416z"/>
	<path fill-rule="evenodd" clip-rule="evenodd" fill="#CB372A" d="M241.238,244.791c-0.035-0.215-0.071-0.431-0.107-0.646
		c-0.689-2.77,1.213-3.688,3.23-4.526C243.393,241.394,243.705,244.085,241.238,244.791z"/>
	<path fill-rule="evenodd" clip-rule="evenodd" fill="#FFFFFF" d="M251.042,239.832c2.502,0.484,4.004,2.367,7.004,2.153
		c-0.008,4.266,2.812,4.569,2.804,8.834C256.264,249.003,253.738,244.299,251.042,239.832z"/>
	<path fill-rule="evenodd" clip-rule="evenodd" fill="#C6B840" d="M244.045,261.599c-1.187-0.519-2.032-5.588-1.079-6.464
		c0.036,0.215,0.071,0.431,0.107,0.646c0.288,1.724,0.576,3.447,0.863,5.171C243.974,261.168,244.009,261.383,244.045,261.599z"/>
	<path fill-rule="evenodd" clip-rule="evenodd" fill="#C6B840" d="M237.583,270.651c0.861-0.144,1.724-0.288,2.585-0.432
		c0.639,1.974-0.08,2.979-2.153,3.018C237.871,272.375,237.727,271.513,237.583,270.651z"/>
	<path fill-rule="evenodd" clip-rule="evenodd" fill="#EBD6B9" d="M265.784,172.919c-3.091-7.635-7.042-14.064-12.935-17.774
		c-3.004-0.651-6.815,2.879-10.989,1.835c-2.465-0.003-4.089-1.186-6.25-1.614c-3.352-1.047-5.999,3.297-7.001,5.82
		c-0.448,8.976-13.693,7.38-20.255,6.039c-2.658-1.048-7.733-0.591-9.696,1.619c-2.835,0.823-3.685,3.064-6.68,3.773
		c-3.338,2.172-7.709,3.607-11.742,5.282c-0.216,0.036-0.431,0.072-0.646,0.108c-3.733-0.354-6.939-1.445-9.806-3.015
		c1.179-4.275,3.042-9.831,0.104-15.3c23.969,0.083,47.284-7.654,64.211-17.365c0.84-3.832,0.293-6.314-2.158-8.942
		c-2.238,0.556,2.024,2.138-0.215,2.694c-13.565,10.681-44.52,16.989-65.181,15.534c-2.175-0.611,3.428-5.001,0.32-10.021
		c-1.686,0.766-1.516-1.067-2.802-0.861c-3.644,1.954-5.735,5.016-6.462,9.052c-5.154-1.995-11.387-6.14-18.425-2.904
		c-0.18-1.078-0.359-2.154-0.54-3.232c-0.412,3.692,0.095,8.04,0.758,12.499c3.497,3.876,10.719,2.53,15.947,3.981
		c-4.157,5.573-12.433,8.206-14.757,15.089c3.738,1.646,5.143-2.592,6.571-4.42c5.192-3.126,9.737-6.714,12.711-11.424
		c2.218,0.615,5.2,0.16,6.896,1.506c0.97,4.679,1.74,9.214,0.003,11.96c-1.708-0.267-2.834-1.348-4.849-1.184
		c-0.432,0.072-0.861,0.144-1.293,0.215c-1.084-0.919-6.385-0.035-7.11,1.188c-2.961,0.924-4.247,3.043-8.081,3.343
		c-3.017,0.504-6.033,1.008-9.05,1.512c-3.235,0.809-4.757-0.782-6.896-1.507c-20.967,29.907,13.842,65.729,35.902,79.721
		c12.126,7.69,21.544,13.959,39.653,10.655c3.326,2.519,9.1,1.61,12.607,3.875c-4.182-0.789-8.798-0.971-12.392-2.582
		c-5.941-0.11-16.228,1.885-21.98-0.317c-10.395-3.979-23.661-13.672-34.376-22.832c-11.828-10.111-21.591-23.449-25.222-35.656
		c-4.128-13.874-1.359-24.374,3.761-33.187c-1.681-3.761-5.464-4.576-6.791-8.832c7.966,1.742,15.631-3.134,18.529-8.41
		c-0.96-5.48-2.933-10.133-3.237-15.407c20.287-16.445,73.042-25.111,97.612-16.298c0.815,5.517,2.584,11.715,1.298,15.73
		c4.716,4.827,13.363,4.146,21.873,3.657c0.358,3.482-2.43,4.72-2.691,7.758c25.78,18.058,11.566,64.309-2.239,82.103
		c3.25,1.03,5.073,4.06,10.345,2.259c0.205,1.704-5.697,1.956-3.447,3.233c0.036,0.216,0.072,0.432,0.108,0.646
		c1.313,3.744,3.172,6.723,4.421,10.558c-6.125-1.79-10.174-6.487-12.826-13.141c2.004-2.408,3.588,0.88,6.034,0.321
		c-1.071-3.02-5.865-0.823-6.144-4.954c10.421-14.008,17.164-30.642,17.225-52.046C268.257,181.12,267.186,174.702,265.784,172.919z
		 M260.85,250.819c0.008-4.265-2.812-4.568-2.804-8.834c-3,0.214-4.502-1.669-7.004-2.153
		C253.738,244.299,256.264,249.003,260.85,250.819z"/>
	<path fill-rule="evenodd" clip-rule="evenodd" fill="#EBD6B9" d="M218.297,270.549c3.998,1.362,8.478-0.339,12.282-2.051
		C229.089,271.528,220.69,272.931,218.297,270.549z"/>
	<path fill-rule="evenodd" clip-rule="evenodd" fill="#EBD6B9" d="M241.028,263.432c-10.655,3.724-9.083,17.379-2.472,21.011
		c0.875-1.807,0.707-0.836,3.124-1.187c-0.615,1.063-3.021,1.513-0.322,2.048c1.505,0.851,7.257-0.109,8.403-1.404
		c0.463-0.429,0.937-0.849,1.832-0.969c-0.123-0.626-0.876-0.37-1.401-0.431c9.301-3.684,2.96-20.914-5.932-19.608
		c-0.071-0.432-0.144-0.862-0.216-1.293c-0.036-0.216-0.071-0.431-0.108-0.646c13.623,0.899,17.131,22.318,3.672,25.966
		c-9.81,2.657-21.685-9.928-12.612-19.822c-1.471-1.909-1.413,1.963-3.771,1.295c3.982-1.981,6.091-8.071,9.155-8.838
		C240.598,260.846,240.813,262.139,241.028,263.432z M239.196,260.415c0.224,1.353-3.116,3.018-1.399,3.556
		c-0.04-0.977,1.463-0.853,2.478-1.077C240.003,261.944,240.107,260.469,239.196,260.415z"/>
	<path fill-rule="evenodd" clip-rule="evenodd" fill="#EBD6B9" d="M249.858,244.682c3.275,5.779,7.816,9.789,13.902,11.632
		c0.577,0.256,1.162,0.499,2.047,0.322c0.403,11.09,7.93,15.707,16.704,12.494c2.543-1.222,4.003-3.215,5.063-5.496
		c0.146-1.414,1.295-2.113,0.646-4.095c1.414-0.319-0.184-2.788-0.002-3.986c0.216-0.036,0.432-0.072,0.647-0.108
		c-0.221-2.435,3.638-1.958,3.985-3.988c-6.232-8.909-14.491-22.275-30.064-12.92c13.678-12.17,26.142,4.741,30.711,12.813
		c0.454,2.412-2.167,2.628-4.094,3.341c6.26,18.378-25.22,23.444-24.672,3.455c-7.322-3.303-14.264-7.138-17.352-16.372
		c-3.18,3.425-2.492,9.609-4.307,14.009c-0.036-0.216-0.071-0.432-0.107-0.646c-0.181-1.078-0.359-2.155-0.54-3.232
		c2.209-3.548,1.334-9.297,5.384-11.53c0.345,1.645,0.882,3.021,1.94,3.663C249.786,244.25,249.822,244.466,249.858,244.682z"/>
	<path fill-rule="evenodd" clip-rule="evenodd" fill="#C6B840" d="M241.86,156.979c4.174,1.044,7.985-2.486,10.989-1.835
		C249.541,156.169,245.014,159.189,241.86,156.979z"/>
	<path fill-rule="evenodd" clip-rule="evenodd" fill="#C6B840" d="M228.609,161.186c1.002-2.523,3.649-6.867,7.001-5.82
		C231.6,156.109,230.842,159.174,228.609,161.186z"/>
	<path fill-rule="evenodd" clip-rule="evenodd" fill="#C6B840" d="M208.354,167.225c-3.987,0.104-5.893,0.422-9.696,1.619
		C200.621,166.634,205.696,166.177,208.354,167.225z"/>
	<path fill-rule="evenodd" clip-rule="evenodd" fill="#C6B840" d="M180.236,177.899c4.033-1.675,8.404-3.11,11.742-5.282
		C189.348,175.294,185.584,177.162,180.236,177.899z"/>
	<path fill-rule="evenodd" clip-rule="evenodd" fill="#C6B840" d="M161.918,171.656c2.015-0.164,3.141,0.917,4.849,1.184
		c1.737-2.746,0.967-7.281-0.003-11.96c-1.696-1.346-4.679-0.891-6.896-1.506c-2.974,4.71-7.519,8.298-12.711,11.424
		c-1.429,1.828-2.833,6.065-6.571,4.42c2.324-6.883,10.6-9.516,14.757-15.089c-5.228-1.451-12.451-0.105-15.947-3.981
		c-0.663-4.459-1.17-8.807-0.758-12.499c0.18,1.078,0.36,2.154,0.54,3.232c7.038-3.236,13.271,0.909,18.425,2.904
		c0.727-4.037,2.818-7.098,6.462-9.052c1.286-0.206,1.116,1.627,2.802,0.861c3.107,5.019-2.495,9.41-0.32,10.021
		c20.661,1.455,51.615-4.853,65.181-15.534c2.239-0.556-2.023-2.138,0.215-2.694c2.451,2.628,2.998,5.11,2.158,8.942
		c-16.927,9.711-40.242,17.448-64.211,17.365c2.938,5.469,1.075,11.024-0.104,15.3c2.866,1.569,6.072,2.66,9.806,3.015
		c-5.334,1.357-7.12-2.257-11.099-2.799c1.724-4.646,3.919-10.456-0.005-15.946c21.992-0.602,48.451-7.773,64.857-17.473
		c-0.447-2.027,1.357-2.447,0.538-4.741c-6.299,2.013-12.295,7.387-20.9,10.134c-15.522,4.957-34.165,6.53-49.453,6.263
		c-0.695-3.533,3.149-3.826,2.8-7.112c-3.179,1.527-2.289,5.958-6.895,6.467c0.242-4.572,0.681-9.004,5.601-10.237
		c-4.933-1.232-5.152,5.804-7.217,8.514c-5.087-0.851-7.746-5.102-14.008-4.305c3.444,2.088,8.558,1.839,10.884,5.491
		c-5.701,0.276-11.782,1.084-13.9-3.659c-1.254,0.813-1.652,2.237-1.292,4.203c3.857,0.446,6.845,2.111,10.991,2.152
		c-3.234,2.645-7.692,0.159-10.667-0.213c3.009,4.559,10.116,3.376,15.947,3.981c-1.108,7.939-12.325,8.664-13.895,16.274
		c8.415-4.628,12.926-17.456,24.562-16.062c2.94,4.196,2.646,9.898,1.729,14.329C165.487,173.567,163.705,172.607,161.918,171.656z
		 M161.696,150.43c0.646-2.764,4.224-3.438,3.445-7.22C161.534,143.497,160.735,148.775,161.696,150.43z M151.029,150.218
		c-3.447,0.575-4.292-2.496-8.188-1.291C143.616,151.587,149.235,151.635,151.029,150.218z"/>
	<path fill-rule="evenodd" clip-rule="evenodd" fill="#CB372A" d="M161.918,171.656c1.787,0.951,3.569,1.911,6.25,1.613
		c0.918-4.431,1.212-10.133-1.729-14.329c-11.636-1.395-16.146,11.434-24.562,16.062c1.569-7.61,12.786-8.335,13.895-16.274
		c-5.831-0.605-12.938,0.577-15.947-3.981c2.974,0.372,7.432,2.857,10.667,0.213c-4.146-0.041-7.134-1.706-10.991-2.152
		c-0.361-1.965,0.037-3.39,1.292-4.203c2.119,4.743,8.2,3.936,13.9,3.659c-2.326-3.652-7.44-3.403-10.884-5.491
		c6.262-0.797,8.921,3.455,14.008,4.305c2.064-2.71,2.284-9.746,7.217-8.514c-4.92,1.233-5.358,5.665-5.601,10.237
		c4.605-0.509,3.716-4.939,6.895-6.467c0.35,3.286-3.495,3.579-2.8,7.112c15.288,0.267,33.931-1.307,49.453-6.263
		c8.605-2.748,14.602-8.122,20.9-10.134c0.819,2.294-0.985,2.713-0.538,4.741c-16.406,9.7-42.865,16.872-64.857,17.473
		c3.924,5.49,1.729,11.301,0.005,15.946c3.979,0.542,5.765,4.156,11.099,2.799c0.216-0.036,0.431-0.072,0.646-0.108
		c5.348-0.737,9.111-2.605,11.742-5.282c2.995-0.709,3.845-2.95,6.68-3.773c3.804-1.197,5.709-1.516,9.696-1.619
		c6.562,1.341,19.807,2.937,20.255-6.039c2.232-2.012,2.99-5.076,7.001-5.82c2.161,0.429,3.785,1.611,6.25,1.614
		c3.153,2.21,7.681-0.811,10.989-1.835c5.893,3.71,9.844,10.14,12.935,17.774c0.575,3.447,1.15,6.896,1.727,10.343
		c-0.061,21.404-6.804,38.038-17.225,52.046c-0.215,0.035-0.431,0.071-0.646,0.108c-0.765-1.687,1.068-1.516,0.862-2.803
		c-6.064,1.176-6.942,6.053-11.203,8.515c-0.216,0.037-0.432,0.073-0.646,0.108c-4.429-1.549-9.605-2.016-14.115-0.966
		c-12.948,3.016-13.14,15.905-16.908,26.079c-0.862,0.145-1.725,0.288-2.586,0.433c-18.109,3.304-27.527-2.965-39.653-10.655
		c-22.06-13.991-56.869-49.813-35.902-79.721c2.14,0.725,3.661,2.315,6.896,1.507c1.716,0.815,7.691-0.183,9.05-1.512
		c3.833-0.3,5.12-2.419,8.081-3.343c2.37-0.396,4.739-0.791,7.11-1.188C161.057,171.8,161.486,171.729,161.918,171.656z
		 M167.516,157.432c2.155-0.359,4.311-0.719,6.466-1.079c2.815,0.05,5.508-1.805,1.185-0.862c-2.61-0.091-8.262-0.093-9.805,0.973
		C166.468,156.242,167.102,156.684,167.516,157.432z M190.896,154.192c-2.747,0.888-7.449,0.377-8.942,2.158
		C184.699,155.464,189.402,155.974,190.896,154.192z M143.396,207.972c-0.947-9.228,4.289-25.303-8.196-25.21
		c-7.253,4.324-3.94,15.47-0.531,24.673c3.569,9.638,11.881,22.391,17.462,24.992c-3.198-4.295-5.757-9.483-7.332-16.052
		C144.332,213.573,143.864,210.772,143.396,207.972z M188.857,185.763c-14.214,1.999-11.68,15.956-27.793,16.601
		c-2.91,11.171-1.588,21.736,5.181,31.029c2.205,1.165,6.706-0.886,9.805-0.973c11.203,13.766,44.849,7.914,51.068-8.526
		c2.746-0.888,7.448-0.377,8.942-2.158c3.958-10.854,0.568-20.384-4.534-31.137c-15.857,4.932-18.196-9.073-32.325-6.563
		C197.06,183.289,190.641,184.361,188.857,185.763z"/>
	<path fill-rule="evenodd" clip-rule="evenodd" fill="#EBD6B9" d="M165.142,143.21c0.778,3.782-2.799,4.456-3.445,7.22
		C160.735,148.775,161.534,143.497,165.142,143.21z"/>
	<path fill-rule="evenodd" clip-rule="evenodd" fill="#EBD6B9" d="M144.799,216.375c1.574,6.568,4.134,11.757,7.332,16.052
		c-5.581-2.602-13.893-15.354-17.462-24.992c-3.409-9.203-6.722-20.349,0.531-24.673c12.484-0.093,7.249,15.982,8.196,25.21
		C142.545,209.476,143.506,215.228,144.799,216.375z"/>
	<path fill-rule="evenodd" clip-rule="evenodd" fill="#EBD6B9" d="M166.245,233.393c-6.769-9.293-8.091-19.858-5.181-31.029
		c16.113-0.645,13.579-14.602,27.793-16.601c3.448-0.575,6.896-1.151,10.344-1.727c14.129-2.511,16.468,11.494,32.325,6.563
		c5.103,10.753,8.492,20.283,4.534,31.137c-2.746,0.887-7.448,0.377-8.942,2.158c-6.22,16.44-39.865,22.292-51.068,8.526
		C173.846,231.254,169.344,233.305,166.245,233.393z M193.183,239.525c9.998-0.826-4.13-2.368-4.956-1.83
		C189.403,238.971,192.572,237.457,193.183,239.525z M166.352,230.052c0.758-1.644-1.311-4.657-2.91-5.493
		C164.413,226.388,165.35,228.266,166.352,230.052z M220.322,195.127c-11.931-13.141-40.574-7.767-47.836,7.987
		c-2.802,0.468-5.604,0.935-8.404,1.403c-1.649,9.443-1.234,19.417,5.072,26.396c2.801-0.467,5.602-0.936,8.403-1.403
		c11.819,12.914,40.103,7.921,47.189-7.878c2.711-0.723,6.765-0.486,8.296-2.051c3.412-9.295,0.543-17.311-4.317-25.856
		C225.925,194.191,223.123,194.659,220.322,195.127z M162.898,209.366c0.339-0.946-1.339-7.4-1.402-4.417
		C161.417,208.634,162.762,209.748,162.898,209.366z"/>
	<path fill-rule="evenodd" clip-rule="evenodd" fill="#FFFFFF" d="M188.227,237.695c0.826-0.538,14.954,1.004,4.956,1.83
		C192.572,237.457,189.403,238.971,188.227,237.695z"/>
	<path fill-rule="evenodd" clip-rule="evenodd" fill="#FFFFFF" d="M163.441,224.559c1.6,0.836,3.668,3.85,2.91,5.493
		C165.35,228.266,164.413,226.388,163.441,224.559z"/>
	<path fill-rule="evenodd" clip-rule="evenodd" fill="#C6B840" d="M190.809,225.305c-0.098-0.927-0.199-1.85-0.97-1.832
		c0.328,0.751-1.496,2.541-1.832,0.971c6.134-3.594-4.29-19.006,0.748-23.381C189.134,208.925,194.017,220.003,190.809,225.305z
		 M190.051,212.806c-0.47-1.521-0.682-7.48-1.617-5.71C188.903,208.618,189.115,214.577,190.051,212.806z"/>
	<path fill-rule="evenodd" clip-rule="evenodd" fill="#C6B840" d="M187.576,225.844c-1.829-0.473-2.386-0.428-0.97-1.831
		c-0.912-1.466-2.646,1.744-2.91-1.508c1.971-0.898,2.17,0.684,3.448,0.754c0.072,0.431,0.145,0.861,0.216,1.292
		C186.469,224.995,187.521,225.107,187.576,225.844z"/>
	<path fill-rule="evenodd" clip-rule="evenodd" fill="#C6B840" d="M193.93,212.158c1.318,2.806-1.262,6.399,1.833,7.003
		c-0.657-1.976,1.944-2.08,0.107-3.34c3.102,0.084,0.97-5.198-0.863-5.172c0.252,1.509,0.503,3.018,0.756,4.525
		c-1.916,0.024-0.242-4.98-2.156-4.956c0.269-2.654-0.916-6.348-0.111-8.619c0.485,3.309,0.694,7.004,3.235,7.434
		c-0.288-1.725-0.576-3.448-0.864-5.172c1.647,3.276,2.572,7.564,3.882,11.313c-0.861,0.144-1.724,0.288-2.585,0.432
		c1.42,1.733,3.168,3.006,3.126,6.787c-1.574-0.984-0.874-5.156-2.91-5.494c-2.497,1.444-0.601,6.024-1.938,8.297
		c-2.786,0.121-1.2-5.827-0.754-0.538C195.34,221.406,192.098,215.729,193.93,212.158z"/>
	<path fill-rule="evenodd" clip-rule="evenodd" fill="#C6B840" d="M201.038,202.998c2.223,4.064,2.126,11.38,3.453,16.7
		c1.903,6.229-0.401-6.513-0.865-9.158c1.597,2.485,2.572,9.414,2.051,12.282C202.086,219.078,202.864,209.215,201.038,202.998z"/>
	<path fill-rule="evenodd" clip-rule="evenodd" fill="#C6B840" d="M210.198,210.106c0.819,2.861,1.046,10.736,2.374,10.235
		c-1.036-3.602-0.659-9.18-2.59-11.528c-0.174-0.988-2.118-1.83-1.293,0.217c-0.215,0.035-0.431,0.071-0.646,0.107
		c-0.057-2.579-2.423-1.925-3.233-3.446c-0.139,2.055,1.433,1.714,1.294,3.77c-1.052-0.386-1.283-1.925-1.832-3.016
		c-0.907,0.302,0.097,1.967-0.969,2.155c0.394-2.885,0.989-10.123-2.696-8.188c2.285-4.522,3.612,5.373,6.251,5.601
		c1.257-0.812-0.38-3.688,1.291-4.202c0.269,1.52-0.795,2.089,0.002,3.985c3.117-0.621,1.884-4.348,1.398-7.542
		c-1.493-0.117-0.715,1.388-1.724,1.617c-0.479-1.671,0.541-2.271,2.262-2.371c1.999,9.902,1.725,14.746,3.347,24.025
		C209.858,221.733,209.973,212.571,210.198,210.106z"/>
	<path fill-rule="evenodd" clip-rule="evenodd" fill="#666392" d="M207.825,199.872c1.009-0.229,0.23-1.734,1.724-1.617
		c0.485,3.194,1.719,6.921-1.398,7.542c-0.797-1.896,0.267-2.466-0.002-3.985C208.041,201.165,207.933,200.519,207.825,199.872z"/>
	<path fill-rule="evenodd" clip-rule="evenodd" fill="#666392" d="M258.692,241.877c-0.036-0.215-0.071-0.431-0.108-0.646
		c6.807,0.304,10.865,4.455,16.38,6.568c-4.573,0.532-5.989,3.316-8.403,5.39c-1.621-0.642-2.151,2.072-2.585,0.432
		c-0.034-2.894-3.187-8.285-5.175-11.097C258.765,242.309,258.729,242.093,258.692,241.877z"/>
	<path fill-rule="evenodd" clip-rule="evenodd" fill="#666392" d="M263.761,256.313c-6.086-1.843-10.627-5.853-13.902-11.632
		C253.726,249.633,258.122,253.844,263.761,256.313z"/>
	<path fill-rule="evenodd" clip-rule="evenodd" fill="#666392" d="M249.75,244.035c-1.059-0.643-1.596-2.019-1.94-3.663
		c-4.05,2.233-3.175,7.982-5.384,11.53c0.287-4.73,1.98-8.456,3.983-11.961C248.821,239.486,249.037,242.108,249.75,244.035z"/>
	<path fill-rule="evenodd" clip-rule="evenodd" fill="#666392" d="M239.299,241.128c0.73,2.989-2.975,2.813-3.124,5.173
		c2.967-0.017,2.85-4.888,4.956-2.156c0.036,0.216,0.072,0.432,0.107,0.646c-1.93,5.422-1.983,11.311,0.437,18.532
		c-0.215,0.036-0.431,0.072-0.646,0.108c-0.216-1.293-0.431-2.586-0.647-3.879c-0.12-0.895-0.541-1.368-0.971-1.832
		c-3.492,11.425-20.735,15.438-31.027,9.168c12.948-6.511,22.576-15.391,30.27-25.652
		C238.867,241.201,239.083,241.165,239.299,241.128z"/>
	<path fill-rule="evenodd" clip-rule="evenodd" fill="#483646" d="M249.64,235.416c0.253,1.508,0.504,3.016,0.756,4.524
		c2.652,6.653,6.701,11.351,12.826,13.141c-0.027,0.57,0.353,0.568,0.754,0.539c0.434,1.641,0.964-1.073,2.585-0.432
		c1.146,3.214,3.965,1.509,6.789,0.859c1.246,5.715-4.685,2.355-7.542,2.588c-0.885,0.177-1.47-0.066-2.047-0.322
		c-5.639-2.47-10.035-6.681-13.902-11.632c-0.036-0.216-0.072-0.432-0.108-0.646c-0.713-1.927-0.929-4.549-3.341-4.094
		c-2.003,3.505-3.696,7.23-3.983,11.961c0.181,1.077,0.359,2.154,0.54,3.232c-0.953,0.876-0.107,5.945,1.079,6.464
		c0.072,0.431,0.145,0.861,0.216,1.293c-1.879,2.472,3.886,4.171,1.834,7.003c-4.874,0.849-1.603-4.76-4.42-6.571
		c-2.42-7.222-2.366-13.11-0.437-18.532c2.467-0.706,2.154-3.397,3.123-5.173c-2.018,0.838-3.92,1.757-3.23,4.526
		c-2.106-2.731-1.989,2.14-4.956,2.156c0.149-2.36,3.854-2.184,3.124-5.173c4.261-2.462,5.139-7.339,11.203-8.515
		C250.708,233.9,248.875,233.729,249.64,235.416z"/>
	<path fill-rule="evenodd" clip-rule="evenodd" fill="#C6B840" d="M262.786,238.536c15.573-9.355,23.832,4.011,30.064,12.92
		c-0.348,2.03-4.206,1.554-3.985,3.988c-0.216,0.036-0.432,0.072-0.647,0.108c-0.278-2.477,2.562-2.728,3.986-3.988
		c-3.052-0.776-6.729-0.678-9.052-2.476c-2.311-1.017-4.813-1.766-8.188-1.29c-5.515-2.113-9.573-6.265-16.38-6.568
		c0.037,0.216,0.072,0.432,0.108,0.646c-2.25-1.277,3.652-1.529,3.447-3.233C262.354,238.608,262.57,238.572,262.786,238.536z"/>
	<path fill-rule="evenodd" clip-rule="evenodd" fill="#666392" d="M287.571,255.66c1.264-3.594-2.186-4.725-4.311-5.925
		c-0.036-0.215-0.072-0.432-0.108-0.646c2.322,1.798,6,1.699,9.052,2.476c-1.425,1.261-4.265,1.512-3.986,3.988
		c-0.182,1.198,1.416,3.667,0.002,3.986C288.004,258.246,287.788,256.953,287.571,255.66z"/>
	<path fill-rule="evenodd" clip-rule="evenodd" fill="#C6B840" d="M238.652,241.236c-7.693,10.262-17.321,19.142-30.27,25.652
		c10.292,6.271,27.535,2.257,31.027-9.168c0.43,0.464,0.851,0.938,0.971,1.832c-3.064,0.767-5.173,6.856-9.155,8.838
		c-0.215,0.035-0.432,0.072-0.646,0.107c-3.805,1.712-8.284,3.413-12.282,2.051c-0.216,0.036-0.432,0.072-0.646,0.108
		c-3.508-2.265-9.281-1.356-12.607-3.875c0.861-0.145,1.724-0.288,2.586-0.433c3.769-10.174,3.96-23.063,16.908-26.079
		C229.047,239.221,234.224,239.688,238.652,241.236z"/>
	<path fill-rule="evenodd" clip-rule="evenodd" fill="#C6B840" d="M258.801,242.523c1.988,2.812,5.141,8.203,5.175,11.097
		c-0.401,0.029-0.781,0.031-0.754-0.539C261.973,249.246,260.114,246.268,258.801,242.523z"/>
	<path fill-rule="evenodd" clip-rule="evenodd" fill="#483646" d="M283.261,249.735c2.125,1.2,5.574,2.331,4.311,5.925
		C285.729,254.253,285.097,251.151,283.261,249.735z"/>
	<path fill-rule="evenodd" clip-rule="evenodd" fill="#EBD6B9" d="M278.305,251.892c-0.827,1.232-2.556,0.2-3.986,0.001
		C273.614,248.521,278.184,248.29,278.305,251.892z"/>
	<path fill-rule="evenodd" clip-rule="evenodd" fill="#FFFFFF" d="M240.274,262.894c-1.015,0.225-2.518,0.101-2.478,1.077
		c-1.717-0.538,1.623-2.203,1.399-3.556C240.107,260.469,240.003,261.944,240.274,262.894z"/>
	<path fill-rule="evenodd" clip-rule="evenodd" fill="#CB372A" d="M241.358,285.304c-2.698-0.535-0.293-0.985,0.322-2.048
		c-2.417,0.351-2.249-0.62-3.124,1.187c-6.611-3.632-8.184-17.287,2.472-21.011c0.216-0.036,0.432-0.072,0.646-0.108
		c2.817,1.812-0.454,7.42,4.42,6.571c2.052-2.832-3.713-4.531-1.834-7.003c8.892-1.306,15.232,15.925,5.932,19.608
		c0.525,0.061,1.278-0.195,1.401,0.431c-0.896,0.12-1.369,0.54-1.832,0.969C248.099,282.937,242.726,284.167,241.358,285.304z
		 M238.015,273.237c2.073-0.039,2.792-1.044,2.153-3.018c-0.861,0.144-1.724,0.288-2.585,0.432
		C237.727,271.513,237.871,272.375,238.015,273.237z"/>
	<path fill-rule="evenodd" clip-rule="evenodd" fill="#483646" d="M287.574,263.634c-1.06,2.281-2.52,4.274-5.063,5.496
		c-0.457-3.363,3.47-3.597,3.554-6.573C286.794,262.599,286.719,263.769,287.574,263.634z"/>
	<path fill-rule="evenodd" clip-rule="evenodd" fill="#EBD6B9" d="M227.757,195.88c4.404,7.474,6.326,14.296,3.777,22.625
		c-2.586,0.432-5.172,0.863-7.758,1.295c-5.377,7.045-12.493,15.174-23.914,15.953c-9.2,0.629-15.736-4.629-21.982-8.29
		c-2.586,0.432-5.171,0.863-7.757,1.295c-5.52-6.626-6.322-14.358-3.777-22.625c1.355-1.5,5.126-1.275,7.648-1.941
		c6.827-14.887,34.045-20.011,45.251-7.556C222.232,196.174,225.517,195.294,227.757,195.88z M187.36,224.551
		c-0.071-0.431-0.144-0.861-0.216-1.292c-1.278-0.07-1.478-1.652-3.448-0.754c0.264,3.252,1.998,0.042,2.91,1.508
		c-1.416,1.403-0.859,1.358,0.97,1.831c1.078-0.18,2.155-0.359,3.232-0.539c3.208-5.302-1.675-16.38-2.054-24.242
		c-5.038,4.375,5.386,19.787-0.748,23.381C187.792,224.479,187.576,224.516,187.36,224.551z M195.866,203.861
		c-0.346-0.936-1.611-4.531-2.371-2.262c-0.805,2.271,0.38,5.965,0.111,8.619c0.107,0.646,0.215,1.293,0.323,1.939
		c-1.832,3.57,1.41,9.248,0.758,12.499c-0.446-5.289-2.032,0.659,0.754,0.538c1.337-2.272-0.56-6.853,1.938-8.297
		c2.036,0.338,1.336,4.51,2.91,5.494c0.036,0.215,0.072,0.432,0.108,0.646c0.205,0.776,0.448,1.498,1.509,1.077
		c0.621-1.183-0.928-6.11-1.941-7.649c-0.072-0.431-0.145-0.862-0.217-1.293C198.438,211.426,197.514,207.138,195.866,203.861z
		 M200.606,200.413c0.144,0.861,0.287,1.724,0.432,2.585c1.826,6.217,1.048,16.08,4.639,19.824
		c0.521-2.868-0.454-9.797-2.051-12.282c-0.108-0.646-0.216-1.293-0.323-1.939c1.065-0.188,0.062-1.854,0.969-2.155
		c0.549,1.091,0.78,2.63,1.832,3.016c0.401,0.769,1.055,1.183,2.156,0.97c-0.072-0.431-0.145-0.861-0.217-1.293
		c0.216-0.036,0.432-0.072,0.646-0.107c-0.825-2.047,1.119-1.205,1.293-0.217c0.072,0.432,0.144,0.862,0.216,1.293
		c-0.226,2.465-0.34,11.627,3.235,11.42c-1.622-9.279-1.348-14.123-3.347-24.025c-1.721,0.1-2.741,0.7-2.262,2.371
		c0.107,0.646,0.216,1.293,0.323,1.939c-1.671,0.515-0.034,3.391-1.291,4.202C204.219,205.786,202.892,195.891,200.606,200.413z"/>
	<path fill-rule="evenodd" clip-rule="evenodd" fill="#483646" d="M249.762,283.899c-1.146,1.295-6.898,2.255-8.403,1.404
		C242.726,284.167,248.099,282.937,249.762,283.899z"/>
	<path fill-rule="evenodd" clip-rule="evenodd" fill="#CB372A" d="M274.964,247.799c3.376-0.476,5.878,0.273,8.188,1.29
		c0.036,0.215,0.072,0.432,0.108,0.646c1.836,1.416,2.469,4.518,4.311,5.925c0.217,1.293,0.433,2.586,0.648,3.879
		c0.649,1.981-0.499,2.681-0.646,4.095c-0.855,0.135-0.78-1.035-1.509-1.077c-0.084,2.977-4.011,3.21-3.554,6.573
		c-8.774,3.213-16.301-1.404-16.704-12.494c2.857-0.232,8.788,3.127,7.542-2.588c-2.824,0.649-5.643,2.354-6.789-0.859
		C268.975,251.115,270.391,248.331,274.964,247.799z M274.318,251.893c1.431,0.199,3.159,1.231,3.986-0.001
		C278.184,248.29,273.614,248.521,274.318,251.893z"/>
</g>
<g>
	<path fill-rule="evenodd" clip-rule="evenodd" fill="#C6B840" d="M190.087,22.432c-0.109,0.189-0.218,0.378-0.327,0.567
		c-6.496-4.555-11.787-4.606-18.247-9.031C177.357,15.493,183.587,18.457,190.087,22.432z"/>
	<path fill-rule="evenodd" clip-rule="evenodd" fill="#666392" d="M189.76,23c0.109-0.189,0.218-0.378,0.327-0.567
		c3.783,2.186,7.566,4.373,11.35,6.559c-0.11,0.189-0.22,0.378-0.329,0.567C197.325,27.372,193.543,25.186,189.76,23z"/>
	<path fill-rule="evenodd" clip-rule="evenodd" fill="#CB372A" d="M189.76,23c-0.766,1.324-1.531,2.648-2.296,3.972
		c-0.328,0.567-0.656,1.135-0.983,1.702c-2.99-0.959,2.564-4.204,0.921-5.523c-2.164,0.843-2.682,2.503-3.519,4.779
		c-3.823-3.532-5.612,0.54-8.059,2.156c-7.478-3.022-14.803-8.343-17.653-13.987c3.911-2.117,8.134-3.067,12.774-2.458
		c0.188,0.109,0.378,0.219,0.567,0.328C177.973,18.394,183.264,18.445,189.76,23z"/>
	<path fill-rule="evenodd" clip-rule="evenodd" fill="#666392" d="M200.213,29.798c-0.109,0.189-0.218,0.378-0.328,0.567
		c-4.602-1.062-8.764-0.482-13.404-1.691c0.327-0.567,0.655-1.135,0.983-1.702C190.397,29.781,195.785,27.277,200.213,29.798z"/>
	<path fill-rule="evenodd" clip-rule="evenodd" fill="#FFFFFF" d="M198.661,31.172c-3.866,2.285-8.986-0.121-13.493-0.229
		C188.995,28.512,194.197,31.223,198.661,31.172z"/>
	<path fill-rule="evenodd" clip-rule="evenodd" fill="#CB372A" d="M161.929,12.215c-1.904,0.65-3.638,1.943-5.939,1.109
		C157.286,10.4,159.463,10.769,161.929,12.215z"/>
	<path fill-rule="evenodd" clip-rule="evenodd" fill="#CB372A" d="M226.264,55.45c-2.747,4.077-4.768,10.871-8.828,10.037
		c-8.882-0.741-21.41-6.156-30.101-12.097c0.109-0.189,0.219-0.378,0.328-0.567c0.166-1.004,2.358-2.55,1.072-3.166
		c0.108-0.189,0.219-0.378,0.328-0.567c1.123,1.004,3.528-2.068,2.535-3.077c0.109-0.189,0.218-0.378,0.327-0.567
		c0.927-1.047,0.479-1.728,0.744-2.598c0.189,0.109,0.379,0.219,0.568,0.328C203.035,50.868,217.801,52.717,226.264,55.45z"/>
	<path fill-rule="evenodd" clip-rule="evenodd" fill="#FFFFFF" d="M182.607,39.304c1.234-3.189,8.05-0.965,12.03,0.14
		C191.075,41.069,186.22,37.862,182.607,39.304z"/>
	<path fill-rule="evenodd" clip-rule="evenodd" fill="#CB372A" d="M180.249,39.456c-0.109,0.189-0.218,0.378-0.327,0.567
		c-0.766,1.324-1.531,2.647-2.296,3.972c-1.176-0.807-1.42,1.864-2.208,2.509c-6.198-3.337-16.151-9.723-19.922-15.298
		c-5.64-4.349,0.477,0.184,2.837,1.639c4.719,2.911,12.339,7.422,15.081,7.958c1.321-2.355,1.074-4.017,1.905-7.226
		c1.732,0.501,3.683,1.812,5.195,1.489C181.703,36.188,178.126,38.584,180.249,39.456z"/>
	<path fill-rule="evenodd" clip-rule="evenodd" fill="#483646" d="M192.67,42.849c-0.265,0.87,0.183,1.55-0.744,2.598
		c-4.772-0.506-9.609-1.253-14.3-1.452c0.765-1.325,1.53-2.648,2.296-3.972c4.438,1.048,8.43,0.428,13.076,2.258
		C192.889,42.471,192.779,42.66,192.67,42.849z"/>
	<path fill-rule="evenodd" clip-rule="evenodd" fill="#C6B840" d="M190.703,46.254c0.232-0.328,0.473-0.623,0.896-0.24
		c0.993,1.008-1.412,4.081-2.535,3.077c-0.189-0.109-0.379-0.219-0.568-0.328C189.574,48.047,191.252,48.146,190.703,46.254z"/>
	<path fill-rule="evenodd" clip-rule="evenodd" fill="#483646" d="M187.663,52.824c-4.821-1.287-9.026-0.265-13.972-2.02
		c3.777-5.004,9.921-1.169,15.044-1.146C190.021,50.274,187.829,51.819,187.663,52.824z"/>
	<path fill-rule="evenodd" clip-rule="evenodd" fill="#FFFFFF" d="M185.783,54.766c-4.06,0.361-8.283,0.117-12.837-1.363
		C177.007,53.037,181.157,53.011,185.783,54.766z"/>
	<path fill-rule="evenodd" clip-rule="evenodd" fill="#483646" d="M184.472,57.035c-0.655,1.135-1.312,2.27-1.968,3.404
		c-4.515-0.742-8.675-0.151-13.404-1.691C172.723,52.566,179.207,57.079,184.472,57.035z"/>
	<path fill-rule="evenodd" clip-rule="evenodd" fill="#FFFFFF" d="M180.386,61.486c-1.387,3.217-8.591,0.14-12.358,0.428
		C171.483,59.289,176.587,62.827,180.386,61.486z"/>
	<path fill-rule="evenodd" clip-rule="evenodd" fill="#EBD6B9" d="M196.728,77.743c-3.275-2.852-6.077,0.077-8.032-3.128
		C190.372,71.329,197.473,74.36,196.728,77.743z"/>
	<path fill-rule="evenodd" clip-rule="evenodd" fill="#666392" d="M171.76,63.314c-2.105,1.097-4.71,0.324-7.554-1.338
		c0.551-0.932,1.758,0.592,2.358-0.151C168.658,63.674,169.882,62.271,171.76,63.314z"/>
	<path fill-rule="evenodd" clip-rule="evenodd" fill="#666392" d="M197.899,87.503c2.273,1.166-1.565,6.126-3.431,3.316
		C195.968,91.043,196.992,89.49,197.899,87.503z"/>
	<path fill-rule="evenodd" clip-rule="evenodd" fill="#EBD6B9" d="M186.802,96.229c0.98-2.906,2.91-2.27,5.044-0.87
		C190.909,98.437,188.788,97.08,186.802,96.229z"/>
	<path fill-rule="evenodd" clip-rule="evenodd" fill="#666392" d="M165.213,89.051c-1.304-1.57-0.276-3.764,1.248-6.091
		C168.205,84.344,167.022,88.217,165.213,89.051z"/>
	<path fill-rule="evenodd" clip-rule="evenodd" fill="#666392" d="M150.558,93.451c-1.938-1.672,3.685-3.431,4.264-7.376
		C155.723,85.745,151.878,94.635,150.558,93.451z"/>
	<path fill-rule="evenodd" clip-rule="evenodd" fill="#666392" d="M165.363,91.41c0.978,1.141,2.375,3.21,0.063,3.821
		C163.503,94.466,164.313,92.969,165.363,91.41z"/>
	<path fill-rule="evenodd" clip-rule="evenodd" fill="#C6B840" d="M155.313,102.253c2.076-3.594,4.153-7.188,6.229-10.781
		C162.238,91.871,156.626,102.883,155.313,102.253z"/>
	<path fill-rule="evenodd" clip-rule="evenodd" fill="#666392" d="M168.352,95.407c-0.111,3.228-4.063,7.483-5.663,11.109
		C162.801,103.289,166.751,99.034,168.352,95.407z"/>
	<path fill-rule="evenodd" clip-rule="evenodd" fill="#EBD6B9" d="M131.354,80.838c-0.11,0.189-0.218,0.378-0.328,0.568
		c-2.162,2.184,0.145,4.617-2.383,5.434c-2.092-0.559-1.239-1.907-2.182-2.774c1.046-2.664,2.818-2.614,4.326-3.557
		C130.976,80.62,131.166,80.729,131.354,80.838z"/>
	<path fill-rule="evenodd" clip-rule="evenodd" fill="#666392" d="M177.655,121.222c0.618,2.963,3.529,5.903,0.365,8.538
		C178.52,126.748,176.137,124.506,177.655,121.222z"/>
	<path fill-rule="evenodd" clip-rule="evenodd" fill="#EBD6B9" d="M163.923,120.099c-3.045,1.913-2.251,5.286-3.128,8.032
		C152.934,129.695,160.185,115.713,163.923,120.099z"/>
	<path fill-rule="evenodd" clip-rule="evenodd" fill="#666392" d="M178.589,130.087c0.41,1.293-0.087,3.869-1.729,4.3
		C175.732,133.409,178.247,131.458,178.589,130.087z"/>
	<path fill-rule="evenodd" clip-rule="evenodd" fill="#FFFFFF" d="M185.57,165.158c2.572-4.366,3.827-8.381,2.17-11.614
		c3.544-1.703,6.618-5.154,9.157-10.604c2.535,6.837,2.751,14.295-0.191,22.599C193.021,164.346,187.467,165.631,185.57,165.158z"/>
	<path fill-rule="evenodd" clip-rule="evenodd" fill="#EBD6B9" d="M138.363,110.625c0.377,0.219,0.756,0.438,1.134,0.657
		c-1.833,2.112-3.785,3.78-6.595,2.243c-0.896-2.107,0.854-3.384,2.624-4.539C136.471,109.533,137.417,110.079,138.363,110.625z"/>
	<path fill-rule="evenodd" clip-rule="evenodd" fill="#666392" d="M141.2,112.265c2.081,1.203,4.161,2.405,6.241,3.608
		C146.104,116.353,141.451,113.664,141.2,112.265z"/>
	<path fill-rule="evenodd" clip-rule="evenodd" fill="#EBD6B9" d="M145.271,127.486c-3.136,3.46-1.174,8.258-5.247,9.079
		C136.288,134.014,141.292,125.807,145.271,127.486z"/>
	<path fill-rule="evenodd" clip-rule="evenodd" fill="#666392" d="M159.697,136.579c1.188,2.387,0.601,5.06-1.905,7.226
		C158.22,141.453,159.286,138.929,159.697,136.579z"/>
	<path fill-rule="evenodd" clip-rule="evenodd" fill="#FFFFFF" d="M181.827,149.37c-3.747-0.856-6.325,2.659-10.567-0.051
		C173.379,144.089,177.606,146.739,181.827,149.37z"/>
	<path fill-rule="evenodd" clip-rule="evenodd" fill="#666392" d="M158.422,147.955c0.693,1.554-2.156,4.969-3.758,3.883
		C155.692,149.707,157.293,149.709,158.422,147.955z"/>
	<path fill-rule="evenodd" clip-rule="evenodd" fill="#EBD6B9" d="M192.38,169.094c-2.391,1.821-4.908,3.17-6.62,7.527
		c-1.438-0.589-2.648-0.335-4.301-1.729C180.957,169.519,188.99,164.957,192.38,169.094z M182.354,174.653
		c1.332,1.396,1.933,0.05,3.165,1.072c1.009-4.063,5.237-5.448,5.159-7.616C187.669,168.604,182.554,169.492,182.354,174.653z"/>
	<path fill-rule="evenodd" clip-rule="evenodd" fill="#FFFFFF" d="M190.679,168.109c0.078,2.168-4.15,3.554-5.159,7.616
		c-1.232-1.022-1.833,0.323-3.165-1.072C182.554,169.492,187.669,168.604,190.679,168.109z"/>
	<path fill-rule="evenodd" clip-rule="evenodd" fill="#EBD6B9" d="M153.363,168.497c-21.495-4.989-52.101-22.692-64.272-39.415
		c2.5-3.692-1.837-9.818,0.077-15.852c2.79-8.791,13.81-23.895,21.972-38.018c12.313-21.307,20.549-44.025,35.73-42.179
		c3.049-4.013,1.665-6.779,1.842-11.047c3.014-4.93,5.498-8.469,7.782-12.155c22.493,1.721,60.94,23.321,72.305,42.542
		c-2.515,4.35-5.028,8.701-7.543,13.051c-13.225,2.973-2.181,13.526-5.475,22.573c-6.821,18.729-23.938,36.251-32.793,56.745
		c0.791,2.025,2.246,3.876,4.362,5.549c3.272-1.532,6.393-3.357,7.188-7.2c0.728-3.506-5.049-5.745-1.589-7.731
		c5.385-2.637,7.239,7.599,8.07,12.233c1.047,5.845-0.036,13.188-2.285,18.361c12.393,9.14,2.703,34.668-13.08,31.803
		c-1.514,2.706-2.938,5.752-5.31,5.258c-4.253-1.421,0.011-5.12-0.125-7.643c-6.925-6.144-7.4-14.011-2.406-23.342
		c-5.84,2.72-16.145-1.379-23.884-3.206c4.259-2.135,7.6,1.955,11.854,3.065c6.105,1.594,11.059-2.256,14.805-2.041
		c-8.61,11.258-4.913,19.225,0.438,26.747c0.685,1.415-2.467,3.858-0.593,4.956c2.396-0.132,1.345-2.028,3.431-3.316
		c0.718,0.292,1.077-0.759,1.551-1.374c7.654,0.89,14.708-3.725,17.782-12.433c2.554-7.23-2.23-13.044-5.357-18.235
		c-5.303,0.502-11.454-2.171-15.461,3.177c6.091-9.135,7.796-19.131-2.885-25.134c8.901-21.854,28.893-40.567,32.881-58.207
		c2.482-10.979-15.207-24.058-28.144-29.89c-4.123-1.068-7.796-0.452-11.942-1.602c-0.378-0.219-0.756-0.438-1.135-0.656
		c0.621-2.461,2.254-1.141,3.342-1.853c3.888,0.782,7.488,0.492,11.376,1.275c7.59,6.134,22.783,13.202,31.563,12.185
		c4.061,0.833,6.081-5.96,8.828-10.037c2.438-11.686-13.837-18.366-24.827-26.459c-3.783-2.187-7.566-4.373-11.35-6.559
		c-6.5-3.976-12.729-6.939-18.574-8.463c-0.189-0.109-0.379-0.219-0.567-0.328c-4.961-1.808-9.929-3.64-14.212-2.914
		c-1.509,5.736-6.13,7.743-7.214,12.483c-2.33,10.184,17.241,17.115,24.915,24.997c-0.108,0.189-0.218,0.378-0.327,0.567
		c-13.556-4.947-29.579-18.806-40.126-6.536c-7.099,8.258-12.321,21.319-19.676,34.047C106.889,89.117,98,101.191,94.629,110.331
		c-0.881,2.39,0.47,5.529-0.531,8.776c-0.902,2.931-4.103,5.465-4.262,7.377c-0.417,4.959,8.519,12.501,13.416,16.079
		c15.203,11.106,34.618,20.85,48.977,25.277c0.188,0.109,0.378,0.22,0.567,0.328C152.984,168.277,153.175,168.387,153.363,168.497z
		 M194.477,139.27c-0.051,1.292,1.05,2.277,2.749,3.102c0.896-1.359,1.697-2.693,0.504-3.493c-1.658-1.156-1.84-2.706-2.988-3.998
		C192.532,136.237,193.565,137.565,194.477,139.27z M196.706,165.538c2.942-8.304,2.727-15.762,0.191-22.599
		c-2.539,5.45-5.613,8.902-9.157,10.604c1.657,3.233,0.402,7.248-2.17,11.614C187.467,165.631,193.021,164.346,196.706,165.538z
		 M172.946,53.402c4.554,1.48,8.777,1.724,12.837,1.363C181.157,53.011,177.007,53.037,172.946,53.402z"/>
	<path fill-rule="evenodd" clip-rule="evenodd" fill="#C6B840" d="M170.945,13.641c-4.641-0.609-8.863,0.34-12.774,2.458
		c2.851,5.644,10.176,10.965,17.653,13.987c2.446-1.616,4.235-5.688,8.059-2.156c0.837-2.276,1.354-3.936,3.519-4.779
		c1.644,1.319-3.911,4.563-0.921,5.523c-0.663,0.134-3.432,2.527-1.072,3.165c-0.374,0.397-0.896,0.237-1.224,0.807
		c-2.186-1.6-2.23,2.667-1.968,3.405c0.379,0.219,0.757,0.438,1.135,0.656c-1.229,0.268-4.052,0.791-2.207,2.509
		c-0.175,0.543-0.529,0.408-0.896,0.24c-2.123-0.872,1.454-3.268,0.266-4.389c-1.513,0.323-3.463-0.988-5.195-1.489
		c-0.831,3.208-0.584,4.87-1.905,7.226c-2.742-0.537-10.362-5.048-15.081-7.958c-2.36-1.456-8.477-5.988-2.837-1.639
		c3.771,5.576,13.724,11.961,19.922,15.298c0.788-0.645,1.032-3.316,2.208-2.509c-0.109,0.189-0.219,0.378-0.328,0.567
		c-0.472,0.926-1.523,2.007-0.744,2.598c-0.702,0.364-1.645-0.167-2.119,1.046c-7.674-7.881-27.245-14.813-24.915-24.997
		c1.083-4.74,5.705-6.747,7.214-12.483C161.017,10.001,165.984,11.833,170.945,13.641z M155.989,13.324
		c2.302,0.834,4.035-0.458,5.939-1.109C159.463,10.769,157.286,10.4,155.989,13.324z"/>
	<path fill-rule="evenodd" clip-rule="evenodd" fill="#EBD6B9" d="M199.885,30.365c-0.473,0.606-0.458,1.082-0.089,1.463
		c-0.779,0.668-1.666,0.945-2.446,1.614c-4.171-1.244-7.843-0.627-11.941-1.603c-2.359-0.638,0.409-3.031,1.072-3.165
		C191.121,29.883,195.283,29.303,199.885,30.365z M185.168,30.944c4.507,0.108,9.627,2.513,13.493,0.229
		C194.197,31.223,188.995,28.512,185.168,30.944z"/>
	<path fill-rule="evenodd" clip-rule="evenodd" fill="#EBD6B9" d="M194.727,37.982c0.713,0.289,0.938,0.708,0.807,1.223
		c-0.445,1.325-1.258,1.278-1.879,1.942c-4.358-1.346-8.122-0.474-12.51-1.931c-1.845-1.719,0.978-2.242,2.207-2.509
		C187.077,36.884,190.919,37.494,194.727,37.982z M194.638,39.444c-3.98-1.105-10.796-3.329-12.03-0.14
		C186.22,37.862,191.075,41.069,194.638,39.444z"/>
	<path fill-rule="evenodd" clip-rule="evenodd" fill="#666392" d="M185.408,31.839c4.099,0.976,7.771,0.359,11.941,1.603
		c0.379,0.219,0.757,0.437,1.136,0.656c-0.766,1.324-1.53,2.648-2.296,3.972c-0.606-0.473-1.083-0.458-1.463-0.088
		c-3.808-0.488-7.649-1.098-11.375-1.275c-0.378-0.218-0.756-0.437-1.135-0.656c4.41-0.25,8.941-0.052,13.733,1.124
		c0.611-1.977,0.232-1.32,1.64-2.837c-4.564-0.324-9.484-1.976-13.494-0.229c-0.543-0.334-0.038-0.949,0.089-1.463
		C184.512,32.076,185.034,32.236,185.408,31.839z"/>
	<path fill-rule="evenodd" clip-rule="evenodd" fill="#C6B840" d="M187.335,53.391c8.69,5.94,21.219,11.355,30.101,12.097
		c-8.779,1.018-23.973-6.05-31.563-12.185C186.207,52.759,186.822,53.264,187.335,53.391z"/>
	<path fill-rule="evenodd" clip-rule="evenodd" fill="#666392" d="M181.145,39.216c4.388,1.457,8.151,0.584,12.51,1.931
		c0.036,0.63,0.06,1.263-0.416,2.03c-0.189-0.109-0.379-0.218-0.568-0.328c0.109-0.189,0.219-0.378,0.328-0.568
		c-4.646-1.83-8.639-1.21-13.076-2.258c0.109-0.189,0.218-0.378,0.327-0.567C180.615,39.624,180.97,39.759,181.145,39.216z"/>
	<path fill-rule="evenodd" clip-rule="evenodd" fill="#666392" d="M191.926,45.447c-0.109,0.189-0.218,0.378-0.327,0.567
		c-0.423-0.383-0.663-0.088-0.896,0.24c-4.69-1.394-8.878-0.907-13.405-1.691c0.109-0.189,0.219-0.378,0.328-0.567
		C182.316,44.193,187.153,44.94,191.926,45.447z"/>
	<path fill-rule="evenodd" clip-rule="evenodd" fill="#EBD6B9" d="M177.298,44.563c4.527,0.784,8.715,0.297,13.405,1.691
		c0.549,1.892-1.129,1.793-2.208,2.509c-1.575-1.108-2.484,0.275-4.06-0.833c1.351-1.524,3.692,0.655,5.044-0.87
		c-4.22-0.827-8.424-1.602-12.271-1.035c0.037,2.302,2.671-0.609,4.301,1.728c-1.642-0.156-3.035,0.611-4.956-0.593
		C175.774,46.569,176.826,45.488,177.298,44.563z"/>
	<path fill-rule="evenodd" clip-rule="evenodd" fill="#666392" d="M188.735,49.658c-5.123-0.023-11.267-3.858-15.044,1.146
		c4.945,1.754,9.15,0.733,13.972,2.02c-0.109,0.189-0.219,0.378-0.328,0.567c-0.513-0.127-1.128-0.631-1.462-0.088
		c-3.888-0.783-7.488-0.493-11.376-1.275c-0.378-0.219-0.756-0.438-1.135-0.656c-0.148-0.76,0.131-1.634,0.745-2.598
		c0.109-0.189,0.219-0.378,0.327-0.567c0.475-1.214,1.417-0.682,2.119-1.046c1.921,1.204,3.314,0.437,4.956,0.593
		c1.102,0.533,2.111,0.723,2.926,0.177c1.575,1.108,2.484-0.275,4.06,0.833c0.189,0.109,0.379,0.219,0.568,0.328
		C188.954,49.28,188.844,49.469,188.735,49.658z"/>
	<path fill-rule="evenodd" clip-rule="evenodd" fill="#666392" d="M169.339,59.644c-0.188-0.109-0.378-0.218-0.567-0.328
		c-0.445-2.196,2.084-4.135,3.519-4.779c4.146,1.15,7.819,0.534,11.942,1.602c0.189,0.109,0.379,0.219,0.567,0.329
		c0.388,1.974-1.936,4.688-3.519,4.778C177.209,60.372,173.448,60.656,169.339,59.644z M169.1,58.748
		c4.729,1.54,8.89,0.949,13.404,1.691c0.656-1.135,1.313-2.27,1.968-3.404C179.207,57.079,172.723,52.566,169.1,58.748z"/>
	<path fill-rule="evenodd" clip-rule="evenodd" fill="#666392" d="M137.257,70.625c5.778-6.498,12.542-9.307,19.963-9.658
		C149.954,61.899,143.362,65.352,137.257,70.625z"/>
	<path fill-rule="evenodd" clip-rule="evenodd" fill="#C6B840" d="M131.026,81.406c-1.827,9.443-1.357,18.272,4.916,25.549
		c0.229,1.218,1.33,2.203,2.748,3.102c-0.109,0.189-0.218,0.379-0.327,0.568c-0.946-0.546-1.892-1.092-2.837-1.639
		c-1.77,1.155-3.52,2.432-2.624,4.539c2.81,1.537,4.762-0.131,6.595-2.243c0.379,0.218,0.757,0.437,1.135,0.656
		c0.189,0.108,0.378,0.218,0.568,0.327c0.251,1.399,4.904,4.088,6.241,3.608c2.533,1.691,4.917,2.833,6.898,2.473
		c3.382,0.683,6.524,0.479,9.433-0.605c0.423,0.383,0.663,0.088,0.896-0.239c3.489-0.11,6.661-1.402,9.61-3.53
		c5.333-2.942,12.111-11.719,12.284-18.638c2.749-9.21,0.03-16.958-5.899-23.847c-0.188-0.109-0.379-0.219-0.567-0.328
		c0.067-0.978-0.603-1.758-1.613-2.447c0.331-1.528,3.58-3.836,1.16-4.627c1.168,0.306,5.164-1.342,1.64-2.838
		c1.583-0.091,3.906-2.804,3.519-4.778c-0.188-0.109-0.378-0.219-0.567-0.329c12.937,5.832,30.626,18.912,28.144,29.89
		c-3.988,17.64-23.979,36.353-32.881,58.207c10.681,6.002,8.976,15.999,2.885,25.134c4.007-5.348,10.158-2.675,15.461-3.177
		c3.127,5.191,7.911,11.005,5.357,18.235c-3.074,8.708-10.128,13.322-17.782,12.433c-0.474,0.615-0.833,1.666-1.551,1.374
		c1.829-2.137-1.924-3.697-2.838-1.64c-5.352-7.522-9.049-15.489-0.438-26.747c-3.746-0.215-8.699,3.635-14.805,2.041
		c-4.254-1.11-7.595-5.2-11.854-3.065c-0.189-0.108-0.379-0.218-0.567-0.327c-0.188-0.11-0.379-0.22-0.567-0.328
		c0.845-1.456,6.645-0.037,3.998-2.988c0.754-2.51-3.29-3.214-3.821,0.063c-1.704-0.849-2.926,1.906-0.744,2.598
		c-14.359-4.427-33.774-14.171-48.977-25.277c-4.897-3.578-13.833-11.12-13.416-16.079c0.16-1.913,3.36-4.446,4.262-7.377
		c1.001-3.248-0.35-6.386,0.531-8.776c3.37-9.14,12.26-21.214,19.676-34.046c7.355-12.728,12.577-25.789,19.676-34.047
		c10.548-12.27,26.571,1.589,40.126,6.536c-0.614,0.964-0.894,1.838-0.745,2.598c0.379,0.219,0.757,0.437,1.135,0.656
		c-1.088,0.712-2.721-0.608-3.342,1.853c0.379,0.219,0.757,0.438,1.135,0.656c-1.435,0.644-3.964,2.583-3.519,4.779
		c0.189,0.109,0.379,0.219,0.567,0.328c-1.035,0.313-2.214,0.093-2.774,2.182c-0.601,0.743-1.808-0.781-2.358,0.151
		c-2.632-1.472-4.614-0.516-6.986-1.009c-7.421,0.351-14.185,3.16-19.963,9.658c-2.813,2.938-4.327,6.418-5.903,10.214
		c-0.188-0.109-0.378-0.219-0.567-0.329c-1.508,0.943-3.28,0.893-4.326,3.557c0.942,0.867,0.09,2.215,2.182,2.774
		C131.17,86.023,128.864,83.59,131.026,81.406z M191.846,95.359c-2.134-1.4-4.063-2.037-5.044,0.87
		C188.788,97.08,190.909,98.437,191.846,95.359z M188.695,74.614c1.955,3.205,4.757,0.276,8.032,3.128
		C197.473,74.36,190.372,71.329,188.695,74.614z M194.469,90.819c1.865,2.811,5.704-2.15,3.431-3.316
		C196.992,89.49,195.968,91.043,194.469,90.819z M194.365,111.955c-3.516,3.612-10.589,3.43-12.951,5.384
		c3.854,1.252,6.473-2.105,10.328-0.845C193.498,116.146,197.994,106.445,194.365,111.955z M178.021,129.759
		c3.164-2.634,0.253-5.575-0.365-8.538C176.137,124.506,178.52,126.748,178.021,129.759z M160.795,128.131
		c0.877-2.746,0.083-6.12,3.128-8.032C160.185,115.713,152.934,129.695,160.795,128.131z M176.86,134.387
		c1.642-0.431,2.139-3.007,1.729-4.3C178.247,131.458,175.732,133.409,176.86,134.387z M140.024,136.565
		c4.073-0.821,2.111-5.619,5.247-9.079C141.292,125.807,136.288,134.014,140.024,136.565z M170.125,148.662
		c0.566,0.488,0.519,1.141,0.479,1.791c4.273,2.825,6.584-1.688,10.806,0.947c0.328-0.567,0.657-1.135,0.984-1.702
		C179.182,145.847,172.287,142.712,170.125,148.662z M157.792,143.805c2.506-2.166,3.094-4.839,1.905-7.226
		C159.286,138.929,158.22,141.453,157.792,143.805z M154.664,151.838c1.602,1.085,4.451-2.329,3.758-3.883
		C157.293,149.709,155.692,149.707,154.664,151.838z M181.459,174.893c1.652,1.394,2.863,1.14,4.301,1.729
		c1.712-4.357,4.229-5.706,6.62-7.527C188.99,164.957,180.957,169.519,181.459,174.893z"/>
	<path fill-rule="evenodd" clip-rule="evenodd" fill="#666392" d="M135.942,106.955c1.982,1.548,3.572,3.202,4.69,4.982
		c-0.378-0.219-0.756-0.438-1.135-0.656c-0.378-0.219-0.756-0.438-1.134-0.657c0.108-0.189,0.218-0.378,0.327-0.568
		C137.272,109.158,136.171,108.173,135.942,106.955z"/>
	<path fill-rule="evenodd" clip-rule="evenodd" fill="#666392" d="M154.339,118.345c3.105-0.347,6.316-0.302,9.433-0.605
		C160.863,118.824,157.721,119.028,154.339,118.345z"/>
	<path fill-rule="evenodd" clip-rule="evenodd" fill="#666392" d="M174.277,113.971c-2.949,2.127-6.121,3.419-9.61,3.53
		C167.916,116.495,171.097,115.235,174.277,113.971z"/>
	<path fill-rule="evenodd" clip-rule="evenodd" fill="#483646" d="M186.562,95.333c-0.173,6.919-6.951,15.696-12.284,18.638
		c-3.181,1.264-6.361,2.524-9.61,3.53c-0.232,0.327-0.473,0.622-0.896,0.239c-3.116,0.303-6.327,0.258-9.433,0.605
		c-1.981,0.361-4.365-0.781-6.898-2.473c-2.08-1.203-4.16-2.405-6.241-3.608c-0.189-0.109-0.378-0.219-0.568-0.327
		c-1.118-1.78-2.708-3.434-4.69-4.982c-6.273-7.276-6.743-16.105-4.916-25.549c0.11-0.19,0.218-0.378,0.328-0.568
		c1.576-3.796,3.09-7.275,5.903-10.214c6.105-5.273,12.697-8.726,19.963-9.658c2.372,0.494,4.354-0.463,6.986,1.009
		c2.844,1.662,5.448,2.435,7.554,1.338c1.222,0.384,1.964-1.028,3.493,0.504c1.939,1.869,2.689-0.708,4.628,1.161
		c-2.1,2.64-2.186,4.743,0.214,6.179c0.188,0.109,0.379,0.219,0.567,0.328C185.809,78.584,188.225,86.414,186.562,95.333z
		 M182.476,99.784c5.123-11.444,1.88-20.651-5.307-28.803c-2.032,0.171-2.683,5.512-4.742,5.586
		c-3.215-1.858-6.43-3.716-9.646-5.575c0.453-2.04,4.541-5.052,2.146-6.33c-24.15-9.172-44.916,29.002-22.742,45.9
		c12.452,9.489,27.675,7.037,37.012-5.104C180.289,103.567,181.382,101.676,182.476,99.784z"/>
	<path fill-rule="evenodd" clip-rule="evenodd" fill="#666392" d="M180.662,71.486c5.93,6.889,8.648,14.637,5.899,23.847
		C188.225,86.414,185.809,78.584,180.662,71.486z"/>
	<path fill-rule="evenodd" clip-rule="evenodd" fill="#666392" d="M179.642,64.084c2.42,0.792-0.829,3.1-1.16,4.627
		c1.011,0.689,1.681,1.469,1.613,2.447c-2.399-1.437-2.313-3.539-0.214-6.179c-1.938-1.869-2.688,0.708-4.628-1.161
		C176.573,63.372,178.046,63.499,179.642,64.084z"/>
	<path fill-rule="evenodd" clip-rule="evenodd" fill="#483646" d="M181.027,196.596c0.914-2.058,4.667-0.497,2.838,1.64
		c-2.086,1.288-1.034,3.185-3.431,3.316C178.561,200.454,181.712,198.011,181.027,196.596z"/>
	<path fill-rule="evenodd" clip-rule="evenodd" fill="#483646" d="M156.794,165.181c2.646,2.951-3.153,1.532-3.998,2.988
		c-0.189-0.108-0.379-0.219-0.567-0.328c-2.182-0.691-0.96-3.446,0.744-2.598C153.074,167.783,155.887,165.542,156.794,165.181z"/>
	<path fill-rule="evenodd" clip-rule="evenodd" fill="#EBD6B9" d="M169.339,59.644c4.109,1.013,7.87,0.729,11.942,1.603
		c3.524,1.496-0.472,3.144-1.64,2.838c-1.596-0.585-3.068-0.712-4.389-0.266c-1.529-1.533-2.271-0.121-3.493-0.504
		c-1.878-1.043-3.102,0.36-5.195-1.489C167.125,59.736,168.304,59.957,169.339,59.644z M168.027,61.914
		c3.768-0.288,10.972,2.789,12.358-0.428C176.587,62.827,171.483,59.289,168.027,61.914z"/>
	<path fill-rule="evenodd" clip-rule="evenodd" fill="#666392" d="M182.563,98.322c3.815-10.294,0.731-18.745-5.155-26.445
		c-2.059,0.073-2.709,5.415-4.742,5.586c-3.404-1.968-6.809-3.935-10.214-5.903c-0.788-1.708,0.685-4.021,2.145-6.33
		c-20.271-8.946-41.058,23.621-27.015,38.889c0.189,0.109,0.377,0.219,0.567,0.328c10.226,14.444,30.623,14.101,39.824,1.819
		c0.289-0.713,0.709-0.938,1.224-0.807c-9.337,12.141-24.561,14.593-37.012,5.104c-22.174-16.898-1.408-55.072,22.742-45.9
		c2.396,1.278-1.692,4.29-2.146,6.33c3.217,1.858,6.432,3.716,9.646,5.575c2.06-0.074,2.71-5.415,4.742-5.586
		c7.187,8.152,10.43,17.358,5.307,28.803C181.933,99.45,182.437,98.836,182.563,98.322z"/>
	<path fill-rule="evenodd" clip-rule="evenodd" fill="#EBD6B9" d="M137.582,104.119c-14.043-15.268,6.745-47.835,27.015-38.889
		c-1.46,2.309-2.933,4.623-2.145,6.33c3.405,1.968,6.81,3.935,10.214,5.903c2.033-0.171,2.684-5.513,4.742-5.586
		c5.887,7.7,8.971,16.15,5.155,26.445c1.687-9.085,0.7-17.457-4.676-24.654c-2.45-0.792-3.179,4.854-5.549,4.362
		c-3.489-2.424-8.983-4.313-11.021-7.126c-0.405-1.49,1.474-3.592,2.384-5.435c-11.275-2.178-23.757,3.058-28.943,17.336
		C131.966,90.496,135.615,97.676,137.582,104.119z"/>
	<path fill-rule="evenodd" clip-rule="evenodd" fill="#EBD6B9" d="M177.973,106.266c-9.201,12.282-29.599,12.625-39.824-1.819
		c13.014,13.486,29.743,12.747,39.257,1.491C177.594,106.047,177.784,106.156,177.973,106.266z"/>
	<path fill-rule="evenodd" clip-rule="evenodd" fill="#C6B840" d="M157.028,83.565c0.826,1.044-0.584,1.921,1.374,1.551
		c-0.9,2.16-0.63,4.007-2.144,6.331C154.95,89.238,158.323,85.777,157.028,83.565z"/>
	<path fill-rule="evenodd" clip-rule="evenodd" fill="#EBD6B9" d="M161.705,108.219c-2.717-2.791,3.133-7.874,4.528-11.766
		c-0.702,0.49-5.342-0.674-1.765-4.805c-3.953,1.962-5.451,13.1-10.141,12.308c2.661-6.664,8.271-16.559,12.789-22.131
		c3.269,2.164-0.823,6.296,0.037,9.104c2.393-1.219,4.096-5.014,6.772-5.169C175.125,91.769,165.973,101.454,161.705,108.219z
		 M172.703,86.567c-1.034,2.708-2.812,2.639-3.846,5.347C171.192,93.2,175.283,88.061,172.703,86.567z M165.426,95.23
		c2.313-0.61,0.915-2.68-0.063-3.821C164.313,92.969,163.503,94.466,165.426,95.23z M166.461,82.96
		c-1.524,2.327-2.552,4.521-1.248,6.091C167.022,88.217,168.205,84.344,166.461,82.96z M162.688,106.516
		c1.601-3.626,5.552-7.881,5.663-11.109C166.751,99.034,162.801,103.289,162.688,106.516z M161.542,91.472
		c-2.076,3.594-4.153,7.187-6.229,10.781C156.626,102.883,162.238,91.871,161.542,91.472z"/>
	<path fill-rule="evenodd" clip-rule="evenodd" fill="#666392" d="M158.402,85.116c-1.958,0.371-0.548-0.507-1.374-1.551
		c0.905-2.594,2.554-2.409,3.52-4.779C162.356,80.221,159.238,82.974,158.402,85.116z"/>
	<path fill-rule="evenodd" clip-rule="evenodd" fill="#666392" d="M168.857,91.915c1.034-2.708,2.812-2.639,3.846-5.347
		C175.283,88.061,171.192,93.2,168.857,91.915z"/>
	<path fill-rule="evenodd" clip-rule="evenodd" fill="#666392" d="M191.742,116.494c-3.855-1.26-6.475,2.097-10.328,0.845
		c2.362-1.955,9.436-1.772,12.951-5.384C197.994,106.445,193.498,116.146,191.742,116.494z"/>
	<path fill-rule="evenodd" clip-rule="evenodd" fill="#483646" d="M194.477,139.27c-0.911-1.705-1.944-3.033,0.265-4.389
		c1.148,1.292,1.33,2.842,2.988,3.998c-0.388,0.743,0.274,1.207-0.416,2.03C196.368,140.362,195.423,139.816,194.477,139.27z"/>
	<path fill-rule="evenodd" clip-rule="evenodd" fill="#C6B840" d="M194.477,139.27c0.946,0.546,1.892,1.092,2.837,1.639
		c0.69-0.824,0.028-1.287,0.416-2.03c1.193,0.8,0.393,2.134-0.504,3.493C195.526,141.547,194.426,140.562,194.477,139.27z"/>
	<path fill-rule="evenodd" clip-rule="evenodd" fill="#EBD6B9" d="M182.395,149.697c-0.327,0.567-0.656,1.135-0.984,1.702
		c-4.222-2.635-6.532,1.878-10.806-0.947c0.039-0.65,0.087-1.303-0.479-1.791C172.287,142.712,179.182,145.847,182.395,149.697z
		 M171.26,149.318c4.242,2.71,6.82-0.805,10.567,0.051C177.606,146.739,173.379,144.089,171.26,149.318z"/>
	<path fill-rule="evenodd" clip-rule="evenodd" fill="#CB372A" d="M152.973,165.243c0.531-3.276,4.575-2.572,3.821-0.063
		C155.887,165.542,153.074,167.783,152.973,165.243z"/>
	<path fill-rule="evenodd" clip-rule="evenodd" fill="#483646" d="M187.464,26.972c0.765-1.324,1.53-2.648,2.296-3.972
		c3.783,2.187,7.565,4.373,11.348,6.559c2.182,0.95,0.18,1.485-0.895,0.239C195.785,27.277,190.397,29.781,187.464,26.972z"/>
	<path fill-rule="evenodd" clip-rule="evenodd" fill="#C6B840" d="M194.727,37.982c0.38-0.371,0.856-0.385,1.463,0.088
		c0.766-1.324,1.53-2.648,2.296-3.972c-0.379-0.219-0.757-0.437-1.136-0.656c0.78-0.668,1.667-0.945,2.446-1.614
		c-0.369-0.381-0.384-0.856,0.089-1.463c0.11-0.189,0.219-0.378,0.328-0.567c1.074,1.246,3.076,0.71,0.895-0.239
		c0.109-0.189,0.219-0.378,0.329-0.567c10.99,8.093,27.266,14.773,24.827,26.459c-8.463-2.733-23.229-4.583-33.025-12.273
		c0.476-0.767,0.452-1.4,0.416-2.03c0.621-0.664,1.434-0.617,1.879-1.942C195.664,38.69,195.439,38.271,194.727,37.982z"/>
	<path fill-rule="evenodd" clip-rule="evenodd" fill="#483646" d="M184.185,32.646c-0.127,0.514-0.632,1.128-0.089,1.463
		c4.01-1.747,8.93-0.095,13.494,0.229c-1.407,1.517-1.028,0.86-1.64,2.837c-4.792-1.175-9.323-1.374-13.733-1.124
		C181.954,35.313,181.999,31.046,184.185,32.646z"/>
	<path fill-rule="evenodd" clip-rule="evenodd" fill="#FFFFFF" d="M184.436,47.93c-0.814,0.546-1.824,0.356-2.926-0.177
		c-1.63-2.337-4.264,0.574-4.301-1.728c3.847-0.567,8.051,0.208,12.271,1.035C188.128,48.585,185.786,46.406,184.436,47.93z"/>
	<path fill-rule="evenodd" clip-rule="evenodd" fill="#FFFFFF" d="M182.476,99.784c-1.094,1.892-2.187,3.783-3.279,5.675
		c-0.515-0.131-0.935,0.094-1.224,0.807c-0.188-0.109-0.379-0.219-0.567-0.328c-9.514,11.256-26.243,11.995-39.257-1.491
		c-0.189-0.109-0.378-0.219-0.567-0.328c-1.966-6.442-5.616-13.623-2.823-21.313c5.186-14.279,17.667-19.515,28.943-17.336
		c-0.91,1.842-2.789,3.945-2.384,5.435c2.038,2.813,7.532,4.702,11.021,7.126c2.37,0.492,3.099-5.154,5.549-4.362
		c5.376,7.197,6.362,15.569,4.676,24.654C182.437,98.836,181.933,99.45,182.476,99.784z M146.056,99.933
		c2.217-1.277,3.547-5.871,6.444-4.603c0.09,2.233-4.45,7.661-0.441,7.314c3.638-6.572,9.728-17.951,9.146-24.993
		C155.847,84.499,145.573,91.984,146.056,99.933z M142.349,93.249c-3.071-1.098,0.206-3.894-3.227-4.894
		c-2.429,3.528-0.558,5.906,1.26,8.298c7.194,1.092,12.41-14.445,15.954-21.058c-0.567-0.328-1.135-0.655-1.702-0.983
		C149.996,78.793,146.991,89.079,142.349,93.249z M173.927,85.761c-2.677,0.155-4.38,3.95-6.772,5.169
		c-0.86-2.808,3.231-6.94-0.037-9.104c-4.518,5.572-10.128,15.467-12.789,22.131c4.689,0.792,6.188-10.346,10.141-12.308
		c-3.577,4.131,1.063,5.295,1.765,4.805c-1.396,3.892-7.245,8.975-4.528,11.766C165.973,101.454,175.125,91.769,173.927,85.761z"/>
	<path fill-rule="evenodd" clip-rule="evenodd" fill="#EBD6B9" d="M154.634,74.611c0.567,0.328,1.135,0.656,1.702,0.983
		c-3.544,6.613-8.76,22.15-15.954,21.058c-1.818-2.392-3.688-4.77-1.26-8.298c3.433,1,0.156,3.796,3.227,4.894
		C146.991,89.079,149.996,78.793,154.634,74.611z"/>
	<path fill-rule="evenodd" clip-rule="evenodd" fill="#EBD6B9" d="M161.204,77.651c0.582,7.042-5.508,18.421-9.146,24.993
		c-4.009,0.346,0.531-5.081,0.441-7.314c-2.897-1.268-4.228,3.326-6.444,4.603C145.573,91.984,155.847,84.499,161.204,77.651z
		 M158.402,85.116c0.836-2.142,3.954-4.895,2.146-6.33c-0.966,2.371-2.614,2.185-3.52,4.779c1.295,2.212-2.078,5.673-0.77,7.882
		C157.772,89.123,157.502,87.276,158.402,85.116z M154.822,86.074c-0.579,3.946-6.202,5.705-4.264,7.376
		C151.878,94.635,155.723,85.745,154.822,86.074z"/>
</g>
</svg>
