<?xml version="1.0" encoding="utf-8"?>
<!-- Generator: Adobe Illustrator 15.1.0, SVG Export Plug-In . SVG Version: 6.00 Build 0)  -->
<!DOCTYPE svg PUBLIC "-//W3C//DTD SVG 1.1//EN" "http://www.w3.org/Graphics/SVG/1.1/DTD/svg11.dtd">
<svg version="1.1" id="Layer_1" xmlns="http://www.w3.org/2000/svg" xmlns:xlink="http://www.w3.org/1999/xlink" x="0px" y="0px"
	 width="300.001px" height="300px" viewBox="0 0 300.001 300" enable-background="new 0 0 300.001 300" xml:space="preserve">
<path fill-rule="evenodd" clip-rule="evenodd" fill="#2E3192" d="M-144.909,29.403c5.451,4.885,5.672,15.003,10.337,20.673
	c-12.112,14.462,3.858,37.705,1.724,58.576c3.261,3.057,11.379,1.254,17.229,1.722c0.317,7.778,3.227,9.719-3.446,12.06
	c1.938,10.696,3.426,21.842,5.169,32.734c-10.911,0-21.823,0-32.734,0c-4.726-9.057,0.251-27.816-12.06-29.288
	c0-3.446,0-6.892,0-10.337c6.203,0.46,8.303-3.183,13.782-3.446c-0.176-19.348-5.915-33.134-6.891-51.685
	c-1.191-3.402-4.595-4.593-8.614-5.168c2.486-5.554,1.628-14.451,1.723-22.396C-155.464,30.333-147.274,32.781-144.909,29.403z"/>
<path fill-rule="evenodd" clip-rule="evenodd" fill="#939598" d="M-62.214,43.186c-1.604,8.732-6.156,14.519-8.614,22.397
	c2.546,6.068,6.791,10.438,10.337,15.505c2.793-3.523,12.713,0.078,15.506-3.445c5.693-5.217,8.14-13.683,10.337-22.397
	c22.399,13.381,5.195,53.133-20.674,49.962c-9.285,14.834-14.284,33.955-22.396,49.962c-9.764,0-19.524,0-29.288,0
	c9.131-19.009,15.771-40.508,25.843-58.576C-97.142,80.87-93.835,39.951-62.214,43.186z"/>
<path fill-rule="evenodd" clip-rule="evenodd" fill="#F7941E" d="M-208.652,60.414c0,8.04,0,16.08,0,24.12
	c4.644,3.97,16.616,0.611,24.119,1.723c0-8.614,0-17.228,0-25.842c21.618-3.241,11.438,25.315,13.782,41.348
	c-3.984,2.333-5.708,6.927-13.782,5.168c0,16.08,0,32.159,0,48.239c-4.594,0-9.188,0-13.783,0
	c-1.138-15.516,2.283-35.592-1.723-48.239c-8.992,7.167,0.981,36.524-5.168,48.239c-6.389-2.834-3.316-14.465-3.445-22.397
	c-0.14-8.555,0.108-17.175,0-24.119c-2.038-3.131-8.983-1.354-12.06-3.446C-221.113,92.138-231.039,56.272-208.652,60.414z"/>
<path fill-rule="evenodd" clip-rule="evenodd" fill="#00A651" d="M-234.495,89.702c-9.889-1.773-23.098-2.871-32.734,0
	c4.487,15.039,10.041,29.009,15.506,43.07c8.033,4.027,12.833,11.286,13.782,22.397c-10.981,0.644-21.776,1.102-24.12-6.892
	c-6.045,0.474,4.323,6.419-1.723,6.892c-8.634,0.934-5.288-13.583-1.723-15.506c-5.182-14.344-10.506-28.544-15.505-43.07
	c-12.357,1.426-13.1,14.465-29.288,12.06c-1.15-9.188-7.266-13.409-6.892-24.12c6.844-6.08,17.878-3.826,25.842-5.169
	C-280.297,57.699-237.926,68.686-234.495,89.702z"/>
<path fill-rule="evenodd" clip-rule="evenodd" fill="#ED1C24" d="M-251.723,118.989c9.209-3.999,25.826-0.591,37.901-1.723
	c0,4.02,0,8.04,0,12.06c-11.485,0-22.971,0-34.456,0C-248.459,124.914-249.252,121.113-251.723,118.989z"/>
<path fill-rule="evenodd" clip-rule="evenodd" fill="#ED1C24" d="M-179.365,117.267c5.391,0.352,12.647-1.162,15.505,1.723
	c0,3.445,0,6.892,0,10.337c-5.169,0-10.337,0-15.505,0C-179.365,125.306-179.365,121.287-179.365,117.267z"/>
<path fill-rule="evenodd" clip-rule="evenodd" fill="#ED1C24" d="M-108.729,117.267c3.445,0,6.892,0,10.337,0
	c0.173,5.342-2.106,8.23-3.445,12.06c-3.446,0-6.892,0-10.338,0C-111.512,124.821-106.652,124.514-108.729,117.267z"/>
<path fill-rule="evenodd" clip-rule="evenodd" fill="#ED1C24" d="M-281.011,120.712c5.438,0.878,4.766,7.868,6.891,12.06
	c-5.851,6.783-10.229,15.04-15.505,22.397c-4.594,0-9.189,0-13.783,0C-296.489,143.136-287.563,133.111-281.011,120.712z"/>
<path fill-rule="evenodd" clip-rule="evenodd" fill="#ED1C24" d="M-57.045,120.712c10.735,9.363,16.592,23.606,27.564,32.734
	c-1.832,3.909-10.829,0.655-15.505,1.723c-4.65-8.559-10.76-15.657-17.229-22.397C-59.899,129.345-58.93,124.57-57.045,120.712z"/>
<path fill-rule="evenodd" clip-rule="evenodd" fill="#C49A6C" d="M-305.13,160.337c92.458,0,184.917,0,277.374,0
	c0,10.337,0,20.673,0,31.011c-93.032,0-186.064,0-279.096,0C-305.728,181.561-309.118,167.26-305.13,160.337z"/>
<path fill-rule="evenodd" clip-rule="evenodd" fill="#A97C50" d="M-305.13,199.962c92.458,0,184.917,0,277.374,0
	c0,10.336,0,20.673,0,31.01c-93.032,0-186.064,0-279.096,0C-305.728,221.186-309.118,206.885-305.13,199.962z"/>
<path fill-rule="evenodd" clip-rule="evenodd" fill="#754C29" d="M-305.13,239.587c92.458,0,184.917,0,277.374,0
	c0,10.336,0,20.673,0,31.01c-93.032,0-186.064,0-279.096,0C-305.728,260.811-309.118,246.51-305.13,239.587z"/>
<path fill-rule="evenodd" clip-rule="evenodd" fill="#FFF200" d="M144.593,134.076C121.339,144.724,141.042,110.302,144.593,134.076
	C143.033,134.788,144.36,132.52,144.593,134.076z M135.662,133.031c0.475-0.167,0.696-0.591,0.743-1.188
	c-0.2-0.345-0.86-0.231-1.19-0.447C135.063,132.24,135.355,132.641,135.662,133.031
	C136.137,132.865,135.355,132.641,135.662,133.031z"/>
<path fill-rule="evenodd" clip-rule="evenodd" fill="#FFF200" d="M113.928,143.009c-1.993-7.589,4.099-10.333,11.017-8.785
	C127.102,141.673,119.238,144.246,113.928,143.009C113.42,141.071,115.615,143.402,113.928,143.009z"/>
<path fill-rule="evenodd" clip-rule="evenodd" fill="#FFF200" d="M111.696,151.192c2.371,1.215-0.508,9.839-1.043,11.016
	C100.857,171.447,98.524,151.192,111.696,151.192C112.532,151.62,111.596,151.192,111.696,151.192z"/>
<path fill-rule="evenodd" clip-rule="evenodd" fill="#EF4136" d="M97.703,156.552c2.448,2.146-0.404,13.317,8.187,9.976
	c-1.459,2.271-8.279,7.044-10.569,9.375C97.051,169.131,95.955,163.219,97.703,156.552
	C98.478,157.229,97.537,157.181,97.703,156.552z"/>
<path fill-rule="evenodd" clip-rule="evenodd" fill="#FFF200" d="M177.935,174.116c-3.313-1.359-7.953-5.272-6.251-9.523
	c5.694-4.619,16.459,2.938,10.567,8.335C180.872,173.529,179.432,173.931,177.935,174.116
	C177.007,173.737,178.601,173.893,177.935,174.116z"/>
<path fill-rule="evenodd" clip-rule="evenodd" fill="#FFF200" d="M99.638,180.222c-0.019-4.618,0.917-8.646,6.849-9.081
	C116.134,176.558,112.701,188.817,99.638,180.222C99.632,178.935,101.145,181.213,99.638,180.222z"/>
<path fill-rule="evenodd" clip-rule="evenodd" fill="#FFF200" d="M120.031,187.364c0.736-1.253,7.246,12.835,4.466,7.146
	c-0.216,4.372-3.518,2.88-5.21,6.4C108.224,200.404,109.808,186.517,120.031,187.364
	C119.668,187.985,118.354,187.225,120.031,187.364z M113.184,193.765c0.513-0.038,1.487-1.021,0.744-1.336
	C113.88,193.034,112.621,193.02,113.184,193.765z M112.737,193.023C112.287,193.522,113.288,193.474,112.737,193.023
	L112.737,193.023z"/>
<path fill-rule="evenodd" clip-rule="evenodd" d="M231.67,119.784c-0.113-0.269-0.158,0.091-0.149,0.299
	c-0.706-0.757-1.854-1.745-1.635-3.126c-1.176-0.708-3.426-1.208-3.426-3.125c-3.388-2.58-7.888-3.399-13.545-3.871
	c0.557,8.354,2.337,16.458,2.827,24.562c0.205-0.045,0.127-0.375,0.151-0.594c1.119,6.734,4.999,10.599,7.887,15.924
	c-2.419,13.76,35.757,19.453,42.575,23.817c0.377-0.167-0.063-1.151,0.295-1.341c0.956,2.479,2.992,3.123,6.103,1.935
	c0.279,10.296,5.111,23.506,1.936,33.941c0.078,0.587,0.222-0.59,0.299,0c0.659,5.924,4.624,34.975,2.681,38.404
	c-22.142,8.638-50.576-5.147-73.237-4.315c-9.945,0.364-20.631-0.628-30.515,0.443c-2.863,0.311-11.527,3.335-13.696,2.385
	c-9.506-1.071-84.413,2.892-84.4,2.827c-5.536-1.566-15.972,2.483-22.177,3.127c-8.274,0.852-17.612-2.056-25.304-0.299
	c0.063-0.712-0.678-0.613-0.597-1.341c-0.038-0.188-0.297-0.151-0.299,0c1.037-9.405-0.396-20.75-1.487-30.368
	c-1.047-9.235-1.48-37.174,4.018-44.206c18.054,1.578,43.166-13.578,45.698-32.898c2.881-12.165,3.194-22.362,4.317-34.83
	c-1.935-3.702-6.958-0.542-9.229,1.19c-6.087,4.635-3.484,9.234-2.233,15.925c0.232,1.181,4.917,3.331,3.87,5.36
	c0.946,0.099,1.931,0.428,2.83,0.147c6.854,7.146-8.274,18.029-9.975,23.521c-0.251,0.053-0.28-0.118-0.299-0.3
	c-1.631,0.012-4.04,5.647-6.698,5.508c-3.879,3.653-16.731,13.2-22.625,13.396c-1.598-5.636-18.516-13.832-22.624-19.498
	c-0.307,0.662,0.064-0.341,0.297-0.447c-0.539,0.201-0.501-0.348-1.192-0.299c0.484-2.052-4.449-13.49-5.686-16.382
	c-3.945-9.232-0.588-24.914,3.006-33.78c4.162-10.26,11.763-24.308,22.164-28.179c37.64-14.009,76.875-31.071,118.355-21.984
	c9.459,2.074,19.752,1.896,29.323,2.978c3.737,0.421,15.532,3.452,18.605,2.381c16.104,0.554,33.105,11.339,48.038,16.197
	c39.904,12.979,64.911,52.596,38.595,92.466c0.028,0.62,0.786-0.417,0.896,0.446c-0.008,2.169-3.543,7.714-6.4,7.593
	c-0.266-0.779-1.069-1.018-1.045-2.085c-21.274,0.022-51.234-9.898-56.267-32.152C232.315,134.757,229.783,128.443,231.67,119.784
	C231.557,119.515,231.504,120.556,231.67,119.784z M222.739,149.405c0-0.246,0-0.496,0-0.741
	C222.281,148.437,222.281,149.633,222.739,149.405z M178.53,96.713c6.176,1.533,31.5-4.398,34.088,1.488
	c-0.454,2.373-0.542,3.694-0.447,6.105c6.081,6.298,22.626,2.661,22.775,16.522c7.162,5.689-6.993,18.736-8.634,22.923
	c8.99,8.41,15.76,17.557,29.026,18.903c19.363,1.965,25.221,8.593,32.895-15.331c4.325-13.501,4.789-51.333-14.588-55.819
	c-0.026-7.159-36.513-19.692-42.42-21.881c-0.396,0.356,0.783,0.396,0.597,1.041c-17.891-9.758-39.037-11.938-58.948-12.503
	c-27.38-0.78-58.984-10.99-85.741-0.893c-0.003-0.222,0.611-0.665,0-0.595c-2.831,0.246-5.771,1.001-7.888,1.488
	c-0.371,0.484,0.42,0.472-0.147,0.894c-17.929,1.835-43.732,13.078-55.023,27.369c-11.751,14.867-13.466,27.642-15.684,46.76
	c6.66,9.776,8.769,28.916,23.072,31.259c0.078-0.678-1.398-0.575-0.893-1.188c13.872,3.475,38.006-12.655,40.784-27.985
	c1.404-7.737-12.29-10.871-9.524-19.652c2.099-6.669,19.336-13.505,19.352-16.522c-0.553,0.072-1.545,0.203-1.341-1.188
	c0.389,0.753,0.96-0.076,1.488,0c-0.038-0.335,0.036-1.601-0.147-2.234c3.697-1.589,18.396-2.35,21.436-0.744
	c6.045-5.066,10.71,1.54,12.802,5.209c7.619,0.286,16.063-0.571,23.962,0c9.724,0.706,27.634,4.325,37.066,1.489
	C179.698,94.953,175.181,99.465,178.53,96.713C180.154,97.116,177.527,97.538,178.53,96.713z M150.993,56.077
	c0.191-0.198,0.195-0.555-0.151-0.595C150.869,55.704,150.789,56.03,150.993,56.077z M173.47,57.565
	c0.339,0.042,0.561-0.036,0.597-0.298C173.89,57.08,173.447,57.148,173.47,57.565z M63.319,62.924
	c0.521-0.621,1.875-0.407,2.231-1.191C64.897,62.149,62.984,62.008,63.319,62.924z M57.214,64.263
	c-0.021,0.37-0.028,0.723,0.301,0.745c-0.072-0.895,0.666-0.057,1.039-0.447c-0.01-0.436-0.339-0.553-0.597-0.744
	C58.148,64.402,57.609,64.26,57.214,64.263C57.192,64.633,57.609,64.26,57.214,64.263z M74.037,153.13
	c-1.67,2.317-11.188,11.72-11.167,12.95c-2.383,1.549-14.187,6.942-15.48,9.376c6.209,1.049,26.721,3.388,32.152-0.299
	c-0.009,11.063,11.587,19.777,11.164,29.622c0.722,1.741,5.459,4.402,6.85,6.549c-0.153,0.894-0.922,1.166-1.788,1.34
	c2.98,8.573,28.868,10.443,36.917,12.653c7.652,2.086,39.766-0.049,43.017-10.416c-8.39-6.613-6.52-3.672-17.116-0.3
	c-7.711,2.453-16.53,2.832-24.413,1.935c-8.242-0.938-39.082-5.072-38.404-17.415c-0.256-0.057-0.381,0.219-0.447,0
	c-1.171-6.908-4.143-13.214-5.357-20.096c-0.817,0.167-0.875-0.511-1.192-0.446c-0.123-13.423,10.894-27.235,10.867-39.446
	c0.374,0.17,0.501,0.594,1.042,0.594c1.037-4.766,11.386-15.939,16.374-17.116c-0.56-6.995-7.695-13.399-8.337-19.204
	c-0.168-0.933-1.065-4.811-1.039-5.952c-4.748-0.371-10.06,1.606-15.185,1.34c-0.176-0.027-0.161-0.237-0.151-0.449
	c-6.83,6.509-7.782-1.887-7.143,10.271c0.189,3.698-0.01,7.226-0.447,11.163c-0.196,0-0.136-0.261-0.297-0.295
	C84.645,131.055,80.748,143.788,74.037,153.13C73.217,154.266,74.614,152.32,74.037,153.13z M181.805,104.753
	c1.868,4.372-6.047,14.02-5.357,15.33c0.091-0.007,0.176-0.022,0.149-0.147c-0.966,0.969-1.957,1.912-2.979,2.828
	c0.397-0.064,0.506-0.564,0.597,0.147c-0.401,0.439-1.265,0.424-1.487,1.044c0.535,0.314-0.441,1.223,0.295,1.34
	c0.017-0.235-0.018-0.519,0.301-0.451c0-0.004,0.702,1.862,1.19,1.791c-0.151-0.004-0.188-0.261,0-0.299
	c0.821,0.318,1.188,1.885,1.935,1.787c-0.141-0.007-0.076-1.06,0.446-0.893c0.161,0.48,0.265,1.022,0.744,1.188
	c0.194-0.371-0.438-0.617,0-0.742c14.837,13.823,11.459,30.962,12.207,49.121c-0.629,4.606-6.864,11.704-5.954,16.375
	c8.327,1.657,12.72-9.21,13.246-15.928c1.788-3.476,30.563,0.571,33.726,0.646c6.969,0.163,28.867,3.982,34.004,0.394
	c-3.437-3.142-12.675-5.598-17.118-6.994c-4.751-1.492-18.818-12.928-21.884-12.208c0.537-6.128-11.352-19.687-13.097-27.685
	c-1.271-5.807-2.893-29.527-6.997-32.302c-0.428,0.019-0.076,0.818-0.595,0.746c-4.451,0.692-19.681-3.288-23.519,0.744
	C182.775,102.126,182.825,103.515,181.805,104.753C182.83,107.152,181.748,104.147,181.805,104.753z M110.057,101.327
	c-0.136-0.257,0.006-0.799-0.444-0.744C109.663,100.93,109.766,101.225,110.057,101.327z M145.933,104.454
	c-0.002,0.369-1.943-0.598-1.639-0.447c-0.059,0.256,0.222,0.382,0,0.447c-0.646-0.197-0.831-0.083-1.34,0.148
	c-0.734-1.773-23.377-0.691-26.197-0.445c-1.856,1.904-1.862,5.931-0.299,7.888c0.836,0.005,1.604,0.017,1.936,0.149
	c-0.188,0.73-1.156-0.134-1.487,0.297c1.834,2.98,4.461,5.165,7.292,7.144c0.093,0.64-0.482,0.609-0.444,1.192
	c1.661,0.655,17.266-2.733,17.563-2.979c3.538,1.298,11.125,1.745,14.888,1.491c3.287,1.113,13.071,0.121,14.586,1.336
	c0.024-0.174-0.024-0.42,0.147-0.443c0.222,0.125,0.322,0.375,0.299,0.742c4.632-4.595,6.59-8.557,7.441-15.183
	c-1.252-1.001-2.99-0.325-4.464-0.746c-0.363,0.199,0.164,0.557-0.147,0.596c-0.801,0.155-0.574-0.717-1.34-0.596
	c-0.356-0.057,0.081,0.68-0.449,0.447c-2.034-1.949-8.342,0.659-11.162-0.147c0-0.15,0-0.299,0-0.447
	c-0.744,0.605-1.128-0.227-1.787,0.297c-0.024-0.221,0.054-0.549-0.149-0.596c-0.311,1.037-1.353-0.316-1.936,0.446
	c-0.32-0.125,0.057-0.948-0.296-1.041c-0.321,0.125,0.058,0.95-0.297,1.041c-0.388-0.189-0.468-0.307-0.299-0.742
	c-0.657,0.59-1.45,0.333-2.233,0.594c-0.013-0.407,0.248-0.299,0-0.594c-0.662-0.117-0.196,0.893-1.043,0.594
	c-0.03-0.436,0.841-0.484,0.149-0.744c-1.374,0.766-4.797-0.505-5.954,0.596c0-0.201,0-0.397,0-0.596
	C146.921,104.34,146.471,104.917,145.933,104.454C145.933,104.371,146.471,104.917,145.933,104.454z M123.008,124.549
	c-0.529-0.034-0.893,0.098-1.041,0.446C122.334,124.867,122.997,125.033,123.008,124.549z M166.473,173.075
	c0.296,1.514-1.048,3.755-1.487,5.508c-0.212-0.038-0.252-0.246-0.448-0.3c-5.3,18.139-35.961,13.714-43.763,0.447
	c-0.069,0.178-0.158,0.337-0.295,0.446c0-4.231-2.644-8.115-2.233-12.203c-1.877-2.589,2.31-7.522,1.638-9.975
	c2.536-14.286,20.191-17.726,32.15-14.589c-1.733-8.925-2.292-16.257,8.977-14.871c6.282,0.776,12.979,15.129,3.229,14.725
	c0.105-0.114,0.37-0.731-0.148-0.595c-0.45,0.223,0.123,0.651,0,1.037c-1.082,0.132-7.01,1.737-6.996,1.192
	c0.251,0.646,6.188,7.711,6.55,8.039c-0.097-11.381,10.175-12.267,18.159-8.634c0.189-0.794,0.686-1.04,1.489-0.745
	c-0.882-4.084-5.573-6.136-6.4-9.823c-0.557,0.011-0.424,0.167-0.894,0c-0.305-2.249-8.808-8.089-11.76-7.294
	c0.121-0.519-0.222-0.572-0.148-1.041c-10.984-8.115-31.064-3.308-41.574,0.67c-14.3,5.413-17.986,18.574-24.519,30.736
	c-0.235,0.004,5.809-6.761,5.807-6.7c-0.23-0.037-0.104-0.325,0-0.442c4.483-0.432,9.764-2.82,11.761,2.975
	c0.002-0.394-0.083-0.878,0.295-0.893c3.375,13.396-2.746,7.638-8.929,16.228c8.153,8.21,10.94,5.061,8.186,17.415
	c6.782-3.728,8.188,4.156,11.61,6.995c-0.194-0.004-0.188-0.412,0-0.446c0.549,0.583,1.219,5.852,0.896,6.548
	c-4.177,1.567-5.908,5.235-11.462,6.405c-1.919-2.317-15.006-11.03-4.615-16.674c0.592,0,2.146-1.435,1.936-2.086
	c-2.474,0.579-14.746,3.607-15.183-1.635c-0.51-0.11-0.248,0.549-0.597,0.594c-0.615-0.874-0.971-2.006-2.233-2.233
	c-0.196,3.857,0.068,9.781,2.529,12.949c0.035-0.113,0.005-0.291,0.151-0.295c-0.843,9.709,21.792,14.001,28.281,16.67
	c9.849,4.054,33.756,3.323,40.339-5.508c-0.623-0.39-0.805-1.063-0.894-1.635c-0.061,0.186-0.191,0.303-0.445,0.295
	c0.148-6.586-6.451-18.938,4.465-19.648c0.195-0.508-0.331-1.037,0-1.188c0.723,0.269,0.593,1.393,1.19,1.786
	c0.752,0.133,0.973-0.817,1.491-0.446c-1.497,4.027,2.873,6.79,5.506,8.335c10.209-1.39,13.829-47.729,4.911-50.162
	c-0.042,0.258,0.42,0.738,0,0.89c-0.246-0.341-0.388-0.557-0.894-0.296c4.509,12.525-7.189,9.369-7.888,15.031
	c0.636-0.079-2.544,0.057-1.636,0.299c-0.227-0.223-0.227-0.666-0.747-0.594c-0.394,0.382,0.287,0.212,0.299,0.594
	c-0.778,0.496-1.544,0.084-2.53,0.3c-0.044-0.296,0.2-0.296,0.297-0.447c0.197,0.121-2.726,0.22-2.975,0.147
	c-0.266,4.577,0.017,8.999-0.449,13.396c0.05,0.591,0.462-0.109,0.597,0.3c-0.417-0.068,0.115,0.81-0.299,0.745
	C166.878,173.128,166.477,172.727,166.473,173.075C166.769,174.589,166.477,172.727,166.473,173.075z M117.947,122.316
	c-0.022,0.435,0.604,0.454,0.744,0.299C118.797,122.1,118.169,122.081,117.947,122.316z M171.831,126.184
	c-0.365-0.276-0.672-0.613-1.19-0.742C170.8,125.79,171.787,126.695,171.831,126.184z M174.81,127.675
	C173.776,127.255,174.186,128.118,174.81,127.675L174.81,127.675z M161.562,140.624c4.507-4.289,1.487-12.941-5.21-10.719
	C149.15,136.419,152.054,140.704,161.562,140.624C162.225,139.996,158.097,140.651,161.562,140.624z M170.641,143.751
	c-2.038,3.501-4.065,5.189-3.719,9.822c5.553,5.216,15.494-4.122,10.416-8.482c-0.963-0.022-1.919-0.034-2.528,0.299
	c0.046-0.353,0.233-0.56,0.147-1.045C173.816,143.489,172.416,143.38,170.641,143.751
	C170.406,144.155,172.416,143.38,170.641,143.751z M10.176,144.791c0.86-0.029,0.251-0.965-0.148-1.04
	C9.956,144.221,10.297,144.277,10.176,144.791z M129.111,183.345c13.151,10.076,30.848,0.473,34.98-13.544
	c4.297-14.99-16.62-34.915-29.323-23.37c-1.891-0.053,8.73-0.117,8.929-0.151c-3.77,5.579-15.089-1.037-20.242,9.826
	c-3.799,7.999-4.319,21.8,5.359,25.899C128.677,182.689,129.186,182.724,129.111,183.345
	C129.761,183.844,129.186,182.724,129.111,183.345z M11.816,148.812c0.751,0.242,1.067,1.707,1.784,1.487
	c-0.741-1.847-1.682-3.585-2.829-5.208c-0.174,0.022-0.422-0.026-0.446,0.147C10.808,146.446,11.34,147.601,11.816,148.812
	C12.567,149.054,11.34,147.601,11.816,148.812z M111.397,151.192c-2.3,4.19-6.68,0.432-8.939,6.094
	c-2.749,6.879,3.375,9.472,8.195,4.922c0.535-1.177,3.414-9.801,1.043-11.016C111.596,151.192,111.497,151.192,111.397,151.192
	C111.18,151.59,111.497,151.192,111.397,151.192z M20.299,155.807c-0.153,0.019-0.301-0.64-0.446-0.147
	C20.068,155.579,20.216,156.238,20.299,155.807z M59.746,157.146c0.017-0.371,0.281-0.466-0.149-0.595
	C59.394,156.806,59.115,157.135,59.746,157.146z M97.556,158.785c-3.164,5.277-0.717,11.179-2.235,17.117
	c2.29-2.331,9.11-7.104,10.569-9.375c-8.591,3.342-5.738-7.829-8.187-9.976C97.537,157.181,97.529,157.968,97.556,158.785
	C96.04,161.311,97.529,157.968,97.556,158.785z M21.194,157.593c0.017-0.371,0.281-0.466-0.151-0.594
	C20.85,157.195,20.952,157.445,21.194,157.593z M56.617,159.081c0.88-0.262,1.31-0.978,1.937-1.488
	C57.567,157.748,57.172,158.494,56.617,159.081z M53.939,161.314c0.015-0.382,0.581-0.212,0.596-0.594
	C54.254,160.751,53.55,161.103,53.939,161.314z M32.951,167.269c-0.064-0.28,0.204-0.896-0.296-0.741
	C32.631,166.895,32.731,167.144,32.951,167.269z M93.982,170.993c-0.257-0.878,0.607-2.048-0.448-2.532
	C93.195,169.32,93.481,170.509,93.982,170.993z M104.996,182.897c15.207,1.238,5.947-9.255,1.49-11.757
	C99.704,171.641,94.832,182.076,104.996,182.897C106.392,183.012,102.79,182.72,104.996,182.897z M84.455,199.272
	c-0.359-4.009-4.029-17.132-5.954-20.689c-13.922,4.33-32.418-3.668-47.188,0.594c-3.624,21.246,1.255,42.886-0.297,62.073
	c-2.095,2.934-0.256,3.985,0.297,7.146c22.281-3.286,50.133-4.929,73.087-3.274c8.85,0.636,49.504-8.513,53.291-3.573
	c5.979-0.942,31.08-4.013,35.575-0.894c0.115-0.382,0.149-0.844,0.446-1.041c-0.068,0.307-0.252,1.113,0.446,1.041
	c0.528-0.019-0.315-0.492,0.149-0.446c25.59,3.85,52.141,0.208,77.555,3.273c-4.753-17.597,1.654-39.975-0.447-58.352
	c-0.707-0.008-0.265,1.128-1.193,0.894c-0.145-1.063,0.202-1.605,1.044-1.636c0.231-1.112-0.454-1.964-0.596-3.126
	c-7.455-1.62-17.232,1.146-25.304,0.147c-0.024,0.174,0.024,0.424-0.151,0.446c-2.754-3.319-45.821-0.091-45.698-1.934
	c-0.008-0.254,0.115-0.383,0.299-0.447c-0.416-4.201-0.016,5.841,0,5.655c0.008-0.087,0.022-0.174,0.149-0.147
	c0,0.446,0,0.894,0,1.34c-0.808,0.908-2.823,1.362-2.53,3.868c-0.234-0.011-0.117-0.378-0.446-0.295
	c-1.037,1.188-1.002,2.865-2.084,4.167c-0.538,0.038-0.72-0.276-1.192-0.299c-3.872,7.366-1.489,18.643-12.502,21.734
	c-0.266,0.928-7.143,4.433-8.337,5.061c-0.559,0.061-6.238,2.828-6.846,1.935c0.024,1.65-11.164,4.02-11.761,4.168
	c-2.025,3.138-17.037,0.42-17.266,1.491c-6.281-2.4-58.356-10.78-47.933-21.288C87.169,204.696,85.732,202.062,84.455,199.272
	C84.232,196.767,85.732,202.062,84.455,199.272z M199.072,181.856c0.294-0.045,0.296,0.201,0.445,0.3
	c-0.057-0.391-0.074-0.818-0.297-1.041C199.345,181.535,199.012,181.497,199.072,181.856
	C199.366,181.812,199.012,181.497,199.072,181.856z M197.732,187.364c-0.164-1.976,1.757-3.365,0.744-5.208
	c-0.821,2.169-1.368,4.401-1.635,6.699C196.851,188.878,197.646,187.228,197.732,187.364
	C197.568,185.389,197.369,186.793,197.732,187.364z M95.619,186.618C95.205,187.187,96.165,187.273,95.619,186.618L95.619,186.618z
	 M115.861,187.811c-8.643,5.459-3.448,16.492,5.629,10.917C128.568,194.378,122.065,187.296,115.861,187.811
	C113.593,189.245,117.283,187.693,115.861,187.811z M184.04,196.146c-6.628,0.068-13.024-0.404-14.291-8.63
	c-1.911-0.197-2.901,0.799-2.979,2.976c-0.294,0.249-0.188-0.016-0.595,0c0.333,5.204,4.86,23.532,12.654,23.668
	c2.32-5.046,17.179-10.02,9.822-18.903C186.758,195.195,185.172,195.441,184.04,196.146
	C182.81,196.157,185.172,195.441,184.04,196.146z M95.917,197.039c0.021-0.367,0.026-0.719-0.298-0.742
	C95.597,196.664,95.591,197.021,95.917,197.039z M272.753,198.829c-0.016-0.249,0.482-0.95-0.146-0.896
	C272.69,198.197,272.427,198.807,272.753,198.829z M124.497,211.926c0.201,0.046,0.284,0.212,0.595,0.147c0-0.098,0-0.196,0-0.295
	c-0.147,0-0.176-0.121-0.297-0.147C124.791,211.824,124.533,211.764,124.497,211.926
	C124.698,211.972,124.533,211.764,124.497,211.926z"/>
<path fill-rule="evenodd" clip-rule="evenodd" fill="#C49A6C" d="M176.744,97.606c-0.309,1.457,0.234,2.926-0.297,4.02
	c-7.981,2.398-26.536,0.097-34.98-0.893c-8.528-1-17.735-0.284-26.048-0.596c-2.092-3.67-6.757-10.276-12.802-5.209
	c-3.04-1.605-17.738-0.845-21.436,0.744c0.184,0.633,0.109,1.899,0.147,2.234c-0.528-0.076-1.1,0.753-1.488,0
	c-0.204,1.391,0.788,1.261,1.341,1.188c-0.02,3.729-17.109,7.949-19.055,14.293c-2.951,9.621,6.049,11.071,8.037,18.604
	c5.411,4.902-9.483,19.293-12.95,22.029c-8.184,6.466-16.557,11.762-26.644,9.233c-0.506,0.613,0.971,0.511,0.893,1.188
	c-14.304-2.343-16.412-21.482-23.072-31.259c2.218-19.118,3.933-31.893,15.684-46.76c11.291-14.291,37.095-25.534,55.023-27.369
	c0.567-0.421-0.224-0.41,0.147-0.894c2.116-0.487,5.057-1.242,7.888-1.488c0.611-0.069-0.003,0.374,0,0.595
	c24.703-9.322,53.868-0.723,79.043,0.447c22.265,1.034,45.535,1.979,65.646,12.95c0.187-0.645-0.992-0.685-0.597-1.041
	c5.907,2.189,42.394,14.723,42.42,21.881c18.568,4.301,19.232,41.372,15.185,54.775c-5.912,19.566-11.777,21.391-30.069,17.863
	c-14.646-2.828-22.09-10.702-32.448-20.392c1.641-4.187,15.796-17.234,8.634-22.923c-0.149-13.861-16.694-10.224-22.775-16.522
	c-0.095-2.411-0.007-3.732,0.447-6.105C210.566,93.535,181.476,96.079,176.744,97.606C176.436,99.063,178.058,97.183,176.744,97.606
	z M45.752,144.197c0.258,0.008,0.381-0.113,0.449-0.299C45.966,143.913,45.684,143.88,45.752,144.197z M29.679,163.4
	c-0.108-0.405,0.702,0.106,0.594-0.299c-0.372,0.105-0.611-0.655-0.895-0.147C29.625,162.954,29.463,163.366,29.679,163.4
	C29.57,162.995,29.463,163.366,29.679,163.4z"/>
<path fill-rule="evenodd" clip-rule="evenodd" fill="#BCBEC0" d="M75.524,150.598c1.766-10.526,9.126-19.145,8.931-31.109
	c0.161,0.034,0.101,0.295,0.297,0.295c0.438-3.937,0.637-7.464,0.447-11.163c-0.64-12.158,0.313-3.762,7.143-10.271
	c-0.01,0.212-0.024,0.422,0.151,0.449c5.125,0.267,10.437-1.711,15.185-1.34c-0.026,1.141,0.871,5.019,1.039,5.952
	c0.642,5.804,7.777,12.209,8.337,19.204c-4.988,1.177-15.337,12.351-16.374,17.116c-0.541,0-0.668-0.424-1.042-0.594
	c0.026,12.211-10.99,26.023-10.867,39.446c0.317-0.064,0.375,0.613,1.192,0.446c1.215,6.882,4.187,13.188,5.357,20.096
	c0.066,0.219,0.191-0.057,0.447,0c-0.691,12.597,27.694,14.796,35.428,17.116c4.336-2.479,18.36,0.446,24.113-1.041
	c11.647-3.002,11.533-7.282,20.393-0.295c-3.251,10.367-35.364,12.502-43.017,10.416c-8.049-2.21-33.937-4.08-36.917-12.653
	c0.866-0.174,1.635-0.446,1.788-1.34c-1.391-2.146-6.128-4.808-6.85-6.549c0.423-9.845-11.173-18.559-11.164-29.622
	c-5.432,3.687-25.943,1.348-32.152,0.299C52.333,166.148,74.561,165.123,75.524,150.598
	C75.553,150.428,75.482,151.223,75.524,150.598z M65.253,164.143C65.989,163.945,65.486,163.442,65.253,164.143L65.253,164.143z
	 M98.3,212.668c-0.023-0.197,0.602-0.446,0.147-0.595C98.468,212.274,97.84,212.524,98.3,212.668z"/>
<path fill-rule="evenodd" clip-rule="evenodd" fill="#BCBEC0" d="M182.399,103.708c-0.514-0.778-1.117-1.912-0.742-3.125
	c3.838-4.031,19.067-0.051,23.519-0.744c0.519,0.072,0.167-0.727,0.595-0.746c5.508,3.721,3.125,21.424,5.208,27.983
	c3.528,11.083,9.995,19.955,13.847,30.663c3.19,12.595,31.96,13.154,40.041,20.543c-5.137,3.589-27.035-0.23-34.004-0.394
	c-3.162-0.075-31.938-4.122-33.726-0.646c-0.526,6.718-4.919,17.585-13.246,15.928c-0.91-4.671,5.325-11.769,5.954-16.375
	c-0.748-18.158,2.63-35.297-12.207-49.121c-0.438,0.125,0.194,0.371,0,0.742c-0.479-0.167-0.583-0.708-0.744-1.188
	c-0.522-0.167-0.587,0.886-0.446,0.893c-0.746,0.099-1.113-1.468-1.935-1.787c-0.188,0.038-0.151,0.295,0,0.299
	c-0.488,0.072-1.19-1.794-1.19-1.791c-0.318-0.068-0.284,0.216-0.301,0.451c-0.736-0.118,0.24-1.026-0.295-1.34
	c0.223-0.621,1.086-0.605,1.487-1.044c-0.091-0.711-0.199-0.211-0.597-0.147c1.022-0.916,2.014-1.859,2.979-2.828
	c0.026,0.125-0.059,0.14-0.149,0.147C177.215,121.543,182.026,104.421,182.399,103.708
	C181.886,102.93,182.212,104.067,182.399,103.708z M182.848,102.815c0.147,0,0.297,0,0.446,0c0.026-0.322-0.123-0.473-0.446-0.445
	C182.848,102.52,182.848,102.667,182.848,102.815C182.995,102.815,182.848,102.667,182.848,102.815z M184.04,104.007
	c-0.28-0.178-0.424-1.252-0.896-0.744C183.592,103.271,183.648,104.435,184.04,104.007z M178.084,119.636
	c0.256,0.008,0.381-0.113,0.446-0.295C178.296,119.352,178.016,119.318,178.084,119.636z"/>
<path fill-rule="evenodd" clip-rule="evenodd" fill="#ED1C24" d="M166.771,173.374c0.414,0.064-0.118-0.813,0.299-0.745
	c-0.135-0.409-0.547,0.291-0.597-0.3c0.466-4.397,0.184-8.819,0.449-13.396c0.249,0.072,3.172-0.026,2.975-0.147
	c-0.097,0.151-0.341,0.151-0.297,0.447c0.986-0.216,1.752,0.196,2.53-0.3c-0.012-0.382-0.692-0.212-0.299-0.594
	c0.521-0.072,0.521,0.371,0.747,0.594c-0.908-0.242,2.271-0.378,1.636-0.299c0.698-5.662,12.396-2.506,7.888-15.031
	c0.506-0.261,0.647-0.045,0.894,0.296c0.42-0.151-0.042-0.632,0-0.89c8.918,2.434,5.298,48.772-4.911,50.162
	c-2.633-1.545-7.003-4.308-5.506-8.335c-0.519-0.371-0.739,0.579-1.491,0.446c-0.598-0.394-0.468-1.518-1.19-1.786
	c-0.331,0.151,0.195,0.681,0,1.188c-10.916,0.711-4.316,13.063-4.465,19.648c0.254,0.008,0.385-0.109,0.445-0.295
	c0.089,0.571,0.271,1.245,0.894,1.635c-6.604,8.857-28.162,8.994-38.107,5.958c-6.749-2.066-31.359-7.354-30.513-17.12
	c-0.146,0.004-0.116,0.182-0.151,0.295c-2.461-3.168-2.726-9.092-2.529-12.949c1.263,0.228,1.618,1.359,2.233,2.233
	c0.349-0.045,0.087-0.704,0.597-0.594c0.437,5.242,12.709,2.214,15.183,1.635c0.21,0.651-1.344,2.086-1.936,2.086
	c-10.391,5.644,2.696,14.356,4.615,16.674c5.554-1.17,7.285-4.838,11.462-6.405c0.323-0.696-0.347-5.965-0.896-6.548
	c-0.188,0.034-0.194,0.442,0,0.446c-3.422-2.839-4.828-10.723-11.61-6.995c2.755-12.354-0.032-9.205-8.186-17.415
	c6.183-8.59,12.304-2.831,8.929-16.228c-0.378,0.015-0.293,0.499-0.295,0.893c-1.997-5.795-7.277-3.406-11.761-2.975
	c-0.104,0.117-0.23,0.405,0,0.442c0.002-0.061-6.042,6.704-5.807,6.7c6.532-12.162,10.219-25.323,24.519-30.736
	c10.51-3.978,30.59-8.785,41.574-0.67c-0.073,0.469,0.27,0.522,0.148,1.041c2.952-0.795,11.455,5.045,11.76,7.294
	c0.47,0.167,0.337,0.011,0.894,0c0.827,3.687,5.519,5.738,6.4,9.823c-0.804-0.295-1.3-0.049-1.489,0.745
	c-7.984-3.633-18.256-2.748-18.159,8.634c-0.361-0.328-6.299-7.393-6.55-8.039c-0.014,0.545,5.914-1.061,6.996-1.192
	c0.123-0.386-0.45-0.814,0-1.037c0.519-0.136,0.254,0.48,0.148,0.595c9.75,0.404,3.053-13.949-3.229-14.725
	c-11.269-1.386-10.71,5.946-8.977,14.871c-11.52-3.024-25.358-0.211-30.835,10.917c-4.963,10.073-0.72,15.895-0.72,25.85
	c0.137-0.109,0.226-0.269,0.295-0.446c7.802,13.267,38.463,17.691,43.763-0.447c0.196,0.054,0.236,0.262,0.448,0.3
	c0.439-1.753,1.783-3.994,1.487-5.508C166.477,172.727,166.878,173.128,166.771,173.374
	C167.185,173.438,166.878,173.128,166.771,173.374z M143.104,125.294c0.289-3.062-16.072-3.429-13.396,10.716
	c3.781,6.412,19.483,5.045,18.755-3.721c-0.975-0.711-3.287-5.329-3.573-6.4C143.919,126.15,144.016,124.946,143.104,125.294
	C143.187,124.416,144.016,124.946,143.104,125.294z M127.771,131.99c-2.901-4.375-15.322,0.163-16.971,3.872
	c0,4.005-1.565,5.428,0.597,8.929c0.462,0.189,7.924,3.948,8.337,2.532c0.047-0.465-0.43,0.379-0.447-0.15
	c0.403-0.359,0.827,0.166,1.487,0c0.365-0.197-0.162-0.553,0.148-0.595C125.656,150.367,129.831,135.098,127.771,131.99
	C126.95,130.752,128.447,133.008,127.771,131.99z M167.665,141.518c0.023-0.103-0.053-0.867-0.147-0.447
	C167.385,141.639,167.594,141.816,167.665,141.518z M181.657,141.964c0.061-0.329-0.446-0.821-0.597-0.446
	C181.363,141.563,181.458,141.816,181.657,141.964z M178.53,159.974c-4.51-0.765-7.631,1.883-9.824,4.169
	c0.135,5.995,0.034,9.618,5.508,13.252c15.587-0.417,6.217-6.567,9.229-15.187c-0.815-0.075-1.074-0.734-1.786-0.147
	C181.521,160.523,180.479,159.83,178.53,159.974C174.021,159.209,179.674,160.167,178.53,159.974z M173.916,188.11
	c-0.202-0.296,0.07-1.064-0.594-0.894C173.296,187.739,173.197,188.333,173.916,188.11z M136.108,191.236
	c-10.948-0.742-6.815,21.712,2.827,18.01c0.014,0.234-0.021,0.515,0.298,0.446C153.743,211.403,148.721,189.257,136.108,191.236
	C133.713,191.073,136.536,191.168,136.108,191.236z M151.438,195.851c0.261-0.042,0.745,0.42,0.896,0
	c-0.116-0.034-0.296-0.004-0.3-0.151c0.084,0.004,0.171-0.121,0-0.147C151.9,195.96,151.485,195.264,151.438,195.851
	C151.699,195.809,151.485,195.264,151.438,195.851z M150.694,196.444c0.307,0.133,0.67-0.386,0.299-0.446
	c-0.422,0.416,0.056-0.47-0.446-0.299C150.424,196.123,150.757,196.089,150.694,196.444
	C151.001,196.577,150.757,196.089,150.694,196.444z"/>
<path fill-rule="evenodd" clip-rule="evenodd" fill="#939598" d="M89.069,206.865c-10.424,10.508,41.651,18.888,47.933,21.288
	c0.229-1.071,15.24,1.646,17.266-1.491c0.597-0.148,11.785-2.518,11.761-4.168c0.607,0.894,6.287-1.874,6.846-1.935
	c1.194-0.628,8.071-4.133,8.337-5.061c11.013-3.092,8.63-14.368,12.502-21.734c0.473,0.022,0.654,0.337,1.192,0.299
	c1.082-1.302,1.047-2.979,2.084-4.167c0.329-0.083,0.212,0.284,0.446,0.295c-0.293-2.506,1.723-2.96,2.53-3.868
	c0-0.446,0-0.894,0-1.34c-0.127-0.026-0.142,0.061-0.149,0.147c-0.016,0.186-0.416-9.856,0-5.655
	c-0.184,0.064-0.307,0.193-0.299,0.447c-0.123,1.843,42.944-1.386,45.698,1.934c0.176-0.022,0.127-0.272,0.151-0.446
	c8.071,0.999,17.849-1.768,25.304-0.147c0.142,1.162,0.827,2.014,0.596,3.126c-0.842,0.03-1.188,0.572-1.044,1.636
	c0.929,0.234,0.486-0.901,1.193-0.894c2.102,18.377-4.306,40.755,0.447,58.352c-25.414-3.065-51.965,0.576-77.555-3.273
	c-0.465-0.046,0.379,0.428-0.149,0.446c-0.698,0.072-0.515-0.734-0.446-1.041c-0.297,0.197-0.331,0.659-0.446,1.041
	c-3.908-2.71-25.457-0.159-30.812,0.894c-17.152,3.376-40.269,4.849-58.055,3.573c-22.954-1.654-50.806-0.012-73.087,3.274
	c-0.553-3.161-2.392-4.213-0.297-7.146c1.552-19.188-3.327-40.827,0.297-62.073c14.77-4.262,33.266,3.736,47.188-0.594
	C83.559,187.936,80.418,197.001,89.069,206.865C88.621,207.315,87.169,204.696,89.069,206.865z M79.841,190.044
	c0.04-0.2-0.093-0.579-0.149-0.299C79.65,189.949,79.784,190.328,79.841,190.044z M239.559,197.039c0.103,0,0.199,0,0.299,0
	c0-0.099,0-0.197,0-0.295c-0.1,0-0.196,0-0.299,0C239.559,196.842,239.559,196.94,239.559,197.039
	C239.661,197.039,239.559,196.94,239.559,197.039z M178.383,234.554c0.024-0.106-0.053-0.87-0.151-0.45
	C178.101,234.671,178.313,234.849,178.383,234.554z"/>
<path fill-rule="evenodd" clip-rule="evenodd" d="M144.89,125.889c0.286,1.071,2.599,5.689,3.573,6.4
	c0.729,8.767-14.974,10.133-18.755,3.721c-1.482-7.824,0.392-9.02,5.507-13.101C136.3,123.239,144.159,126.085,144.89,125.889
	C145.043,126.464,143.919,126.15,144.89,125.889z M143.402,129.905c-1.639-16.507-24.053,15.731,1.19,4.171
	C144.36,132.52,144.611,130.484,143.402,129.905C143.327,129.144,144.611,130.484,143.402,129.905z M132.236,129.609
	c0.22-0.432,0.886-1.192,0.448-1.787C132.401,128.133,132.021,129.772,132.236,129.609z M133.875,136.305
	c-0.319,0.008-0.711-0.655-0.895-0.295C133.209,136.093,133.527,136.835,133.875,136.305z"/>
<path fill-rule="evenodd" clip-rule="evenodd" fill="#FFF200" d="M152.481,137.35c0.399-0.557-0.532-9.319,5.044-7.298
	c4.896,1.771,9.782,5.106,4.036,10.572C158.097,140.651,152.451,141.631,152.481,137.35
	C152.002,138.012,152.451,141.631,152.481,137.35z M152.928,134.67c-0.032-0.167-0.166-0.23-0.297-0.299
	c-0.462,0.5-0.032,1.143-0.297,1.639c0.477-0.133,0.202,0.492,0.594,0.446c0.174-0.753,0.45-1.885,0.297-2.68
	C152.994,134.03,153.404,134.443,152.928,134.67C152.896,134.503,153.404,134.443,152.928,134.67z"/>
<path fill-rule="evenodd" clip-rule="evenodd" d="M128.219,135.711c0.028,0.182-2.217,14.933-7.296,10.867
	c-0.311,0.042,0.217,0.397-0.148,0.595c-0.66,0.166-1.084-0.359-1.487,0c0.018,0.529,0.494-0.314,0.447,0.15
	c-0.248,0.855-6.006-1.211-5.907-1.154c-5.262-2.99-3.026-4.818-3.026-10.307C113.696,129.341,132.327,129.526,128.219,135.711
	C128.621,138.319,129.119,134.36,128.219,135.711z M119.584,143.898c3.294-0.738,6.254-6.59,5.36-9.675
	c-6.918-1.548-13.01,1.196-11.017,8.785C115.615,143.402,117.459,144.379,119.584,143.898
	C121.504,143.467,117.459,144.379,119.584,143.898z M126.729,139.731c0.023-0.174,0.268-0.337,0-0.447
	C126.708,139.458,126.464,139.621,126.729,139.731z"/>
<path fill-rule="evenodd" clip-rule="evenodd" fill="#FFF200" d="M174.957,144.345c0.086,0.485-0.102,0.692-0.147,1.045
	c0.609-0.333,1.565-0.321,2.528-0.299c5.078,4.36-4.863,13.698-10.416,8.482c-0.347-4.633,1.681-6.321,3.719-9.822
	C172.416,143.38,173.816,143.489,174.957,144.345C175.043,144.83,173.816,143.489,174.957,144.345z M173.47,145.685
	c0.611-0.34,0.759-0.223,1.192-0.745C174.073,145,173.377,144.951,173.47,145.685z"/>
<path fill-rule="evenodd" clip-rule="evenodd" fill="#39B54A" d="M128.814,182.005c-8.232-3.486-9.959-16.818-6.4-24.412
	c2.161-4.614,4.574-6.147,8.344-9.247c2.939-2.411,11.53,0.022,12.939-2.066c-0.198,0.034-10.819,0.099-8.929,0.151
	c12.703-11.545,33.62,8.38,29.323,23.37c-2.324,7.881-6.073,12.09-13.477,15.913C147.722,187.213,127.698,187.572,128.814,182.005
	C128.433,181.842,128.677,182.689,128.814,182.005z"/>
<path fill-rule="evenodd" clip-rule="evenodd" d="M181.358,161.02c0.249,0.197,0.049,0.84,0.299,1.041
	c0.712-0.587,0.971,0.072,1.786,0.147c-2.182,6.242,4.16,8.403-2.682,14.735c-10.456,3.354-11.895-5.567-12.056-12.801
	C173.403,159.243,176.04,161.395,181.358,161.02C181.607,161.217,180.192,161.099,181.358,161.02z M180.168,173.67
	c0.729-0.28,1.175-1.067,2.083-0.742c5.892-5.397-4.873-12.954-10.567-8.335C169.217,170.747,176.611,173.151,180.168,173.67
	C180.896,173.39,179.121,173.519,180.168,173.67z"/>
<path fill-rule="evenodd" clip-rule="evenodd" fill="#2E3192" d="M188.652,195.256c4.433,5.349-2.913,15.985-8.186,18.306
	c-8.785,1.786-13.892-16.841-14.291-23.07c0.407-0.016,0.301,0.249,0.595,0c0.077-2.177,1.067-3.173,2.979-2.976
	C171.496,198.879,180.981,195.018,188.652,195.256C189.163,195.869,186.758,195.195,188.652,195.256z"/>
<path fill-rule="evenodd" clip-rule="evenodd" fill="#FFF200" d="M143.848,205.972c-5.33,0.424-12.813,2.536-10.867-7.593
	C134.723,189.299,147.855,198.897,143.848,205.972C142.916,206.048,144.432,204.942,143.848,205.972z M139.381,194.957
	c-0.222,0.026-0.547-0.053-0.595,0.151C139.012,195.078,139.335,195.158,139.381,194.957z M138.489,195.108
	c-0.515-0.125-0.628,0.272-0.894,0C137.517,195.703,138.459,195.324,138.489,195.108z M136.853,201.952
	c0.469-0.072,0.526,0.269,1.041,0.147c-0.072-0.469,0.269-0.526,0.149-1.041c-0.478-0.128-0.205,0.492-0.597,0.447
	c-0.011-0.557-0.166-0.424,0-0.894C136.32,200.483,136.606,201.316,136.853,201.952C137.321,201.88,136.606,201.316,136.853,201.952
	z"/>
<path fill-rule="evenodd" clip-rule="evenodd" d="M137.149,190.79c9.268-3.426,18.401,20.825,2.084,18.902
	c-0.318,0.068-0.284-0.212-0.298-0.446C128.809,213.134,125.241,189.132,137.149,190.79
	C138.429,190.313,136.574,190.71,137.149,190.79z M143.848,202.993c-1.825-18.635-21.712,4.713,0,2.979
	C144.432,204.942,143.913,203.667,143.848,202.993C143.766,202.146,143.913,203.667,143.848,202.993z M146.527,199.424
	c0.22,0.632,0.07,1.317,0.596,1.782c-0.321-1.457-0.717-2.896-1.19-4.314C145.769,198.167,146.319,198.818,146.527,199.424
	C146.747,200.056,146.319,198.818,146.527,199.424z"/>
</svg>
