<?xml version="1.0" encoding="utf-8"?>
<!-- Generator: Adobe Illustrator 15.1.0, SVG Export Plug-In . SVG Version: 6.00 Build 0)  -->
<!DOCTYPE svg PUBLIC "-//W3C//DTD SVG 1.1//EN" "http://www.w3.org/Graphics/SVG/1.1/DTD/svg11.dtd">
<svg version="1.1" id="Layer_1" xmlns="http://www.w3.org/2000/svg" xmlns:xlink="http://www.w3.org/1999/xlink" x="0px" y="0px"
	 width="340px" height="150px" viewBox="0 0 340 150" enable-background="new 0 0 340 150" xml:space="preserve">
<path id="z" fill="#E4563F" stroke="#626363" stroke-miterlimit="10" d="M125.865,6.839c-3.371-3.176-9.31-1.887-13.229-0.866
	c-4.551,1.186-7.826-1.772-12.892-0.917c-5.015,0.849-10.055,2.771-15.211,1.783c-0.677,5.405-11.664-0.641-13.593-0.944
	C61.662,4.422,45.822,5.269,37.89,7.81c-4.17,1.338-2.875,3.089-6.114,4.37c-3.163,1.252-0.432,8.385-1.148,10.836
	c3.459,0,5.395,1.925,5.395,5.386c5.141,0,15.483,3.725,19.762,0c7.754-3.457,16.744-6.11,24.977-7.006
	c4.85-0.527,11.078-0.926,15.805-1.919c6.673-1.405-3.587-3.653,7.736-3.653c2.953-0.404,3.591,1.179,3.591,3.593
	c-1.196,0-2.395,0-3.591,0c0.739,2.792-7.826,7.186-8.986,7.186c0,6.568-17.226,14.206-21.761,19.208
	c-1.804,1.985-5.992,7.748-8.781,7.748c-2.965,0-2.864,7.185-7.187,7.185c0,4.373-12.042,9.705-14.375,14.377
	c-3.521,0-7.639-0.547-8.991,3.589c-5.841,0.267-7.406,6.979-12.263,7.499c-6.102,0.641-20.766,8.398-20.511,15.389
	c0.111,3.064,2.719,4.418,3.683,7.073c1.592,4.375,0.249,9.197,7.53,7.731c0-5.448,2.104-3.256,6.706-3.356
	c3.448-0.073,6.702-3.834,11.262-3.834c4.71,0,8.853-4.524,13.812-5.203c3.709-0.511,10.81,2.603,13.471-1.036
	c2.658-3.642,0.217-7.072,6.071-6.361c1.949,0.238,11.489,1.3,11.565-1.73c0.615-6.512,27.745-5.384,32.345-5.384
	c0-0.597,0-1.197,0-1.802c2.997,0,5.983,0,8.979,0c0-0.6,0-1.2,0-1.799c8.077,0,5.591-4.571,5.396-8.981
	c-0.106-3.418-18.981-1.793-21.563-1.793c0,0.595,0,1.194,0,1.793c-4.747,0-9.281,4.929-14.278,5.12
	c-5.953,0.234-11.787,5.045-18.295,6.504c-3.15,0.706-4.568,1.275-7.736,0.888c-4.984-0.614-2.758,1.194-5.516,3.648
	c-3.858,3.431-14.467,3.606-18.854,3.606c-0.454-5.108,4.387-9.783,6.684-13.076c2.917-4.188,4.093,2.369,4.093-4.896
	c3.284,0.005,7.951-4.529,8.985-7.184c8.178,0,15.42-15.34,23.614-19.513c5.099-2.595,4.859-6.499,10.84-7.126
	c2.847-0.299,9.185-5.376,11.29-7.577c3.797-3.971,8.831-8.211,13.417-11.5c1.752-1.254,1.957-4.991,3.901-6.675
	c3.346-2.897,4.776-3.311,8.813-3.311C126.675,13.214,129.76,6.537,125.865,6.839C122.105,3.298,129.76,6.537,125.865,6.839z"/>
<path id="e" fill="#C4C4C4" stroke="#626363" stroke-miterlimit="10" d="M337.643,137.645c0.064,0.148-0.201,0.209-0.408,0.185
	c-0.051-0.136-0.123-0.263-0.215-0.372c0.039-0.454,0.481,0.063,0.623-0.279c-0.318-0.253-0.291-0.851-0.779-0.934
	c0.764-0.072-0.19-0.607-0.153-0.936c0.114-0.496,0.247-1.086-0.313-1.715c0.028-2.461-1.072-3.892-1.558-5.605
	c-0.609-2.143-0.939-5.434-2.337-6.855c0.411-1.324-0.351-2.714-0.624-4.048c-0.059-0.288,0.187-0.349,0.154-0.625
	c-0.129-1.201-1.087-2.229-1.557-3.114c-0.242-2.248-1.554-4.229-1.558-6.697c-0.638-0.5-0.626-1.195-0.777-1.869
	c-0.082,0.445-0.232-0.252-0.313-0.312c0.322-0.041,0.041-0.685,0.313-0.778c-0.335-0.498-0.529-1.133-0.469-2.024
	c-1.051-1.448-1.182-3.089-1.401-5.14c-0.096-0.219-0.599-0.024-0.623-0.313c-0.076-1.585-0.597-2.724-1.246-3.739
	c1.332-2.16-1.309-4.535-0.779-7.164c-0.813-2.474-1.339-5.727-1.869-8.41c0.048-0.358-0.449-0.174-0.467-0.467
	c0.995-1.199,0.035-2.51-0.156-3.896c-0.171-1.232,0.023-2.47-0.622-3.426c0.354-0.167,0.06-0.98,0.153-1.402
	c-0.553-0.725-0.284-1.949-0.622-2.806c-0.375-0.952-1.612-2.214-2.181-2.336c-3.016-0.647-2.245,3.151-2.023,4.363
	c0.295,1.619,0.178,2.61,0.467,3.894c0.129,0.567,0.517,1.109,0.623,1.713c0.085,0.482-0.104,0.926,0,1.401
	c0.282,1.321,0.853,2.364,0.935,3.584c0.096,1.41,0.406,2.373,0.467,3.271c0.107,1.535-0.215,3.591-0.312,4.517
	c-0.108,1.059-0.009,1.588-0.313,2.492c-0.579,0.563-0.967,1.317-1.09,2.336c-0.646,0.371-1.155,1.068-1.246,1.559
	c-0.962,0.178-1.284,1.065-2.181,1.402c-0.138,0.051-0.523-0.063-0.778,0c-1.188,0.291-2.349,0.541-3.426,0.467
	c-0.713-0.047-1.454,0.353-1.87,0.313c-0.004,0-0.131-0.297-0.155-0.313c-1.027-0.514-2.22,0.687-3.114,0.156
	c-0.043-0.465,0.435-0.949-0.158-1.091c-0.061,0.239-0.188,0.022,0-0.157c-1.75-0.063-2.702-0.93-3.424-2.021
	c-2.93,0.055-3.258-2.692-5.143-4.051c-0.361-0.489-0.063-1.144-0.312-1.868c-0.213-0.626-0.843-1.087-0.936-1.714
	c-0.334-2.31,1.187-4.285,3.271-4.362c0.537-0.865,1.309-1.494,2.181-2.022c0.813-3.646-1.225-5.71-3.114-7.168
	c-0.613-0.001-2.231,0.233-3.114,0.47c0.004,0.742-0.934,0.6-1.402,1.09c-0.439,0.461-0.311,1.206-0.935,1.558
	c0.211,0.866,0,0.87-0.156,1.87c0.063,0.456,0.408,0.631,0.624,0.932c-1.425,0.188-0.651,2.57-1.87,2.961
	c-1.038-0.011-1.953,0.141-2.961,0.155c-1.237,0.021-2.658,0.69-3.425,0.778c-1.604,0.184-3.291-0.655-4.675,0.156
	c0.51,0.143,0.541,1.949-0.31,1.713c-0.013-0.975,0.142-0.816,0.154-1.713c-0.389-0.649-1.114-0.285-1.714-0.313
	c-0.314-0.014-0.554-0.279-0.936-0.311c-0.393-0.031-1.136,0.236-1.712,0.156c-0.309-0.045-0.572-0.322-0.779-0.313
	c-0.111,0.006-0.148,0.369-0.468,0.313c-0.601-0.109-1.013-0.549-1.56-0.623c-0.297-0.043-0.843,0.198-1.245,0.154
	c-0.5-0.056-0.94-0.453-1.401-0.467c-0.651-0.02-1.313,0.32-2.023,0.467c0.395-0.415-0.4-0.514-0.622-0.777
	c-1.308-0.108-2.212-0.608-4.051-0.313c-1.055-0.99-4.839-1.818-5.765-0.154c-0.29,0.865,0.557,1.405,0.156,1.866
	c-0.866,0.091-1.015-0.543-1.401-0.935c-0.993-0.377-1.82-0.567-2.647-0.777c-0.035,0.12-0.131,0.18-0.311,0.154
	c-1.354,0.775-1.104,3.156-2.494,3.895c0.213,0.463-0.09,0.68,0,1.403c-2.018,1.2-2.169,4.267-3.271,6.387
	c-0.291-0.038,0.09-0.258-0.155-0.313c-0.239,0.229-0.138,0.798-0.154,1.246c-1.262,1.492-2.269,3.236-3.737,4.519
	c-1.18,0.118-1.69,0.908-2.493,1.401c-0.954-0.441-1.785,0.466-2.959,0.312c-1.492-1.47-4.07-1.847-5.451-3.426
	c-0.313-0.39,0.332-0.765,0-1.247c-0.972-1.107-2.33-1.824-2.338-3.895c-0.953-0.582-1.07-1.629-1.4-2.804
	c-0.314-1.108-1.042-2.266-1.246-3.27c-0.184-0.894,0.036-1.839-0.313-2.65c-0.327-0.761-1.344-1.709-1.868-2.022
	c-0.33-0.198-0.559-0.506-0.936-0.313c-0.275,0.524-0.373,1.002-0.622,1.401c-0.337,0.541-0.263,1.047-0.468,1.559
	c-0.045,0.111-0.415,0.193-0.468,0.313c-0.098,0.213,0.075,0.555,0,0.777c-0.173,0.506-0.813,0.893-1.092,1.402
	c-0.621,1.14-0.784,2.574-1.712,3.426v1.09c-0.583,0.096-0.677,0.676-1.092,0.938c0.146,0.646-0.438,1.537-0.778,2.181
	c-1.201-0.2-1.595-1.211-2.024-2.181c0.156,0,0.185,0.127,0.313,0.154c-0.728-0.949-1.636-1.959-1.091-3.737
	c2.252-0.655,2.704-3.113,4.519-4.206c0.178-0.904,0.46-2.209,1.558-2.18c0.217-0.951,0.254-1.114,0.468-2.025
	c0.199,0.007,0.215,0.199,0.465,0.156c0.332-1.562,1.721-2.8,2.184-4.52c0.372-1.385,0.764-3.309,0.623-4.983
	c-0.189-2.258,0.681-4.194,0.155-6.386c0.49-0.519,0.879-1.382,0.622-2.181c0.009,0.268-0.119,0.399-0.311,0.468
	c0.099-1.266,0.195-2.321-0.313-3.272c0.328-2.349,0.652-3.081,0-5.14c-0.323-0.091-1.022,0.192-1.091-0.155
	c1.4-0.786,0.2-1.428,0.936-2.805c-0.591-0.763,0.005-1.525,0-2.335c-0.002-0.235-0.246-0.446-0.313-0.78
	c-0.089-0.447,0.1-1.009,0-1.401c-0.146-0.586-0.744-1.187-0.468-2.026c-0.979-0.747-0.729-1.96-0.934-3.427
	c-0.245-1.748-1.38-2.8-2.025-4.049c0.002-0.414-0.062-0.889,0.156-1.091c-0.726-1.041-1.688-1.843-1.87-3.426
	c-0.575-0.273-0.773-0.778-0.779-1.247c-0.803-0.182-1.031-0.941-1.558-1.4c-0.448,0.271-0.679,0.637-1.246,0.154
	c0.026-0.44,0.286-0.649,0.313-1.09c-0.563-0.551-1.166-1.632-1.714-1.713c0.364-0.867-0.058-1.368-0.155-2.181
	c-0.554-0.24-0.095,0.529-0.468,0.469c-0.436-0.24-0.879-0.471-1.246-0.779c0.271-1.499-0.811-1.675-0.624-2.804
	c-0.966-0.332-1.759-0.837-2.49-1.402c0.133-1.032-1.413-1.78-2.338-1.401c0.295,0.353-0.856,0.587-1.09,0.934
	c-0.009,0.463,0.458,0.79,0.156,1.089c-0.199-0.008-0.216-0.198-0.468-0.156c0.138,0.382,0.466,0.573,0.312,1.247
	c-0.018,0.449-0.664,0.271-0.623,0.78c-0.157,0.983-0.63,1.652-0.936,2.492c0.354,0.852,0.38,1.297-0.154,2.024
	c0.311,0.781-0.019,2.264-0.624,2.647c0.003,0.468,0.404,0.529,0.468,0.936c-1.01,1.498-0.526,3.572-0.468,5.453
	c0.069,2.182-0.214,4.45-0.312,6.696c0.353,0.321,0.438,0.914,0.624,1.403c-0.453,1.144-0.563,2.294-0.469,3.426
	c0.074,0.895-0.124,2.11,0,2.959c0.089,0.604,0.453,1.127,0.469,1.715c0.01,0.413-0.262,0.867-0.313,1.245
	c-0.089,0.664,0.114,1.547,0,2.337c-0.045,0.315-0.325,0.637-0.312,0.933c0.024,0.474,0.396,0.891,0.468,1.402
	c0.291,2.093-0.082,4.228,0.468,6.231c0.018,0.295,0.515,0.109,0.467,0.468c-0.342,0.282-0.025,1.219-0.313,1.556
	c0.319,0.305,0.513,0.736,0.779,1.091c-0.146,2.749,0.362,6.175,1.4,8.257c-0.273,0.295-0.112,1.028-0.155,1.558
	c0.805,0.961,1.047,2.314,0.936,3.583c-0.53-0.146-0.914-0.438-1.713-0.313c-1.215-1.071-2.772-1.796-4.518-2.336
	c-0.275-0.296-0.659-0.484-0.936-0.779c-2.75-0.47-4.081-2.357-7.32-2.336c0.009-0.199,0.2-0.216,0.155-0.468
	c-0.324-0.199-0.607,0.042-0.934,0c-0.753-0.099-1.104-0.642-1.559-0.778c-0.218-0.066-0.345,0.163-0.468,0.155
	c-0.226-0.017-0.263-0.27-0.468-0.312c-2.499-0.493-5.208-0.679-8.1-0.778c-0.404-0.063-0.471-0.465-0.936-0.468
	c-2.651,0.218-5.219-0.903-7.788-0.623c0.048-0.41-0.327-0.403-0.624-0.468c-1.438,0.721-2.648,0.072-4.672,0.468
	c-0.808,0.958-2.157,1.376-3.271,2.025c-0.035,0.121-0.004,0.306-0.155,0.31c-0.196,2.639,0.284,4.598,1.4,5.918
	c-0.459,2.666,0.126,5.076,0.469,7.011c0.065,0.38-0.067,0.983,0,1.248c0.091,0.356,0.409,0.573,0.468,0.933
	c0.154,0.967,0.212,1.613,0.313,2.337c0.021,0.153-0.181,0.447-0.156,0.623c0.002,0.013,0.297,0.121,0.312,0.156
	c0.187,0.442-0.069,0.327,0.156,0.778c0.328,0.656-0.175,1.298,0.312,1.869c-0.574,1.11-0.228,2.271,0,3.271
	c-1.11,1.543-3.56,1.022-5.296,1.713c-2.184-0.722-3.969,0.683-5.764,0.313c-0.326-0.141-0.503-0.434-0.778-0.625
	c-1.765,0.738-3.908-0.324-5.764-0.621c-1.463-0.236-2.968-0.272-4.36-0.625c-2.399-0.604-4.311-1.887-6.388-2.491
	c-0.724-0.834-1.46-1.655-2.647-2.026c-0.397-0.967-1.48-1.466-2.181-2.336c-0.293-0.367-0.334-0.883-0.622-1.247
	c-0.326-0.409-0.816-0.604-1.091-1.09c-0.286-0.501-0.241-1.036-0.468-1.557c-0.129-0.298-0.487-0.481-0.622-0.778
	c-0.425-0.939-0.635-2.213-0.467-3.115c1.108,0.122,1.458-0.516,2.181-0.777c-0.104,0.957,1.557,0.543,1.089,1.399
	c0.595,0.128,0.478-0.456,0.935-0.467c1.856,0.461,3.83-0.075,5.919,0.154c0.347-0.876,1.445-0.093,2.337-0.154
	c0.511-0.265,0.512-0.578,0.624-0.935c1.098,0.76,1.908,0.252,3.427,0.156c0.234-0.337,0.572-0.57,0.935-0.779
	c1.629-0.043,2.305-0.615,3.271-1.09c0.297-0.146,0.741-0.164,0.935-0.313c1.583-1.225,1.149-3.632,2.804-4.829
	c0.271-0.815-0.191-1.576-0.155-2.336c0.034-0.713,0.365-1.265,0.155-1.869c-0.059-0.174,0.07-0.164,0-0.467
	c-0.547-2.347-1.439-3.9-2.804-5.296c-1.059-1.085-1.667-1.269-2.804-1.87c-0.076-0.041-0.189-0.393-0.313-0.468
	c-0.962-0.588-1.7-0.097-3.115-0.155c-0.258-0.011-0.545-0.314-0.776-0.312c-3.28,0.037-6.258,0.612-7.945,2.181
	c-0.738,0.04-1.2,0.356-2.023,0.312c-0.681,0.618-1.359,1.237-2.024,1.869c-0.547,0.075-0.513,0.179-0.937,0
	c-0.271,0.403-0.384,0.966-1.089,0.934c-1.27,2.419-3.638,3.739-3.583,7.478c-0.839,0.396-0.116,2.028-0.936,2.492
	c0.11,2.283,0.794,4.289,0.156,6.229c0.667,0.594,0.774,2.354,0.624,3.271c0.658,0.66,0.479,1.547,0.777,2.338
	c0.743,1.973,2.329,3.393,3.428,4.982c-0.063,0.375,0.284,0.339,0.155,0.777c0.935,0.834,2.028,1.506,2.649,2.648
	c1.31,0.303,1.888,1.332,2.646,2.181c2.816-0.004,3.844,2.938,6.544,2.338c1.832,2.343,5.217,0.558,7.01,2.181
	c0.52-0.102,0.762-0.484,1.245-0.623c1.449,1.154,3.244,0.699,4.828,0.313c0.475,0.729,1.673-0.227,2.182,0.467
	c0.038-0.565,0.813-0.119,1.246-0.154c0.468-0.041,0.934-0.485,1.245-0.155c1.277-1.47,4.681-0.983,6.387-1.714
	c0.397,0.988-0.06,1.96,0.157,3.115c0.187,1.013,0.879,1.938,0.934,3.115c0.049,1.035,0.111,2.553,0,3.582
	c-0.024,0.228-0.481,0.405-0.312,0.623c0.8,0.592,0.64,3.154,1.246,3.583c-0.237,0.931,0.195,1.648,0.312,2.49
	c0.004,0.024-0.175,0.744-0.156,0.778c0.065,0.123,0.298-0.061,0.313,0.156c0.053,0.766-0.377,1.398,0.155,1.869
	c-0.006-0.164,0.074-0.396,0.156-0.154c-0.018,1.16-0.081,1.363-0.778,1.711c-0.569-1.939-0.682-3.539-1.092-5.448
	c-0.267-0.063-0.397,0.229-0.468,0c0.242-0.384,0.233-1.017,0.313-1.56c-2.057-1.634,0.34-5.141-1.715-6.543
	c-1.379,3.805,0.247,9.825,0.469,14.176c0.521,0.462,0.926,1.976,0.934,3.738c1.155,2.856,1.38,6.207,2.806,9.034v0.935
	c1.37,1.965,1.736,4.617,3.738,6.23c-0.083-0.808,0.626-0.474,1.09-0.779c0.515-2.209,0.369-5.172,0-7.319
	c-0.33-1.912-0.314-4.185-0.623-5.452c-0.192-0.794-0.031-1.706-0.155-2.492c-0.041-0.262-0.261-0.511-0.312-0.779
	c-0.252-1.285-0.133-2.67-0.312-3.738c-0.063-0.379-0.613-0.744-0.156-1.09c-0.805-0.537-0.452-1.455-0.468-2.023
	c-0.015-0.499-0.589-1.575-0.624-1.714c0.006,0.024,0.197-0.265,0.156-0.468c-0.321-1.594-1.26-3.146-0.622-4.985
	c-0.89-0.825-0.142-3.284-1.092-4.048c0.015-0.246,0.397-0.123,0.313-0.469c-0.564-2.321-1.075-5.722-0.623-8.1
	c1.665-1.098,4.378-2.969,6.543-0.936c1.023-0.659,1.591,0.095,2.646-0.465c1.225,0.438,2.003,0.695,3.116,0.153
	c0.374,0.13,0.411,0.099,1.091,0.155c0.415,0,0.339-0.492,0.778-0.468c0.061,0.268-0.229,0.399,0,0.468
	c1.359-0.748,2.799-0.148,4.206,0.154c0.359-0.693,1.537-0.495,2.179-0.154c0.929-0.536,2.869-0.411,3.741-0.155
	c0.909-0.752,2.521-0.802,3.58-1.401c1.288,0.781,2.309-0.229,3.428-0.779c0.467,0.633,1.656-0.375,2.337,0.313
	c0.367-0.049,0.289-0.541,0.779-0.468c0.449,0.275,1.192,0.263,1.714,0.468c1.657-0.886,3.289-1.799,5.294-2.338
	c1.245,1.7,2.619,4.063,3.958,5.217c0.014-0.049,0.092-0.101,0.248-0.074c-0.222,0.725,0.89,0.537,1.401,0.934
	c0.247-0.38,0.663-0.583,1.247-0.622c1.494-2.28,1.465-5.849,2.647-8.567c0.383-0.881,1.153-1.767,1.401-2.806
	c0.087,0.453,0.244-0.235,0.468-0.153c1.286,1.621,1.625,4.188,3.114,5.607c0.479,1.855,1.851,2.822,2.338,4.674
	c0.63,0.147,0.888,0.899,1.245,1.09c0.547,0.287,1.081,0.676,1.558,0.933c0.229,0.127,0.277,0.339,0.468,0.47
	c1.128,0.764,2.381,1.371,3.428,2.18c0.579-0.396,0.671-0.055,1.246,0.156c2.66,0.981,4.201-0.715,6.229-1.091
	c0.205-0.039,0.479,0.36,0.623-0.157c0.765-0.306-0.027-1.277,0.779-1.4c0.394,0.502,0.694,0.125,1.246,0
	c0.031-0.862,0.735-1.486,0.467-2.18c1.093-0.01,1.636-1.605,2.649-2.182c-0.063-1.859,1.663-2.646,1.245-4.362
	c1.349-0.776,0.82-3.436,2.024-4.36c0.104-1.244,0.501-2.195,1.246-2.803c1.398,1.455,2.405,3.307,3.738,4.827
	c-0.19,0.71,0.428,0.611,0.311,1.248c0.275,0.474,0.484-0.428,0.623,0c0.18,0.489-0.244,0.376-0.313,0.622
	c1.151,0.979,1.49,2.77,2.493,3.893c0.599-0.143,1.381,0.345,1.714,0.78c0.418,0.548,0.298,1.493,0.621,2.183
	c0.585,1.234,1.641,1.98,1.714,2.957c0.311,0.211,0.743,0.298,1.092,0.469c-0.375,0.611,0.719,0.885,1.091,1.246
	c0.623-0.311,0.976-0.893,1.712-1.09c0.008-1.243-0.254-1.892-0.154-3.271c-0.34-0.283-0.284-0.963-0.625-1.246
	c0.499-1.422-0.716-3.023-1.4-4.203c0.03-1.068-0.237-1.841-0.934-2.183c-0.646-1.954-1.124-4.071-2.494-5.297
	c0.564-0.326-0.235-1.402,0-1.402c2.709,0.128,7.237,0.994,10.594,0.157c0.744,0.296,1.132,0.943,2.182,0.934
	c0.389-0.285,0.334-1.016,0.935-1.091c0.074,0.966,1.295,0.782,1.87,1.246c1.497-0.772,3.125-0.317,4.673-1.089
	c0.981,0.396,2.16-0.039,2.49-0.779c-0.004,0.473,0.548,0.387,0.937,0.467c1.862-0.103,3.3-1.601,4.673-1.246
	c-0.31,3.164,0.886,4.824,1.089,7.478c0.773,0.181,0.548,0.908,1.248,1.401c-0.034,0.763,0.474,0.979,0.466,1.714
	c1.377,0.752,2.723,1.534,3.427,2.959c1.442,0.626,2.437,1.319,3.582,2.493c0.854,0.207,0.935-0.023,1.714-0.156
	c0.078,0.648,0.591,0.863,1.092,1.09c0.633-0.041,1.134-0.216,1.559-0.466c0.854,0.72,2.984,1.409,4.205,0.776
	c0.515-0.31-0.388-0.664,0-0.776c0.662-0.531,0.791-1.233,1.712-0.468c-0.439,0.156-0.39,0.229-0.621,0.311
	c0.449,0.229,0.563,0.788,0.936,1.091c1.787-0.286,2.681-1.472,4.204-2.022c0.007-0.618,0.343-0.903,0.468-1.404
	c0.56-0.012,0.899-0.241,1.402-0.311c0.688-1.338,1.803-2.246,2.803-3.271c0.145,0.174,0.289,0.05,0.78,0.156
	c0.196,0.722,0.025,0.976,0.155,1.867c1.32,2.889,1.526,6.888,2.959,9.658c0.058,0.891,0.187,0.911,0,1.559
	c0.23,0.186,0.695,0.136,0.624,0.623c0.205,0.455-0.102,0.804,0,1.559c0.649,0.803,0.159,2.746,1.09,3.271
	c0.26,3.113,1.2,5.549,2.024,8.1c0.381,0.747,0.877,1.818,1.09,2.96c0.19,1.011,0.456,1.365,0.624,2.022
	c0.261,1.021,0.176,2.08,0.466,3.117c0.267,0.951,0.932,1.799,1.248,2.803c0.621,1.984,0.931,4.135,1.245,6.386
	c0.321,0.509,0.745,0.919,0.622,1.871c-0.763,0.604-1.356,0.085-2.023-0.156c-0.373-0.135-0.997-0.062-1.247-0.155
	c-0.789-0.299-1.932-0.891-3.115-1.402c-1.021-0.44-2.396-0.863-3.114-1.401c-0.227-0.17-0.391-0.62-0.624-0.778
	c-0.992-0.681-1.958-0.949-2.646-1.558c-0.246-0.217-0.469-0.407-0.622-0.624c-1.243-0.004-2.158-1.684-3.585-2.023
	c-0.076-0.629-0.8-1.056-1.089-1.248c-1.11-0.737-1.743-1.431-2.492-2.334c-0.921-1.11-2.645-2.123-3.116-2.959
	c0.795-0.928,1.712-0.776,2.493-1.717c1.411,0.235,3.459,0.045,4.673,0.313c0.507-0.171,0.589-0.765,0.936-1.091
	c-0.021,0.517,1.958,0.451,2.026-0.312c-0.761-0.446-1.465-0.396-2.183-0.469c-0.606-0.063-1.293-0.399-1.87-0.468
	c-0.287-0.033-0.606,0.174-0.934,0.156c-0.572-0.027-1.19-0.562-1.715-0.625c-0.476-0.057-1.071,0.166-1.557,0.156
	c-3.021-0.051-6.125-0.701-9.346-1.089c-2.517,1.099-1.577,5.044-0.313,6.853c1.531,1.117,3.047,2.25,4.048,3.895
	c2.689,0.895,3.367,3.8,5.92,4.83c0.898,1.749,2.92,2.376,4.049,3.895c0.378-0.064,0.341,0.283,0.78,0.155
	c0.811,0.954,1.75,1.781,3.117,2.181c0.182,0.231,0.133,0.695,0.62,0.623c0.096,0.008,0.186,0.022,0.156,0.155
	c0.757-0.095,0.8-0.095,1.558,0c-0.263,0.695,1.368,0.751,1.4,0.778c0.26,0.201,0.299,0.621,0.469,0.936
	c1.772,0.271,2.285,0.902,3.738,1.559c0.028-0.231,0.376-0.144,0.622-0.154c2.443,1.652,5.266,2.137,8.879,1.711
	c0.529-0.874,0.917-1.886,1.403-2.802C337.567,140.979,338.332,138.348,337.643,137.645z M131.41,71.289
	c0.634-0.04,0.726-0.625,0.936-1.091c1.295-0.626,2.391-1.452,2.959-2.805c1.264-0.033,1.451-1.145,2.959-0.934
	c0.453-0.402,1.26-0.842,1.247-1.247c1.289,0.036,2.354-0.411,2.96,0.469c1.345-0.867,2.217-0.869,4.205-0.936
	c0.889,0.773,1.643,1.68,3.427,1.558c0.143,1.281,0.682,1.604,1.091,2.337c-0.154,1.247-0.842,1.963-1.4,2.804
	c-1.482-0.386-1.885,1.103-3.896,1.246c-1.517,1.463-4.396,1.105-6.542,1.245c-0.998,0.065-1.998,0.86-2.647,0
	c-0.497,0.332-1.318,0.346-2.183,0.313c-0.418,0.104-0.301-0.323-0.465-0.469c-1.107,0.454-2.982,0.818-3.427-0.468
	C130.814,72.562,131.503,72.315,131.41,71.289z M205.554,84.063c-0.794,0.19-1.543,0.43-1.868,1.09
	c-1.216,0.291-2.382,0.63-2.96,1.559h-1.091c-1.651,0.686-3.063,1.609-4.827,2.18c-0.431,0.351-0.944,0.616-1.092,1.245
	c-1.607-0.288-2.948-0.348-3.427,0.625c-1.869-0.37-2.797-0.603-4.049,0.155c-0.234-0.232-0.468-0.469-0.624-0.78
	c-1.9,0.556-4.059-0.382-5.607,0.157c-0.831-0.438-2.859-0.425-4.051,0c-1.661-1.71-4.978,0.704-6.697-1.402
	c0.234-1.959-0.759-2.758-0.469-4.359c0.137-0.604-0.379-0.557-0.465-0.938c0.057-0.869,0.375-1.434,0.311-2.181
	c-0.019-0.214-0.251-0.033-0.311-0.155c0.005,0.012-0.053-0.51-0.156-0.777c-0.581-1.479-0.911-4.314-0.78-6.229
	c0.253-0.219,0.804-0.133,0.938-0.469c1.3,0.979,2.688-0.947,4.048,0.155c0.745,0.064,1.61-0.344,2.025,0.313
	c1.315-0.211,3.271-0.683,4.362,0.155c1.047-0.514,1.747,0.178,2.803,0.312c0.555,0.069,1.215-0.092,1.713,0
	c0.516,0.093,0.849,0.463,1.402,0.623c0.488,0.142,1.104,0.014,1.56,0.155c0.417,0.13,0.667,0.521,1.09,0.623
	c0.961,0.235,2.053,0.091,2.959,0.313c0.721,0.174,1.286,0.76,2.024,0.467v0.466c0.65-0.148,0.77,0.075,1.401-0.154
	c0.002,0.31,0.425,0.198,0.312,0.623c1.159,0.321,2.265,0.752,3.115,1.245c0.087,0.051,0.404-0.071,0.468,0
	c0.111,0.127,0.312,0.48,0.777,0.623c0.53,0.16,0.552,0.048,1.093,0.313c0.381,0.187,1.163,0.432,1.713,0.622
	c0.822,0.287,1.951,0.677,2.336,1.56c0.905,0.337,1.738,0.865,2.492,0.935C205.666,83.24,205.744,83.785,205.554,84.063z
	 M211.629,79.232c-0.688-1.739-1.823-3.189-1.713-5.297c-0.151-0.367-0.442-0.594-0.624-0.933c-0.172-2.005-0.381-4.499-1.245-6.23
	c0.46-2.583-1.131-5.754-1.245-8.412c-0.03-0.668-0.033-1.116-0.156-1.869c-0.317-1.925,0.131-3.894-0.779-5.607
	c0.097-0.58,0.371-0.979,0.468-1.56c-0.584-1.097-0.11-2.891,0-4.204c0.084-1.005-0.258-1.894-0.313-2.959
	c-0.089-1.78,0.233-3.502,0-5.608c0.145-0.375,0.284-0.755,0.467-1.09c-0.109-1.391-0.631-3.251,0.157-4.206
	c-0.487-1.991,0.956-4.354,0.312-7.166c1.067-0.177,0.626-1.866,1.868-1.869c0.724,0.13,0.132,0.766,0.468,1.09
	c0.727,0.935,0.907,2.416,2.493,2.491c-0.145,1.132,0.706,1.27,0.777,2.181c1.333,0.846,1.342,3.018,3.114,3.428
	c0.188,1.112,0.503,2.094,1.56,2.336c-0.051,0.879,0.665,0.995,0.935,1.557c-0.283,2.338,1.977,4.867,2.337,7.166
	c0.132,0.839-0.289,2.026,0.2,2.475c-0.003,0.27,0.068,0.542,0.215,0.767c-0.148,0.589-0.169,1.258-0.105,1.899
	c0.224,2.175,1.575,4.263,1.404,6.697c-0.093,1.297-0.74,2.257-0.468,3.74c-0.006,0.473,0.328,0.605,0.468,0.932
	c-0.32,1.068,0.005,1.419-0.156,2.959c-0.552,0.896-1.04,2.358-0.935,3.428c-0.151,0.421-0.438,0.704-0.778,0.934
	c-0.131,2.051-1.466,2.897-1.559,4.986c-0.896,0.639-1.068,2.171-2.182,2.96c0.134,0.362-0.545,0.67-0.155,0.777
	c-0.416,0.416-0.839,0.825-1.401,1.091c0.05,1.016-1.009,1.907-1.558,2.803C212.621,78.822,212.304,79.581,211.629,79.232z"/>
</svg>
